{
.appVersion = "1192";
copyright = "Copyright (c) 2013-2019 by Alessio Laiso (hello@alessiolaiso.com).";
customParameters = (
{
name = license;
value = "This Font Software is licensed under the SIL Open Font License, Version 1.1. This license is available with a FAQ at: http://scripts.sil.org/OFL";
},
{
name = licenseURL;
value = "http://scripts.sil.org/OFL";
},
{
name = glyphOrder;
value = (
.notdef,
NULL,
nonmarkingreturn,
space,
exclam,
quotedbl,
numbersign,
dollar,
percent,
ampersand,
quotesingle,
parenleft,
parenright,
asterisk,
plus,
comma,
hyphen,
period,
slash,
zero,
one,
two,
three,
four,
five,
six,
seven,
eight,
nine,
colon,
semicolon,
less,
equal,
greater,
question,
at,
A,
B,
C,
D,
E,
F,
G,
H,
I,
J,
K,
L,
M,
N,
O,
P,
Q,
R,
S,
T,
U,
V,
W,
X,
Y,
Z,
bracketleft,
backslash,
bracketright,
asciicircum,
underscore,
grave,
a,
b,
c,
d,
e,
f,
g,
h,
i,
j,
k,
l,
m,
n,
o,
p,
q,
r,
s,
t,
u,
v,
w,
x,
y,
z,
braceleft,
bar,
braceright,
asciitilde,
uni00A0,
exclamdown,
cent,
sterling,
currency,
yen,
brokenbar,
section,
dieresis,
copyright,
ordfeminine,
guillemotleft,
logicalnot,
uni00AD,
registered,
macron,
degree,
plusminus,
twosuperior,
threesuperior,
acute,
mu,
paragraph,
periodcentered,
cedilla,
onesuperior,
ordmasculine,
guillemotright,
onequarter,
onehalf,
threequarters,
questiondown,
Agrave,
Aacute,
Acircumflex,
Atilde,
Adieresis,
Aring,
AE,
Ccedilla,
Egrave,
Eacute,
Ecircumflex,
Edieresis,
Igrave,
Iacute,
Icircumflex,
Idieresis,
Eth,
Ntilde,
Ograve,
Oacute,
Ocircumflex,
Otilde,
Odieresis,
multiply,
Oslash,
Ugrave,
Uacute,
Ucircumflex,
Udieresis,
Yacute,
Thorn,
germandbls,
agrave,
aacute,
acircumflex,
atilde,
adieresis,
aring,
ae,
ccedilla,
egrave,
eacute,
ecircumflex,
edieresis,
igrave,
iacute,
icircumflex,
idieresis,
eth,
ntilde,
ograve,
oacute,
ocircumflex,
otilde,
odieresis,
divide,
oslash,
ugrave,
uacute,
ucircumflex,
udieresis,
yacute,
thorn,
ydieresis,
Aogonek,
aogonek,
Cacute,
cacute,
Eogonek,
eogonek,
dotlessi,
Lslash,
lslash,
Nacute,
nacute,
OE,
oe,

glyphs = (
{
glyphname = .notdef;
layers = (
{
layerId = "C87851D2-2817-4F36-A784-A5AE84D7BDA8";
paths = (
{
closed = 1;
nodes = (
"248 532 LINE",
"251 525 OFFCURVE",
"257 522 OFFCURVE",
"265 522 CURVE SMOOTH",
"269 522 OFFCURVE",
"273 523 OFFCURVE",
"278 526 CURVE SMOOTH",
"283 529 OFFCURVE",
"289 532 OFFCURVE",
"296 536 CURVE SMOOTH",
"303 540 OFFCURVE",
"312 543 OFFCURVE",
"322 546 CURVE SMOOTH",
"332 549 OFFCURVE",
"343 550 OFFCURVE",
"357 550 CURVE SMOOTH",
"376 550 OFFCURVE",
"391 546 OFFCURVE",
"402 536 CURVE SMOOTH",
"413 526 OFFCURVE",
"417 512 OFFCURVE",
"415 495 CURVE",
"413 482 OFFCURVE",
"410 470 OFFCURVE",
"403 460 CURVE SMOOTH",
"396 450 OFFCURVE",
"388 442 OFFCURVE",
"379 434 CURVE SMOOTH",
"370 426 OFFCURVE",
"361 420 OFFCURVE",
"351 413 CURVE SMOOTH",
"341 406 OFFCURVE",
"331 399 OFFCURVE",
"323 392 CURVE SMOOTH",
"315 385 OFFCURVE",
"308 377 OFFCURVE",
"303 369 CURVE SMOOTH",
"298 361 OFFCURVE",
"295 350 OFFCURVE",
"295 339 CURVE SMOOTH",
"293 281 LINE",
"354 281 LINE",
"369 333 LINE",
"371 341 OFFCURVE",
"376 348 OFFCURVE",
"383 354 CURVE SMOOTH",
"390 360 OFFCURVE",
"397 367 OFFCURVE",
"406 373 CURVE SMOOTH",
"415 379 OFFCURVE",
"424 386 OFFCURVE",
"434 393 CURVE SMOOTH",
"444 400 OFFCURVE",
"453 408 OFFCURVE",
"462 418 CURVE SMOOTH",
"471 428 OFFCURVE",
"478 440 OFFCURVE",
"485 453 CURVE SMOOTH",
"492 466 OFFCURVE",
"496 483 OFFCURVE",
"498 501 CURVE SMOOTH",
"500 520 OFFCURVE",
"499 536 OFFCURVE",
"494 551 CURVE SMOOTH",
"489 566 OFFCURVE",
"481 579 OFFCURVE",
"470 590 CURVE SMOOTH",
"459 601 OFFCURVE",
"445 609 OFFCURVE",
"429 615 CURVE SMOOTH",
"413 621 OFFCURVE",
"394 624 OFFCURVE",
"373 624 CURVE SMOOTH",
"358 624 OFFCURVE",
"344 622 OFFCURVE",
"330 619 CURVE SMOOTH",
"316 616 OFFCURVE",
"304 613 OFFCURVE",
"292 608 CURVE SMOOTH",
"280 603 OFFCURVE",
"268 597 OFFCURVE",
"258 591 CURVE SMOOTH",
"248 585 OFFCURVE",
"238 577 OFFCURVE",
"229 570 CURVE"
);
},
{
closed = 1;
nodes = (
"248 130 OFFCURVE",
"252 117 OFFCURVE",
"261 107 CURVE SMOOTH",
"270 97 OFFCURVE",
"282 91 OFFCURVE",
"298 91 CURVE SMOOTH",
"305 91 OFFCURVE",
"313 92 OFFCURVE",
"320 95 CURVE SMOOTH",
"327 98 OFFCURVE",
"333 102 OFFCURVE",
"338 107 CURVE SMOOTH",
"343 112 OFFCURVE",
"348 117 OFFCURVE",
"352 124 CURVE SMOOTH",
"356 131 OFFCURVE",
"358 138 OFFCURVE",
"359 146 CURVE SMOOTH",
"360 154 OFFCURVE",
"359 161 OFFCURVE",
"357 168 CURVE SMOOTH",
"355 175 OFFCURVE",
"352 180 OFFCURVE",
"348 185 CURVE SMOOTH",
"344 190 OFFCURVE",
"338 194 OFFCURVE",
"332 197 CURVE SMOOTH",
"326 200 OFFCURVE",
"319 201 OFFCURVE",
"312 201 CURVE SMOOTH",
"296 201 OFFCURVE",
"282 196 OFFCURVE",
"270 185 CURVE SMOOTH",
"258 174 OFFCURVE",
"252 162 OFFCURVE",
"250 146 CURVE SMOOTH"
);
},
{
closed = 1;
nodes = (
"144 716 LINE",
"56 0 LINE",
"544 0 LINE",
"631 716 LINE"
);
},
{
closed = 1;
nodes = (
"85 27 LINE",
"166 689 LINE",
"600 689 LINE",
"518 27 LINE"
);
}
);
width = 687;
},
{
layerId = "18B4A443-2C69-4DCB-9619-77A7DD6AC8EC";
paths = (
{
closed = 1;
nodes = (
"245 546 LINE SMOOTH",
"247 542 OFFCURVE",
"249 541 OFFCURVE",
"254 541 CURVE SMOOTH",
"256 541 OFFCURVE",
"260 543 OFFCURVE",
"265 547 CURVE SMOOTH",
"270 551 OFFCURVE",
"277 555 OFFCURVE",
"285 560 CURVE SMOOTH",
"293 565 OFFCURVE",
"304 569 OFFCURVE",
"315 573 CURVE SMOOTH",
"326 577 OFFCURVE",
"340 578 OFFCURVE",
"355 578 CURVE SMOOTH",
"367 578 OFFCURVE",
"378 577 OFFCURVE",
"388 573 CURVE SMOOTH",
"398 569 OFFCURVE",
"406 564 OFFCURVE",
"413 558 CURVE SMOOTH",
"420 552 OFFCURVE",
"425 543 OFFCURVE",
"429 534 CURVE SMOOTH",
"433 525 OFFCURVE",
"433 514 OFFCURVE",
"432 502 CURVE",
"430 486 OFFCURVE",
"426 473 OFFCURVE",
"419 462 CURVE SMOOTH",
"412 451 OFFCURVE",
"403 441 OFFCURVE",
"394 432 CURVE SMOOTH",
"385 423 OFFCURVE",
"375 416 OFFCURVE",
"364 409 CURVE SMOOTH",
"353 402 OFFCURVE",
"343 395 OFFCURVE",
"334 388 CURVE SMOOTH",
"325 381 OFFCURVE",
"317 373 OFFCURVE",
"311 365 CURVE SMOOTH",
"305 357 OFFCURVE",
"302 348 OFFCURVE",
"301 338 CURVE SMOOTH",
"297 277 LINE",
"329 277 LINE",
"341 334 LINE",
"343 342 OFFCURVE",
"347 350 OFFCURVE",
"354 356 CURVE SMOOTH",
"361 362 OFFCURVE",
"369 369 OFFCURVE",
"378 376 CURVE SMOOTH",
"387 383 OFFCURVE",
"397 389 OFFCURVE",
"408 397 CURVE SMOOTH",
"419 405 OFFCURVE",
"429 413 OFFCURVE",
"438 423 CURVE SMOOTH",
"447 433 OFFCURVE",
"456 445 OFFCURVE",
"463 458 CURVE SMOOTH",
"470 471 OFFCURVE",
"475 487 OFFCURVE",
"477 505 CURVE SMOOTH",
"479 522 OFFCURVE",
"478 538 OFFCURVE",
"473 552 CURVE SMOOTH",
"468 566 OFFCURVE",
"460 577 OFFCURVE",
"450 587 CURVE SMOOTH",
"440 597 OFFCURVE",
"428 605 OFFCURVE",
"413 610 CURVE SMOOTH",
"398 615 OFFCURVE",
"381 618 OFFCURVE",
"363 618 CURVE SMOOTH",
"349 618 OFFCURVE",
"336 616 OFFCURVE",
"324 613 CURVE SMOOTH",
"312 610 OFFCURVE",
"301 607 OFFCURVE",
"290 602 CURVE SMOOTH",
"279 597 OFFCURVE",
"269 592 OFFCURVE",
"260 586 CURVE SMOOTH",
"251 580 OFFCURVE",
"243 574 OFFCURVE",
"235 567 CURVE"
);
},
{
closed = 1;
nodes = (
"254 122 OFFCURVE",
"257 113 OFFCURVE",
"263 105 CURVE SMOOTH",
"269 97 OFFCURVE",
"278 94 OFFCURVE",
"289 94 CURVE SMOOTH",
"300 94 OFFCURVE",
"309 97 OFFCURVE",
"317 105 CURVE SMOOTH",
"325 113 OFFCURVE",
"331 122 OFFCURVE",
"332 133 CURVE SMOOTH",
"333 144 OFFCURVE",
"330 152 OFFCURVE",
"324 160 CURVE SMOOTH",
"318 168 OFFCURVE",
"310 172 OFFCURVE",
"299 172 CURVE SMOOTH",
"288 172 OFFCURVE",
"278 168 OFFCURVE",
"270 160 CURVE SMOOTH",
"262 152 OFFCURVE",
"256 144 OFFCURVE",
"255 133 CURVE SMOOTH"
);
},
{
closed = 1;
nodes = (
"144 708 LINE",
"58 0 LINE",
"523 0 LINE",
"610 708 LINE"
);
},
{
closed = 1;
nodes = (
"77 18 LINE",
"160 690 LINE",
"589 690 LINE",
"507 18 LINE"
);
}
);
width = 668;
},
{
layerId = "A0CD44AA-8F44-4864-B482-F84B7650FD25";
paths = (
{
closed = 1;
nodes = (
"249 521 LINE",
"253 511 OFFCURVE",
"261 506 OFFCURVE",
"272 506 CURVE SMOOTH",
"277 506 OFFCURVE",
"282 508 OFFCURVE",
"287 510 CURVE SMOOTH",
"292 512 OFFCURVE",
"298 515 OFFCURVE",
"304 518 CURVE SMOOTH",
"310 521 OFFCURVE",
"318 523 OFFCURVE",
"326 525 CURVE SMOOTH",
"334 527 OFFCURVE",
"344 528 OFFCURVE",
"356 528 CURVE SMOOTH",
"371 528 OFFCURVE",
"383 525 OFFCURVE",
"390 518 CURVE SMOOTH",
"397 511 OFFCURVE",
"400 501 OFFCURVE",
"399 489 CURVE SMOOTH",
"398 477 OFFCURVE",
"393 467 OFFCURVE",
"387 459 CURVE SMOOTH",
"381 451 OFFCURVE",
"373 443 OFFCURVE",
"365 436 CURVE SMOOTH",
"357 429 OFFCURVE",
"348 422 OFFCURVE",
"339 416 CURVE SMOOTH",
"330 410 OFFCURVE",
"321 403 OFFCURVE",
"313 396 CURVE SMOOTH",
"305 389 OFFCURVE",
"299 381 OFFCURVE",
"294 372 CURVE SMOOTH",
"289 363 OFFCURVE",
"288 353 OFFCURVE",
"288 341 CURVE SMOOTH",
"289 284 LINE",
"374 284 LINE",
"391 332 LINE",
"394 339 OFFCURVE",
"397 346 OFFCURVE",
"404 352 CURVE SMOOTH",
"411 358 OFFCURVE",
"419 364 OFFCURVE",
"427 370 CURVE SMOOTH",
"435 376 OFFCURVE",
"444 383 OFFCURVE",
"453 390 CURVE SMOOTH",
"462 397 OFFCURVE",
"471 405 OFFCURVE",
"479 415 CURVE SMOOTH",
"487 425 OFFCURVE",
"495 436 OFFCURVE",
"501 449 CURVE SMOOTH",
"507 462 OFFCURVE",
"512 479 OFFCURVE",
"514 497 CURVE SMOOTH",
"516 517 OFFCURVE",
"515 534 OFFCURVE",
"510 550 CURVE SMOOTH",
"505 566 OFFCURVE",
"498 580 OFFCURVE",
"486 592 CURVE",
"474 603 OFFCURVE",
"459 613 OFFCURVE",
"441 619 CURVE SMOOTH",
"423 625 OFFCURVE",
"403 628 OFFCURVE",
"380 628 CURVE SMOOTH",
"347 628 OFFCURVE",
"317 622 OFFCURVE",
"292 612 CURVE SMOOTH",
"267 602 OFFCURVE",
"243 589 OFFCURVE",
"222 574 CURVE"
);
},
{
closed = 1;
nodes = (
"243 147 OFFCURVE",
"244 138 OFFCURVE",
"246 130 CURVE SMOOTH",
"248 122 OFFCURVE",
"253 115 OFFCURVE",
"258 109 CURVE SMOOTH",
"263 103 OFFCURVE",
"270 98 OFFCURVE",
"278 94 CURVE SMOOTH",
"286 90 OFFCURVE",
"294 89 OFFCURVE",
"304 89 CURVE SMOOTH",
"313 89 OFFCURVE",
"322 90 OFFCURVE",
"331 94 CURVE SMOOTH",
"340 98 OFFCURVE",
"347 103 OFFCURVE",
"354 109 CURVE SMOOTH",
"361 115 OFFCURVE",
"366 122 OFFCURVE",
"371 130 CURVE SMOOTH",
"376 138 OFFCURVE",
"379 147 OFFCURVE",
"380 157 CURVE SMOOTH",
"381 166 OFFCURVE",
"380 175 OFFCURVE",
"378 183 CURVE SMOOTH",
"376 191 OFFCURVE",
"371 199 OFFCURVE",
"366 205 CURVE SMOOTH",
"361 211 OFFCURVE",
"354 215 OFFCURVE",
"346 219 CURVE SMOOTH",
"338 223 OFFCURVE",
"330 225 OFFCURVE",
"321 225 CURVE SMOOTH",
"311 225 OFFCURVE",
"302 223 OFFCURVE",
"293 219 CURVE SMOOTH",
"284 215 OFFCURVE",
"277 211 OFFCURVE",
"270 205 CURVE SMOOTH",
"263 199 OFFCURVE",
"258 191 OFFCURVE",
"253 183 CURVE SMOOTH",
"248 175 OFFCURVE",
"245 166 OFFCURVE",
"244 157 CURVE SMOOTH"
);
},
{
closed = 1;
nodes = (
"142 723 LINE",
"53 0 LINE",
"559 0 LINE",
"647 723 LINE"
);
},
{
closed = 1;
nodes = (
"90 35 LINE",
"171 689 LINE",
"607 689 LINE",
"527 35 LINE"
);
}
);
width = 700;
}
);
note = .notdef;
},
{
glyphname = exclam;
layers = (
{
layerId = "C87851D2-2817-4F36-A784-A5AE84D7BDA8";
paths = (
{
closed = 1;
nodes = (
"272 716 LINE",
"188 716 LINE",
"153 430 LINE SMOOTH",
"151 415 OFFCURVE",
"149 400 OFFCURVE",
"148 386 CURVE SMOOTH",
"147 372 OFFCURVE",
"146 357 OFFCURVE",
"145 343 CURVE SMOOTH",
"144 329 OFFCURVE",
"143 314 OFFCURVE",
"143 299 CURVE SMOOTH",
"143 284 OFFCURVE",
"142 267 OFFCURVE",
"142 250 CURVE",
"203 250 LINE",
"207 267 OFFCURVE",
"211 284 OFFCURVE",
"214 299 CURVE SMOOTH",
"217 314 OFFCURVE",
"220 329 OFFCURVE",
"223 343 CURVE SMOOTH",
"226 357 OFFCURVE",
"229 372 OFFCURVE",
"231 386 CURVE SMOOTH",
"233 400 OFFCURVE",
"235 415 OFFCURVE",
"237 430 CURVE SMOOTH"
);
},
{
closed = 1;
nodes = (
"84 46 OFFCURVE",
"85 38 OFFCURVE",
"87 30 CURVE SMOOTH",
"89 22 OFFCURVE",
"92 16 OFFCURVE",
"97 10 CURVE SMOOTH",
"102 4 OFFCURVE",
"108 0 OFFCURVE",
"115 -3 CURVE SMOOTH",
"122 -6 OFFCURVE",
"130 -8 OFFCURVE",
"139 -8 CURVE SMOOTH",
"148 -8 OFFCURVE",
"156 -6 OFFCURVE",
"164 -3 CURVE SMOOTH",
"172 0 OFFCURVE",
"180 4 OFFCURVE",
"186 10 CURVE SMOOTH",
"192 16 OFFCURVE",
"198 22 OFFCURVE",
"202 30 CURVE SMOOTH",
"206 38 OFFCURVE",
"209 46 OFFCURVE",
"210 55 CURVE SMOOTH",
"211 64 OFFCURVE",
"210 72 OFFCURVE",
"208 80 CURVE SMOOTH",
"206 88 OFFCURVE",
"202 93 OFFCURVE",
"197 99 CURVE SMOOTH",
"192 105 OFFCURVE",
"186 110 OFFCURVE",
"179 113 CURVE SMOOTH",
"172 116 OFFCURVE",
"164 118 OFFCURVE",
"155 118 CURVE SMOOTH",
"146 118 OFFCURVE",
"138 116 OFFCURVE",
"130 113 CURVE SMOOTH",
"122 110 OFFCURVE",
"114 105 OFFCURVE",
"108 99 CURVE SMOOTH",
"102 93 OFFCURVE",
"97 88 OFFCURVE",
"93 80 CURVE SMOOTH",
"89 72 OFFCURVE",
"86 64 OFFCURVE",
"85 55 CURVE SMOOTH"
);
}
);
width = 357;
},
{
layerId = "18B4A443-2C69-4DCB-9619-77A7DD6AC8EC";
paths = (
{
closed = 1;
nodes = (
"243 708 LINE",
"196 708 LINE",
"161 422 LINE SMOOTH",
"156 380 OFFCURVE",
"148 286 OFFCURVE",
"146 244 CURVE",
"179 244 LINE",
"188 286 OFFCURVE",
"202 380 OFFCURVE",
"207 422 CURVE SMOOTH"
);
},
{
closed = 1;
nodes = (
"155 -8 OFFCURVE",
"179 14 OFFCURVE",
"181 39 CURVE SMOOTH",
"184 63 OFFCURVE",
"167 85 OFFCURVE",
"141 85 CURVE SMOOTH",
"115 85 OFFCURVE",
"91 63 OFFCURVE",
"89 39 CURVE SMOOTH",
"87 14 OFFCURVE",
"104 -8 OFFCURVE",
"130 -8 CURVE SMOOTH"
);
}
);
width = 330;
},
{
layerId = "A0CD44AA-8F44-4864-B482-F84B7650FD25";
paths = (
{
closed = 1;
nodes = (
"280 723 LINE",
"163 723 LINE",
"128 437 LINE SMOOTH",
"124 407 OFFCURVE",
"122 377 OFFCURVE",
"121 348 CURVE SMOOTH",
"120 319 OFFCURVE",
"121 288 OFFCURVE",
"122 255 CURVE",
"206 255 LINE",
"215 288 OFFCURVE",
"222 319 OFFCURVE",
"229 348 CURVE SMOOTH",
"236 377 OFFCURVE",
"240 407 OFFCURVE",
"244 437 CURVE SMOOTH"
);
},
{
closed = 1;
nodes = (
"63 57 OFFCURVE",
"63 47 OFFCURVE",
"66 38 CURVE SMOOTH",
"69 29 OFFCURVE",
"73 22 OFFCURVE",
"79 15 CURVE SMOOTH",
"85 8 OFFCURVE",
"92 3 OFFCURVE",
"101 -1 CURVE SMOOTH",
"110 -5 OFFCURVE",
"119 -7 OFFCURVE",
"130 -7 CURVE SMOOTH",
"140 -7 OFFCURVE",
"151 -5 OFFCURVE",
"161 -1 CURVE SMOOTH",
"171 3 OFFCURVE",
"180 8 OFFCURVE",
"187 15 CURVE SMOOTH",
"194 22 OFFCURVE",
"200 29 OFFCURVE",
"205 38 CURVE SMOOTH",
"210 47 OFFCURVE",
"214 57 OFFCURVE",
"215 68 CURVE SMOOTH",
"216 78 OFFCURVE",
"216 89 OFFCURVE",
"213 98 CURVE SMOOTH",
"210 107 OFFCURVE",
"206 115 OFFCURVE",
"200 122 CURVE SMOOTH",
"194 129 OFFCURVE",
"187 134 OFFCURVE",
"178 138 CURVE SMOOTH",
"169 142 OFFCURVE",
"159 144 OFFCURVE",
"149 144 CURVE SMOOTH",
"138 144 OFFCURVE",
"128 142 OFFCURVE",
"118 138 CURVE SMOOTH",
"108 134 OFFCURVE",
"100 129 OFFCURVE",
"92 122 CURVE SMOOTH",
"84 115 OFFCURVE",
"78 107 OFFCURVE",
"73 98 CURVE SMOOTH",
"68 89 OFFCURVE",
"65 78 OFFCURVE",
"64 68 CURVE SMOOTH"
);
}
);
width = 343;
}
);
note = exclam;
unicode = 0021;
},
{
glyphname = quotedbl;
layers = (
{
layerId = "C87851D2-2817-4F36-A784-A5AE84D7BDA8";
paths = (
{
closed = 1;
nodes = (
"165 716 LINE",
"88 716 LINE",
"70 572 LINE",
"69 494 LINE",
"70 483 OFFCURVE",
"72 475 OFFCURVE",
"76 469 CURVE SMOOTH",
"80 463 OFFCURVE",
"86 460 OFFCURVE",
"95 460 CURVE SMOOTH",
"105 460 OFFCURVE",
"113 463 OFFCURVE",
"118 469 CURVE SMOOTH",
"123 475 OFFCURVE",
"128 483 OFFCURVE",
"130 494 CURVE",
"148 572 LINE"
);
},
{
closed = 1;
nodes = (
"332 716 LINE",
"254 716 LINE",
"237 572 LINE",
"235 494 LINE",
"236 483 OFFCURVE",
"238 475 OFFCURVE",
"242 469 CURVE SMOOTH",
"246 463 OFFCURVE",
"252 460 OFFCURVE",
"261 460 CURVE SMOOTH",
"271 460 OFFCURVE",
"280 463 OFFCURVE",
"285 469 CURVE SMOOTH",
"290 475 OFFCURVE",
"295 483 OFFCURVE",
"297 494 CURVE SMOOTH",
"314 572 LINE"
);
}
);
width = 401;
},
{
layerId = "18B4A443-2C69-4DCB-9619-77A7DD6AC8EC";
paths = (
{
closed = 1;
nodes = (
"134 708 LINE",
"93 708 LINE",
"75 562 LINE",
"70 485 LINE",
"70 478 OFFCURVE",
"71 467 OFFCURVE",
"84 467 CURVE SMOOTH",
"94 467 OFFCURVE",
"101 476 OFFCURVE",
"103 485 CURVE SMOOTH",
"116 562 LINE"
);
},
{
closed = 1;
nodes = (
"279 708 LINE",
"238 708 LINE",
"220 562 LINE",
"215 485 LINE",
"215 478 OFFCURVE",
"216 467 OFFCURVE",
"229 467 CURVE SMOOTH",
"239 467 OFFCURVE",
"246 476 OFFCURVE",
"248 485 CURVE SMOOTH",
"261 562 LINE"
);
}
);
width = 349;
},
{
layerId = "A0CD44AA-8F44-4864-B482-F84B7650FD25";
paths = (
{
closed = 1;
nodes = (
"179 723 LINE",
"72 723 LINE",
"54 579 LINE",
"55 501 LINE SMOOTH",
"55 486 OFFCURVE",
"59 475 OFFCURVE",
"65 467 CURVE SMOOTH",
"71 459 OFFCURVE",
"80 456 OFFCURVE",
"92 456 CURVE SMOOTH",
"106 456 OFFCURVE",
"117 459 OFFCURVE",
"124 467 CURVE SMOOTH",
"131 475 OFFCURVE",
"136 486 OFFCURVE",
"140 501 CURVE SMOOTH",
"162 579 LINE"
);
},
{
closed = 1;
nodes = (
"363 723 LINE",
"256 723 LINE",
"238 579 LINE",
"239 501 LINE SMOOTH",
"239 486 OFFCURVE",
"243 475 OFFCURVE",
"249 467 CURVE SMOOTH",
"255 459 OFFCURVE",
"264 456 OFFCURVE",
"276 456 CURVE SMOOTH",
"290 456 OFFCURVE",
"301 459 OFFCURVE",
"308 467 CURVE SMOOTH",
"315 475 OFFCURVE",
"320 486 OFFCURVE",
"324 501 CURVE SMOOTH",
"346 579 LINE"
);
}
);
width = 417;
}
);
leftKerningGroup = ordfeminine;
note = quotedbl;
rightKerningGroup = ordfeminine;
unicode = 0022;
},
{
glyphname = numbersign;
layers = (
{
layerId = "C87851D2-2817-4F36-A784-A5AE84D7BDA8";
paths = (
{
closed = 1;
nodes = (
"402 212 LINE",
"521 212 LINE",
"529 240 LINE",
"530 242 OFFCURVE",
"530 244 OFFCURVE",
"530 246 CURVE SMOOTH",
"530 248 OFFCURVE",
"531 249 OFFCURVE",
"531 251 CURVE",
"532 261 OFFCURVE",
"531 267 OFFCURVE",
"527 271 CURVE SMOOTH",
"523 275 OFFCURVE",
"517 277 OFFCURVE",
"509 277 CURVE SMOOTH",
"420 277 LINE",
"472 440 LINE",
"541 440 LINE SMOOTH",
"554 440 OFFCURVE",
"563 443 OFFCURVE",
"570 447 CURVE SMOOTH",
"577 451 OFFCURVE",
"582 458 OFFCURVE",
"585 468 CURVE SMOOTH",
"596 506 LINE",
"490 506 LINE",
"548 683 LINE",
"549 685 OFFCURVE",
"549 687 OFFCURVE",
"549 690 CURVE",
"550 698 OFFCURVE",
"549 704 OFFCURVE",
"544 709 CURVE SMOOTH",
"539 714 OFFCURVE",
"532 716 OFFCURVE",
"524 716 CURVE SMOOTH",
"484 716 LINE",
"416 506 LINE",
"293 506 LINE",
"361 716 LINE",
"321 716 LINE SMOOTH",
"311 716 OFFCURVE",
"302 714 OFFCURVE",
"294 708 CURVE SMOOTH",
"286 702 OFFCURVE",
"280 694 OFFCURVE",
"277 684 CURVE SMOOTH",
"219 505 LINE",
"140 505 LINE SMOOTH",
"127 505 OFFCURVE",
"118 503 OFFCURVE",
"111 498 CURVE SMOOTH",
"104 493 OFFCURVE",
"100 487 OFFCURVE",
"97 477 CURVE SMOOTH",
"86 440 LINE",
"202 440 LINE",
"149 277 LINE",
"47 277 LINE",
"40 248 LINE",
"39 246 OFFCURVE",
"38 244 OFFCURVE",
"38 242 CURVE SMOOTH",
"38 240 OFFCURVE",
"37 239 OFFCURVE",
"37 237 CURVE",
"36 228 OFFCURVE",
"37 221 OFFCURVE",
"41 217 CURVE SMOOTH",
"45 213 OFFCURVE",
"51 211 OFFCURVE",
"59 211 CURVE SMOOTH",
"132 211 LINE",
"63 0 LINE",
"103 0 LINE SMOOTH",
"113 0 OFFCURVE",
"121 3 OFFCURVE",
"129 8 CURVE SMOOTH",
"137 13 OFFCURVE",
"144 22 OFFCURVE",
"148 34 CURVE SMOOTH",
"205 211 LINE",
"329 211 LINE",
"272 38 LINE",
"271 36 OFFCURVE",
"271 35 OFFCURVE",
"271 34 CURVE SMOOTH",
"271 33 OFFCURVE",
"270 31 OFFCURVE",
"270 30 CURVE",
"269 21 OFFCURVE",
"270 14 OFFCURVE",
"275 8 CURVE SMOOTH",
"280 2 OFFCURVE",
"286 0 OFFCURVE",
"294 0 CURVE SMOOTH",
"334 0 LINE"
);
},
{
closed = 1;
nodes = (
"223 277 LINE",
"275 440 LINE",
"399 440 LINE",
"346 277 LINE"
);
}
);
width = 634;
},
{
layerId = "18B4A443-2C69-4DCB-9619-77A7DD6AC8EC";
paths = (
{
closed = 1;
nodes = (
"372 222 LINE",
"502 222 LINE",
"507 244 LINE",
"508 253 OFFCURVE",
"504 256 OFFCURVE",
"494 256 CURVE SMOOTH",
"381 256 LINE",
"446 451 LINE",
"538 451 LINE SMOOTH",
"551 451 OFFCURVE",
"560 457 OFFCURVE",
"563 468 CURVE SMOOTH",
"568 486 LINE",
"455 486 LINE",
"525 692 LINE",
"526 702 OFFCURVE",
"521 708 OFFCURVE",
"511 708 CURVE SMOOTH",
"490 708 LINE",
"415 486 LINE",
"266 486 LINE",
"341 708 LINE",
"320 708 LINE SMOOTH",
"311 708 OFFCURVE",
"300 703 OFFCURVE",
"295 688 CURVE SMOOTH",
"226 486 LINE",
"120 486 LINE SMOOTH",
"107 486 OFFCURVE",
"99 481 OFFCURVE",
"96 470 CURVE SMOOTH",
"91 451 LINE",
"217 451 LINE",
"152 256 LINE",
"43 256 LINE",
"38 236 LINE",
"37 230 OFFCURVE",
"39 222 OFFCURVE",
"51 222 CURVE SMOOTH",
"143 222 LINE",
"69 0 LINE",
"90 0 LINE SMOOTH",
"105 0 OFFCURVE",
"109 7 OFFCURVE",
"115 20 CURVE",
"183 222 LINE",
"332 222 LINE",
"263 16 LINE",
"261 6 OFFCURVE",
"267 0 OFFCURVE",
"277 0 CURVE SMOOTH",
"298 0 LINE"
);
},
{
closed = 1;
nodes = (
"192 256 LINE",
"257 451 LINE",
"406 451 LINE",
"341 256 LINE"
);
}
);
width = 606;
},
{
layerId = "A0CD44AA-8F44-4864-B482-F84B7650FD25";
paths = (
{
closed = 1;
nodes = (
"428 204 LINE",
"536 204 LINE",
"547 243 LINE",
"549 249 OFFCURVE",
"550 254 OFFCURVE",
"551 259 CURVE SMOOTH",
"553 271 OFFCURVE",
"551 280 OFFCURVE",
"546 285 CURVE SMOOTH",
"541 290 OFFCURVE",
"533 293 OFFCURVE",
"522 293 CURVE SMOOTH",
"451 293 LINE",
"494 431 LINE",
"544 431 LINE SMOOTH",
"562 431 OFFCURVE",
"575 434 OFFCURVE",
"584 440 CURVE SMOOTH",
"593 446 OFFCURVE",
"599 455 OFFCURVE",
"603 468 CURVE SMOOTH",
"619 520 LINE",
"517 520 LINE",
"568 680 LINE",
"569 682 OFFCURVE",
"569 685 OFFCURVE",
"569 688 CURVE",
"570 698 OFFCURVE",
"568 706 OFFCURVE",
"561 713 CURVE SMOOTH",
"554 720 OFFCURVE",
"546 723 OFFCURVE",
"534 723 CURVE SMOOTH",
"479 723 LINE",
"416 520 LINE",
"314 520 LINE",
"377 723 LINE",
"321 723 LINE SMOOTH",
"308 723 OFFCURVE",
"296 719 OFFCURVE",
"285 712 CURVE SMOOTH",
"274 705 OFFCURVE",
"267 694 OFFCURVE",
"263 681 CURVE SMOOTH",
"212 520 LINE",
"157 520 LINE SMOOTH",
"139 520 OFFCURVE",
"126 517 OFFCURVE",
"117 511 CURVE SMOOTH",
"108 505 OFFCURVE",
"102 495 OFFCURVE",
"98 482 CURVE SMOOTH",
"82 431 LINE",
"189 431 LINE",
"146 293 LINE",
"51 293 LINE",
"39 254 LINE SMOOTH",
"37 248 OFFCURVE",
"37 242 OFFCURVE",
"36 237 CURVE",
"35 225 OFFCURVE",
"36 217 OFFCURVE",
"41 212 CURVE SMOOTH",
"46 207 OFFCURVE",
"54 204 OFFCURVE",
"65 204 CURVE SMOOTH",
"122 204 LINE",
"59 0 LINE",
"114 0 LINE SMOOTH",
"127 0 OFFCURVE",
"139 3 OFFCURVE",
"151 10 CURVE SMOOTH",
"163 17 OFFCURVE",
"170 29 OFFCURVE",
"175 45 CURVE SMOOTH",
"224 204 LINE",
"326 204 LINE",
"278 51 LINE",
"277 49 OFFCURVE",
"277 48 OFFCURVE",
"277 46 CURVE SMOOTH",
"277 44 OFFCURVE",
"276 43 OFFCURVE",
"276 41 CURVE",
"275 29 OFFCURVE",
"277 20 OFFCURVE",
"283 12 CURVE SMOOTH",
"289 4 OFFCURVE",
"298 0 OFFCURVE",
"308 0 CURVE SMOOTH",
"364 0 LINE"
);
},
{
closed = 1;
nodes = (
"247 293 LINE",
"290 431 LINE",
"392 431 LINE",
"350 293 LINE"
);
}
);
width = 655;
}
);
note = numbersign;
unicode = 0023;
},
{
glyphname = dollar;
layers = (
{
layerId = "C87851D2-2817-4F36-A784-A5AE84D7BDA8";
paths = (
{
closed = 1;
nodes = (
"214 -119 LINE",
"247 -119 LINE SMOOTH",
"254 -119 OFFCURVE",
"260 -117 OFFCURVE",
"265 -112 CURVE SMOOTH",
"270 -107 OFFCURVE",
"274 -101 OFFCURVE",
"275 -95 CURVE SMOOTH",
"292 -7 LINE",
"328 -5 OFFCURVE",
"361 3 OFFCURVE",
"390 15 CURVE SMOOTH",
"419 27 OFFCURVE",
"444 44 OFFCURVE",
"466 64 CURVE SMOOTH",
"488 84 OFFCURVE",
"505 107 OFFCURVE",
"518 133 CURVE SMOOTH",
"531 159 OFFCURVE",
"540 188 OFFCURVE",
"544 218 CURVE SMOOTH",
"548 249 OFFCURVE",
"545 274 OFFCURVE",
"536 294 CURVE SMOOTH",
"527 314 OFFCURVE",
"514 332 OFFCURVE",
"497 346 CURVE SMOOTH",
"480 360 OFFCURVE",
"460 370 OFFCURVE",
"438 379 CURVE SMOOTH",
"416 388 OFFCURVE",
"393 396 OFFCURVE",
"370 403 CURVE",
"416 645 LINE",
"432 643 OFFCURVE",
"446 639 OFFCURVE",
"458 633 CURVE SMOOTH",
"470 627 OFFCURVE",
"481 623 OFFCURVE",
"490 617 CURVE",
"499 612 OFFCURVE",
"507 606 OFFCURVE",
"513 602 CURVE SMOOTH",
"519 598 OFFCURVE",
"524 596 OFFCURVE",
"529 596 CURVE SMOOTH",
"538 596 OFFCURVE",
"546 601 OFFCURVE",
"554 611 CURVE SMOOTH",
"580 644 LINE",
"562 663 OFFCURVE",
"542 680 OFFCURVE",
"518 694 CURVE SMOOTH",
"494 708 OFFCURVE",
"464 716 OFFCURVE",
"430 720 CURVE",
"450 820 LINE",
"417 820 LINE SMOOTH",
"410 820 OFFCURVE",
"403 817 OFFCURVE",
"398 812 CURVE SMOOTH",
"393 807 OFFCURVE",
"390 801 OFFCURVE",
"389 795 CURVE SMOOTH",
"375 723 LINE",
"340 722 OFFCURVE",
"308 716 OFFCURVE",
"280 704 CURVE SMOOTH",
"252 692 OFFCURVE",
"228 678 OFFCURVE",
"208 660 CURVE SMOOTH",
"188 642 OFFCURVE",
"171 621 OFFCURVE",
"159 598 CURVE SMOOTH",
"147 575 OFFCURVE",
"139 550 OFFCURVE",
"136 526 CURVE SMOOTH",
"132 494 OFFCURVE",
"134 468 OFFCURVE",
"142 446 CURVE SMOOTH",
"150 424 OFFCURVE",
"162 406 OFFCURVE",
"178 392 CURVE SMOOTH",
"194 378 OFFCURVE",
"214 367 OFFCURVE",
"235 358 CURVE SMOOTH",
"256 349 OFFCURVE",
"279 341 OFFCURVE",
"301 334 CURVE",
"249 68 LINE",
"227 71 OFFCURVE",
"208 76 OFFCURVE",
"193 84 CURVE SMOOTH",
"178 92 OFFCURVE",
"165 100 OFFCURVE",
"154 108 CURVE SMOOTH",
"143 116 OFFCURVE",
"134 123 OFFCURVE",
"127 129 CURVE SMOOTH",
"120 135 OFFCURVE",
"113 139 OFFCURVE",
"107 139 CURVE SMOOTH",
"102 139 OFFCURVE",
"98 137 OFFCURVE",
"93 135 CURVE SMOOTH",
"88 133 OFFCURVE",
"85 130 OFFCURVE",
"82 126 CURVE SMOOTH",
"51 85 LINE",
"72 60 OFFCURVE",
"98 40 OFFCURVE",
"129 24 CURVE SMOOTH",
"160 8 OFFCURVE",
"195 -2 OFFCURVE",
"235 -6 CURVE"
);
},
{
closed = 1;
nodes = (
"455 185 OFFCURVE",
"450 168 OFFCURVE",
"442 152 CURVE SMOOTH",
"434 136 OFFCURVE",
"424 124 OFFCURVE",
"411 112 CURVE SMOOTH",
"398 100 OFFCURVE",
"383 91 OFFCURVE",
"365 83 CURVE SMOOTH",
"347 75 OFFCURVE",
"328 70 OFFCURVE",
"306 68 CURVE",
"353 318 LINE",
"369 313 OFFCURVE",
"383 306 OFFCURVE",
"397 300 CURVE SMOOTH",
"411 294 OFFCURVE",
"422 287 OFFCURVE",
"432 278 CURVE SMOOTH",
"442 269 OFFCURVE",
"449 258 OFFCURVE",
"454 246 CURVE SMOOTH",
"459 234 OFFCURVE",
"459 221 OFFCURVE",
"457 204 CURVE SMOOTH"
);
},
{
closed = 1;
nodes = (
"223 549 OFFCURVE",
"226 563 OFFCURVE",
"233 575 CURVE SMOOTH",
"240 587 OFFCURVE",
"249 598 OFFCURVE",
"260 608 CURVE SMOOTH",
"271 618 OFFCURVE",
"285 626 OFFCURVE",
"302 633 CURVE SMOOTH",
"319 640 OFFCURVE",
"338 644 OFFCURVE",
"360 646 CURVE",
"317 421 LINE",
"302 426 OFFCURVE",
"289 432 OFFCURVE",
"276 439 CURVE SMOOTH",
"263 446 OFFCURVE",
"253 453 OFFCURVE",
"244 462 CURVE SMOOTH",
"235 471 OFFCURVE",
"228 482 OFFCURVE",
"224 494 CURVE SMOOTH",
"220 506 OFFCURVE",
"219 519 OFFCURVE",
"221 535 CURVE SMOOTH"
);
}
);
width = 625;
},
{
layerId = "18B4A443-2C69-4DCB-9619-77A7DD6AC8EC";
paths = (
{
closed = 1;
nodes = (
"218 -128 LINE",
"236 -128 LINE SMOOTH",
"246 -128 OFFCURVE",
"250 -122 OFFCURVE",
"252 -113 CURVE",
"271 -8 LINE",
"402 0 OFFCURVE",
"494 81 OFFCURVE",
"511 206 CURVE",
"522 315 OFFCURVE",
"457 348 OFFCURVE",
"339 387 CURVE",
"388 673 LINE",
"432 669 OFFCURVE",
"474 652 OFFCURVE",
"502 624 CURVE SMOOTH",
"511 615 OFFCURVE",
"521 613 OFFCURVE",
"531 624 CURVE",
"544 641 LINE",
"506 686 OFFCURVE",
"455 709 OFFCURVE",
"395 713 CURVE",
"413 814 LINE",
"395 814 LINE SMOOTH",
"387 814 OFFCURVE",
"380 806 OFFCURVE",
"378 798 CURVE SMOOTH",
"363 714 LINE",
"255 710 OFFCURVE",
"157 642 OFFCURVE",
"143 532 CURVE SMOOTH",
"130 428 OFFCURVE",
"190 385 OFFCURVE",
"301 350 CURVE",
"246 32 LINE",
"186 34 OFFCURVE",
"142 60 OFFCURVE",
"96 106 CURVE SMOOTH",
"89 113 OFFCURVE",
"80 115 OFFCURVE",
"71 104 CURVE",
"55 84 LINE",
"100 26 OFFCURVE",
"164 -4 OFFCURVE",
"239 -8 CURVE"
);
},
{
closed = 1;
nodes = (
"452 101 OFFCURVE",
"378 39 OFFCURVE",
"278 32 CURVE",
"331 341 LINE",
"411 316 OFFCURVE",
"476 283 OFFCURVE",
"465 199 CURVE SMOOTH"
);
},
{
closed = 1;
nodes = (
"197 614 OFFCURVE",
"267 670 OFFCURVE",
"356 674 CURVE",
"308 398 LINE",
"230 424 OFFCURVE",
"177 460 OFFCURVE",
"188 536 CURVE SMOOTH"
);
}
);
width = 594;
},
{
layerId = "A0CD44AA-8F44-4864-B482-F84B7650FD25";
paths = (
{
closed = 1;
nodes = (
"208 -112 LINE",
"253 -112 LINE SMOOTH",
"263 -112 OFFCURVE",
"271 -108 OFFCURVE",
"278 -102 CURVE SMOOTH",
"285 -96 OFFCURVE",
"288 -88 OFFCURVE",
"290 -80 CURVE",
"305 -7 LINE",
"343 -4 OFFCURVE",
"377 3 OFFCURVE",
"408 16 CURVE SMOOTH",
"439 29 OFFCURVE",
"465 46 OFFCURVE",
"487 67 CURVE SMOOTH",
"509 88 OFFCURVE",
"527 112 OFFCURVE",
"541 139 CURVE SMOOTH",
"555 166 OFFCURVE",
"564 195 OFFCURVE",
"568 226 CURVE SMOOTH",
"572 257 OFFCURVE",
"569 284 OFFCURVE",
"560 305 CURVE SMOOTH",
"551 326 OFFCURVE",
"537 343 OFFCURVE",
"520 357 CURVE SMOOTH",
"503 371 OFFCURVE",
"483 382 OFFCURVE",
"461 391 CURVE SMOOTH",
"439 400 OFFCURVE",
"416 409 OFFCURVE",
"393 416 CURVE",
"436 623 LINE",
"449 620 OFFCURVE",
"460 616 OFFCURVE",
"470 611 CURVE SMOOTH",
"480 606 OFFCURVE",
"489 602 OFFCURVE",
"497 597 CURVE",
"519 586 LINE SMOOTH",
"525 583 OFFCURVE",
"532 581 OFFCURVE",
"537 581 CURVE SMOOTH",
"544 581 OFFCURVE",
"549 583 OFFCURVE",
"554 586 CURVE SMOOTH",
"559 589 OFFCURVE",
"565 594 OFFCURVE",
"570 601 CURVE",
"606 646 LINE",
"589 664 OFFCURVE",
"569 681 OFFCURVE",
"545 695 CURVE SMOOTH",
"521 709 OFFCURVE",
"492 719 OFFCURVE",
"457 725 CURVE",
"477 824 LINE",
"432 824 LINE SMOOTH",
"422 824 OFFCURVE",
"414 820 OFFCURVE",
"407 814 CURVE SMOOTH",
"400 808 OFFCURVE",
"397 800 OFFCURVE",
"395 792 CURVE SMOOTH",
"381 730 LINE",
"344 728 OFFCURVE",
"311 720 OFFCURVE",
"281 708 CURVE SMOOTH",
"251 696 OFFCURVE",
"226 681 OFFCURVE",
"204 662 CURVE SMOOTH",
"182 643 OFFCURVE",
"165 621 OFFCURVE",
"152 597 CURVE SMOOTH",
"139 573 OFFCURVE",
"130 547 OFFCURVE",
"127 522 CURVE SMOOTH",
"123 488 OFFCURVE",
"125 461 OFFCURVE",
"134 438 CURVE SMOOTH",
"143 415 OFFCURVE",
"155 396 OFFCURVE",
"172 381 CURVE SMOOTH",
"189 366 OFFCURVE",
"208 355 OFFCURVE",
"230 346 CURVE SMOOTH",
"252 337 OFFCURVE",
"274 329 OFFCURVE",
"297 322 CURVE",
"251 98 LINE",
"233 101 OFFCURVE",
"217 107 OFFCURVE",
"204 114 CURVE SMOOTH",
"191 121 OFFCURVE",
"180 127 OFFCURVE",
"170 134 CURVE SMOOTH",
"160 141 OFFCURVE",
"152 148 OFFCURVE",
"144 153 CURVE SMOOTH",
"136 158 OFFCURVE",
"129 160 OFFCURVE",
"122 160 CURVE SMOOTH",
"116 160 OFFCURVE",
"110 159 OFFCURVE",
"104 156 CURVE SMOOTH",
"98 153 OFFCURVE",
"93 148 OFFCURVE",
"89 143 CURVE SMOOTH",
"44 87 LINE",
"65 63 OFFCURVE",
"92 43 OFFCURVE",
"124 27 CURVE SMOOTH",
"156 11 OFFCURVE",
"192 1 OFFCURVE",
"230 -4 CURVE"
);
},
{
closed = 1;
nodes = (
"444 176 OFFCURVE",
"433 151 OFFCURVE",
"412 132 CURVE SMOOTH",
"391 113 OFFCURVE",
"363 101 OFFCURVE",
"327 96 CURVE",
"369 300 LINE",
"381 296 OFFCURVE",
"393 290 OFFCURVE",
"403 285 CURVE SMOOTH",
"413 280 OFFCURVE",
"423 273 OFFCURVE",
"430 266 CURVE SMOOTH",
"437 259 OFFCURVE",
"443 251 OFFCURVE",
"446 241 CURVE SMOOTH",
"449 231 OFFCURVE",
"450 220 OFFCURVE",
"448 207 CURVE SMOOTH"
);
},
{
closed = 1;
nodes = (
"246 545 OFFCURVE",
"250 556 OFFCURVE",
"255 566 CURVE SMOOTH",
"260 576 OFFCURVE",
"268 584 OFFCURVE",
"277 592 CURVE SMOOTH",
"286 600 OFFCURVE",
"297 607 OFFCURVE",
"311 613 CURVE",
"325 618 OFFCURVE",
"340 622 OFFCURVE",
"359 624 CURVE",
"321 439 LINE",
"309 444 OFFCURVE",
"298 449 OFFCURVE",
"288 455 CURVE SMOOTH",
"278 461 OFFCURVE",
"270 467 OFFCURVE",
"263 475 CURVE SMOOTH",
"256 483 OFFCURVE",
"251 491 OFFCURVE",
"248 501 CURVE SMOOTH",
"245 511 OFFCURVE",
"243 521 OFFCURVE",
"245 534 CURVE"
);
}
);
width = 646;
}
);
note = dollar;
unicode = 0024;
},
{
glyphname = percent;
layers = (
{
layerId = "C87851D2-2817-4F36-A784-A5AE84D7BDA8";
paths = (
{
closed = 1;
nodes = (
"381 573 OFFCURVE",
"379 598 OFFCURVE",
"374 620 CURVE SMOOTH",
"369 642 OFFCURVE",
"359 661 OFFCURVE",
"347 676 CURVE SMOOTH",
"335 691 OFFCURVE",
"320 704 OFFCURVE",
"301 712 CURVE SMOOTH",
"282 720 OFFCURVE",
"262 724 OFFCURVE",
"240 724 CURVE SMOOTH",
"217 724 OFFCURVE",
"196 720 OFFCURVE",
"176 712 CURVE SMOOTH",
"156 704 OFFCURVE",
"137 691 OFFCURVE",
"121 676 CURVE SMOOTH",
"105 661 OFFCURVE",
"92 642 OFFCURVE",
"81 620 CURVE SMOOTH",
"70 598 OFFCURVE",
"63 573 OFFCURVE",
"59 544 CURVE SMOOTH",
"56 516 OFFCURVE",
"57 490 OFFCURVE",
"62 468 CURVE SMOOTH",
"67 446 OFFCURVE",
"77 427 OFFCURVE",
"89 412 CURVE SMOOTH",
"101 397 OFFCURVE",
"117 386 OFFCURVE",
"135 378 CURVE SMOOTH",
"153 370 OFFCURVE",
"173 366 OFFCURVE",
"196 366 CURVE SMOOTH",
"217 366 OFFCURVE",
"238 370 OFFCURVE",
"258 378 CURVE SMOOTH",
"278 386 OFFCURVE",
"297 397 OFFCURVE",
"313 412 CURVE SMOOTH",
"329 427 OFFCURVE",
"343 446 OFFCURVE",
"354 468 CURVE SMOOTH",
"365 490 OFFCURVE",
"374 516 OFFCURVE",
"377 544 CURVE SMOOTH"
);
},
{
closed = 1;
nodes = (
"304 522 OFFCURVE",
"300 503 OFFCURVE",
"293 488 CURVE SMOOTH",
"286 473 OFFCURVE",
"279 461 OFFCURVE",
"270 451 CURVE SMOOTH",
"261 441 OFFCURVE",
"250 435 OFFCURVE",
"239 431 CURVE SMOOTH",
"228 427 OFFCURVE",
"215 424 OFFCURVE",
"203 424 CURVE SMOOTH",
"191 424 OFFCURVE",
"179 427 OFFCURVE",
"169 431 CURVE SMOOTH",
"159 435 OFFCURVE",
"150 441 OFFCURVE",
"143 451 CURVE SMOOTH",
"136 461 OFFCURVE",
"132 473 OFFCURVE",
"129 488 CURVE SMOOTH",
"126 503 OFFCURVE",
"126 522 OFFCURVE",
"129 544 CURVE SMOOTH",
"132 566 OFFCURVE",
"137 585 OFFCURVE",
"143 600 CURVE SMOOTH",
"149 615 OFFCURVE",
"157 627 OFFCURVE",
"166 637 CURVE SMOOTH",
"175 647 OFFCURVE",
"186 654 OFFCURVE",
"197 658 CURVE SMOOTH",
"208 662 OFFCURVE",
"221 665 OFFCURVE",
"233 665 CURVE SMOOTH",
"245 665 OFFCURVE",
"257 662 OFFCURVE",
"267 658 CURVE SMOOTH",
"277 654 OFFCURVE",
"285 647 OFFCURVE",
"292 637 CURVE SMOOTH",
"299 627 OFFCURVE",
"304 614 OFFCURVE",
"307 599 CURVE SMOOTH",
"310 584 OFFCURVE",
"310 566 OFFCURVE",
"307 544 CURVE SMOOTH"
);
},
{
closed = 1;
nodes = (
"40 0 LINE",
"106 0 LINE SMOOTH",
"112 0 OFFCURVE",
"117 1 OFFCURVE",
"122 4 CURVE SMOOTH",
"127 7 OFFCURVE",
"132 10 OFFCURVE",
"136 14 CURVE",
"745 716 LINE",
"681 716 LINE SMOOTH",
"673 716 OFFCURVE",
"667 715 OFFCURVE",
"662 712 CURVE SMOOTH",
"657 709 OFFCURVE",
"651 704 OFFCURVE",
"646 698 CURVE SMOOTH"
);
},
{
closed = 1;
nodes = (
"731 198 OFFCURVE",
"729 224 OFFCURVE",
"724 246 CURVE SMOOTH",
"719 268 OFFCURVE",
"710 287 OFFCURVE",
"698 302 CURVE SMOOTH",
"686 317 OFFCURVE",
"669 329 OFFCURVE",
"651 337 CURVE SMOOTH",
"633 345 OFFCURVE",
"612 349 OFFCURVE",
"590 349 CURVE SMOOTH",
"567 349 OFFCURVE",
"546 345 OFFCURVE",
"526 337 CURVE SMOOTH",
"506 329 OFFCURVE",
"488 317 OFFCURVE",
"472 302 CURVE SMOOTH",
"456 287 OFFCURVE",
"442 268 OFFCURVE",
"431 246 CURVE SMOOTH",
"420 224 OFFCURVE",
"414 198 OFFCURVE",
"410 169 CURVE SMOOTH",
"407 141 OFFCURVE",
"408 116 OFFCURVE",
"413 94 CURVE SMOOTH",
"418 72 OFFCURVE",
"427 53 OFFCURVE",
"439 38 CURVE SMOOTH",
"451 23 OFFCURVE",
"467 12 OFFCURVE",
"485 4 CURVE SMOOTH",
"503 -4 OFFCURVE",
"523 -8 OFFCURVE",
"546 -8 CURVE SMOOTH",
"567 -8 OFFCURVE",
"588 -4 OFFCURVE",
"608 4 CURVE SMOOTH",
"628 12 OFFCURVE",
"647 23 OFFCURVE",
"663 38 CURVE SMOOTH",
"679 53 OFFCURVE",
"694 72 OFFCURVE",
"705 94 CURVE SMOOTH",
"716 116 OFFCURVE",
"724 141 OFFCURVE",
"727 169 CURVE SMOOTH"
);
},
{
closed = 1;
nodes = (
"655 147 OFFCURVE",
"651 129 OFFCURVE",
"644 114 CURVE SMOOTH",
"637 99 OFFCURVE",
"629 87 OFFCURVE",
"620 77 CURVE SMOOTH",
"611 67 OFFCURVE",
"600 61 OFFCURVE",
"589 57 CURVE SMOOTH",
"578 53 OFFCURVE",
"566 50 OFFCURVE",
"554 50 CURVE SMOOTH",
"542 50 OFFCURVE",
"530 53 OFFCURVE",
"520 57 CURVE SMOOTH",
"510 61 OFFCURVE",
"501 67 OFFCURVE",
"494 77 CURVE SMOOTH",
"487 87 OFFCURVE",
"483 99 OFFCURVE",
"480 114 CURVE SMOOTH",
"477 129 OFFCURVE",
"477 147 OFFCURVE",
"480 169 CURVE SMOOTH",
"483 191 OFFCURVE",
"487 209 OFFCURVE",
"493 225 CURVE SMOOTH",
"499 241 OFFCURVE",
"508 253 OFFCURVE",
"517 263 CURVE SMOOTH",
"526 273 OFFCURVE",
"537 280 OFFCURVE",
"548 284 CURVE SMOOTH",
"559 288 OFFCURVE",
"571 290 OFFCURVE",
"583 290 CURVE SMOOTH",
"595 290 OFFCURVE",
"607 288 OFFCURVE",
"617 284 CURVE SMOOTH",
"627 280 OFFCURVE",
"636 273 OFFCURVE",
"643 263 CURVE SMOOTH",
"650 253 OFFCURVE",
"655 241 OFFCURVE",
"658 225 CURVE SMOOTH",
"661 209 OFFCURVE",
"661 191 OFFCURVE",
"658 169 CURVE SMOOTH"
);
}
);
width = 785;
},
{
layerId = "18B4A443-2C69-4DCB-9619-77A7DD6AC8EC";
paths = (
{
closed = 1;
nodes = (
"366 637 OFFCURVE",
"320 716 OFFCURVE",
"225 716 CURVE SMOOTH",
"132 716 OFFCURVE",
"70 645 OFFCURVE",
"55 538 CURVE SMOOTH",
"43 443 OFFCURVE",
"82 361 OFFCURVE",
"182 361 CURVE SMOOTH",
"274 361 OFFCURVE",
"337 432 OFFCURVE",
"352 538 CURVE SMOOTH"
);
},
{
closed = 1;
nodes = (
"304 453 OFFCURVE",
"261 393 OFFCURVE",
"186 393 CURVE SMOOTH",
"108 393 OFFCURVE",
"84 456 OFFCURVE",
"93 538 CURVE SMOOTH",
"102 613 OFFCURVE",
"142 683 OFFCURVE",
"221 683 CURVE SMOOTH",
"295 683 OFFCURVE",
"324 627 OFFCURVE",
"314 538 CURVE SMOOTH"
);
},
{
closed = 1;
nodes = (
"48 0 LINE",
"82 0 LINE SMOOTH",
"89 0 OFFCURVE",
"95 3 OFFCURVE",
"100 9 CURVE SMOOTH",
"694 708 LINE",
"660 708 LINE SMOOTH",
"653 708 OFFCURVE",
"644 703 OFFCURVE",
"641 698 CURVE"
);
},
{
closed = 1;
nodes = (
"703 269 OFFCURVE",
"658 346 OFFCURVE",
"562 346 CURVE SMOOTH",
"467 346 OFFCURVE",
"406 273 OFFCURVE",
"392 168 CURVE SMOOTH",
"379 73 OFFCURVE",
"420 -8 OFFCURVE",
"519 -8 CURVE SMOOTH",
"612 -8 OFFCURVE",
"674 62 OFFCURVE",
"689 168 CURVE SMOOTH"
);
},
{
closed = 1;
nodes = (
"641 85 OFFCURVE",
"598 24 OFFCURVE",
"523 24 CURVE SMOOTH",
"446 24 OFFCURVE",
"420 87 OFFCURVE",
"430 168 CURVE SMOOTH",
"438 244 OFFCURVE",
"478 314 OFFCURVE",
"559 314 CURVE SMOOTH",
"632 314 OFFCURVE",
"661 257 OFFCURVE",
"651 168 CURVE SMOOTH"
);
}
);
width = 742;
},
{
layerId = "A0CD44AA-8F44-4864-B482-F84B7650FD25";
paths = (
{
closed = 1;
nodes = (
"397 576 OFFCURVE",
"397 601 OFFCURVE",
"391 624 CURVE SMOOTH",
"385 647 OFFCURVE",
"376 666 OFFCURVE",
"363 682 CURVE SMOOTH",
"350 698 OFFCURVE",
"333 710 OFFCURVE",
"314 718 CURVE SMOOTH",
"295 726 OFFCURVE",
"273 730 OFFCURVE",
"249 730 CURVE SMOOTH",
"225 730 OFFCURVE",
"202 726 OFFCURVE",
"181 718 CURVE SMOOTH",
"160 710 OFFCURVE",
"140 698 OFFCURVE",
"123 682 CURVE SMOOTH",
"106 666 OFFCURVE",
"93 647 OFFCURVE",
"82 624 CURVE SMOOTH",
"71 601 OFFCURVE",
"63 576 OFFCURVE",
"60 548 CURVE SMOOTH",
"57 521 OFFCURVE",
"57 496 OFFCURVE",
"63 474 CURVE SMOOTH",
"69 452 OFFCURVE",
"78 434 OFFCURVE",
"91 418 CURVE SMOOTH",
"104 402 OFFCURVE",
"120 390 OFFCURVE",
"139 382 CURVE SMOOTH",
"158 374 OFFCURVE",
"180 370 OFFCURVE",
"204 370 CURVE SMOOTH",
"226 370 OFFCURVE",
"248 374 OFFCURVE",
"269 382 CURVE SMOOTH",
"290 390 OFFCURVE",
"310 402 OFFCURVE",
"327 418 CURVE SMOOTH",
"344 434 OFFCURVE",
"359 452 OFFCURVE",
"371 474 CURVE SMOOTH",
"383 496 OFFCURVE",
"391 521 OFFCURVE",
"394 548 CURVE SMOOTH"
);
},
{
closed = 1;
nodes = (
"296 529 OFFCURVE",
"292 514 OFFCURVE",
"287 501 CURVE SMOOTH",
"282 489 OFFCURVE",
"275 479 OFFCURVE",
"268 471 CURVE SMOOTH",
"261 463 OFFCURVE",
"252 457 OFFCURVE",
"243 454 CURVE SMOOTH",
"234 451 OFFCURVE",
"224 450 OFFCURVE",
"214 450 CURVE SMOOTH",
"204 450 OFFCURVE",
"195 451 OFFCURVE",
"187 454 CURVE SMOOTH",
"179 457 OFFCURVE",
"171 463 OFFCURVE",
"166 471 CURVE SMOOTH",
"161 479 OFFCURVE",
"157 489 OFFCURVE",
"155 501 CURVE SMOOTH",
"153 513 OFFCURVE",
"154 529 OFFCURVE",
"156 548 CURVE SMOOTH",
"158 567 OFFCURVE",
"162 583 OFFCURVE",
"167 596 CURVE SMOOTH",
"172 609 OFFCURVE",
"179 620 OFFCURVE",
"186 628 CURVE SMOOTH",
"193 636 OFFCURVE",
"201 641 OFFCURVE",
"210 645 CURVE SMOOTH",
"219 649 OFFCURVE",
"229 650 OFFCURVE",
"239 650 CURVE SMOOTH",
"249 650 OFFCURVE",
"258 649 OFFCURVE",
"266 645 CURVE SMOOTH",
"274 641 OFFCURVE",
"281 636 OFFCURVE",
"287 628 CURVE SMOOTH",
"293 620 OFFCURVE",
"297 609 OFFCURVE",
"299 596 CURVE SMOOTH",
"301 583 OFFCURVE",
"300 567 OFFCURVE",
"298 548 CURVE SMOOTH"
);
},
{
closed = 1;
nodes = (
"30 0 LINE",
"122 0 LINE SMOOTH",
"131 0 OFFCURVE",
"138 1 OFFCURVE",
"145 5 CURVE SMOOTH",
"152 9 OFFCURVE",
"157 13 OFFCURVE",
"162 18 CURVE",
"785 723 LINE",
"696 723 LINE SMOOTH",
"685 723 OFFCURVE",
"676 721 OFFCURVE",
"670 717 CURVE SMOOTH",
"664 713 OFFCURVE",
"658 709 OFFCURVE",
"653 704 CURVE"
);
},
{
closed = 1;
nodes = (
"758 198 OFFCURVE",
"758 223 OFFCURVE",
"752 246 CURVE SMOOTH",
"746 269 OFFCURVE",
"737 288 OFFCURVE",
"724 304 CURVE SMOOTH",
"711 320 OFFCURVE",
"694 332 OFFCURVE",
"675 340 CURVE SMOOTH",
"656 348 OFFCURVE",
"634 352 OFFCURVE",
"610 352 CURVE SMOOTH",
"586 352 OFFCURVE",
"563 348 OFFCURVE",
"542 340 CURVE SMOOTH",
"521 332 OFFCURVE",
"502 320 OFFCURVE",
"485 304 CURVE SMOOTH",
"468 288 OFFCURVE",
"454 269 OFFCURVE",
"443 246 CURVE SMOOTH",
"432 223 OFFCURVE",
"424 198 OFFCURVE",
"421 170 CURVE SMOOTH",
"418 143 OFFCURVE",
"419 118 OFFCURVE",
"425 96 CURVE SMOOTH",
"431 74 OFFCURVE",
"440 56 OFFCURVE",
"453 40 CURVE SMOOTH",
"466 24 OFFCURVE",
"482 12 OFFCURVE",
"501 4 CURVE SMOOTH",
"520 -4 OFFCURVE",
"542 -9 OFFCURVE",
"566 -9 CURVE SMOOTH",
"588 -9 OFFCURVE",
"610 -4 OFFCURVE",
"631 4 CURVE SMOOTH",
"652 12 OFFCURVE",
"672 24 OFFCURVE",
"689 40 CURVE SMOOTH",
"706 56 OFFCURVE",
"721 74 OFFCURVE",
"733 96 CURVE SMOOTH",
"745 118 OFFCURVE",
"752 143 OFFCURVE",
"755 170 CURVE SMOOTH"
);
},
{
closed = 1;
nodes = (
"658 151 OFFCURVE",
"654 136 OFFCURVE",
"649 123 CURVE SMOOTH",
"644 110 OFFCURVE",
"637 101 OFFCURVE",
"630 93 CURVE SMOOTH",
"623 85 OFFCURVE",
"614 79 OFFCURVE",
"605 76 CURVE SMOOTH",
"596 73 OFFCURVE",
"586 71 OFFCURVE",
"576 71 CURVE SMOOTH",
"566 71 OFFCURVE",
"556 73 OFFCURVE",
"548 76 CURVE SMOOTH",
"540 79 OFFCURVE",
"533 85 OFFCURVE",
"528 93 CURVE SMOOTH",
"523 101 OFFCURVE",
"519 110 OFFCURVE",
"517 123 CURVE SMOOTH",
"515 136 OFFCURVE",
"515 151 OFFCURVE",
"517 170 CURVE SMOOTH",
"519 189 OFFCURVE",
"524 206 OFFCURVE",
"529 219 CURVE SMOOTH",
"534 232 OFFCURVE",
"540 242 OFFCURVE",
"547 250 CURVE SMOOTH",
"554 258 OFFCURVE",
"563 263 OFFCURVE",
"572 267 CURVE SMOOTH",
"581 271 OFFCURVE",
"590 273 OFFCURVE",
"600 273 CURVE SMOOTH",
"610 273 OFFCURVE",
"620 271 OFFCURVE",
"628 267 CURVE SMOOTH",
"636 263 OFFCURVE",
"643 258 OFFCURVE",
"649 250 CURVE SMOOTH",
"655 242 OFFCURVE",
"659 232 OFFCURVE",
"661 219 CURVE SMOOTH",
"663 206 OFFCURVE",
"662 189 OFFCURVE",
"660 170 CURVE SMOOTH"
);
}
);
width = 815;
}
);
note = percent;
unicode = 0025;
},
{
glyphname = ampersand;
layers = (
{
layerId = "C87851D2-2817-4F36-A784-A5AE84D7BDA8";
paths = (
{
closed = 1;
nodes = (
"360 724 OFFCURVE",
"333 720 OFFCURVE",
"308 711 CURVE SMOOTH",
"283 702 OFFCURVE",
"262 689 OFFCURVE",
"243 673 CURVE SMOOTH",
"224 657 OFFCURVE",
"209 638 OFFCURVE",
"198 617 CURVE SMOOTH",
"187 596 OFFCURVE",
"179 573 OFFCURVE",
"176 549 CURVE SMOOTH",
"173 523 OFFCURVE",
"174 497 OFFCURVE",
"181 473 CURVE SMOOTH",
"188 449 OFFCURVE",
"200 424 OFFCURVE",
"217 398 CURVE",
"193 388 OFFCURVE",
"171 376 OFFCURVE",
"150 362 CURVE SMOOTH",
"129 348 OFFCURVE",
"111 333 OFFCURVE",
"95 315 CURVE SMOOTH",
"79 297 OFFCURVE",
"66 278 OFFCURVE",
"56 257 CURVE SMOOTH",
"46 236 OFFCURVE",
"39 214 OFFCURVE",
"36 191 CURVE SMOOTH",
"32 160 OFFCURVE",
"35 132 OFFCURVE",
"44 107 CURVE SMOOTH",
"53 82 OFFCURVE",
"67 62 OFFCURVE",
"85 45 CURVE SMOOTH",
"103 28 OFFCURVE",
"124 14 OFFCURVE",
"149 5 CURVE SMOOTH",
"174 -4 OFFCURVE",
"199 -8 OFFCURVE",
"226 -8 CURVE SMOOTH",
"275 -8 OFFCURVE",
"321 0 OFFCURVE",
"364 18 CURVE SMOOTH",
"407 36 OFFCURVE",
"446 60 OFFCURVE",
"481 90 CURVE",
"544 18 LINE SMOOTH",
"550 11 OFFCURVE",
"556 5 OFFCURVE",
"562 3 CURVE SMOOTH",
"568 1 OFFCURVE",
"575 0 OFFCURVE",
"585 0 CURVE SMOOTH",
"671 0 LINE",
"540 152 LINE",
"566 184 OFFCURVE",
"587 219 OFFCURVE",
"603 256 CURVE SMOOTH",
"619 293 OFFCURVE",
"631 331 OFFCURVE",
"636 369 CURVE",
"581 369 LINE SMOOTH",
"575 369 OFFCURVE",
"570 367 OFFCURVE",
"566 363 CURVE SMOOTH",
"562 359 OFFCURVE",
"559 354 OFFCURVE",
"558 348 CURVE",
"552 323 OFFCURVE",
"545 299 OFFCURVE",
"534 275 CURVE SMOOTH",
"523 251 OFFCURVE",
"510 226 OFFCURVE",
"495 204 CURVE",
"315 414 LINE SMOOTH",
"304 427 OFFCURVE",
"294 438 OFFCURVE",
"286 450 CURVE SMOOTH",
"278 462 OFFCURVE",
"273 473 OFFCURVE",
"269 484 CURVE SMOOTH",
"265 495 OFFCURVE",
"262 505 OFFCURVE",
"260 516 CURVE SMOOTH",
"258 527 OFFCURVE",
"259 537 OFFCURVE",
"260 549 CURVE",
"262 564 OFFCURVE",
"266 578 OFFCURVE",
"273 591 CURVE SMOOTH",
"280 604 OFFCURVE",
"288 615 OFFCURVE",
"299 625 CURVE",
"310 634 OFFCURVE",
"322 642 OFFCURVE",
"336 647 CURVE SMOOTH",
"350 652 OFFCURVE",
"365 655 OFFCURVE",
"382 655 CURVE SMOOTH",
"397 655 OFFCURVE",
"410 652 OFFCURVE",
"421 647 CURVE SMOOTH",
"432 642 OFFCURVE",
"441 636 OFFCURVE",
"448 628 CURVE SMOOTH",
"455 620 OFFCURVE",
"461 612 OFFCURVE",
"465 603 CURVE SMOOTH",
"469 594 OFFCURVE",
"472 585 OFFCURVE",
"473 576 CURVE",
"474 570 OFFCURVE",
"476 565 OFFCURVE",
"480 563 CURVE SMOOTH",
"484 561 OFFCURVE",
"487 560 OFFCURVE",
"491 560 CURVE SMOOTH",
"496 560 LINE",
"553 571 LINE",
"554 591 OFFCURVE",
"551 611 OFFCURVE",
"544 629 CURVE SMOOTH",
"537 647 OFFCURVE",
"527 664 OFFCURVE",
"513 678 CURVE SMOOTH",
"499 692 OFFCURVE",
"482 704 OFFCURVE",
"461 712 CURVE SMOOTH",
"440 720 OFFCURVE",
"416 724 OFFCURVE",
"390 724 CURVE SMOOTH"
);
},
{
closed = 1;
nodes = (
"131 229 OFFCURVE",
"143 259 OFFCURVE",
"164 285 CURVE SMOOTH",
"185 311 OFFCURVE",
"215 334 OFFCURVE",
"253 353 CURVE",
"438 139 LINE",
"413 116 OFFCURVE",
"384 99 OFFCURVE",
"353 85 CURVE SMOOTH",
"322 71 OFFCURVE",
"287 64 OFFCURVE",
"250 64 CURVE SMOOTH",
"233 64 OFFCURVE",
"216 67 OFFCURVE",
"200 73 CURVE SMOOTH",
"184 79 OFFCURVE",
"170 88 OFFCURVE",
"158 99 CURVE SMOOTH",
"146 110 OFFCURVE",
"138 125 OFFCURVE",
"132 141 CURVE SMOOTH",
"126 157 OFFCURVE",
"124 176 OFFCURVE",
"127 198 CURVE SMOOTH"
);
}
);
width = 684;
},
{
layerId = "18B4A443-2C69-4DCB-9619-77A7DD6AC8EC";
paths = (
{
closed = 1;
nodes = (
"284 716 OFFCURVE",
"200 650 OFFCURVE",
"187 552 CURVE SMOOTH",
"179 491 OFFCURVE",
"198 448 OFFCURVE",
"238 394 CURVE",
"144 360 OFFCURVE",
"57 281 OFFCURVE",
"43 181 CURVE SMOOTH",
"29 75 OFFCURVE",
"108 -8 OFFCURVE",
"223 -8 CURVE SMOOTH",
"318 -8 OFFCURVE",
"424 40 OFFCURVE",
"489 112 CURVE",
"579 11 LINE",
"586 3 OFFCURVE",
"593 0 OFFCURVE",
"605 0 CURVE SMOOTH",
"650 0 LINE",
"519 146 LINE",
"564 202 OFFCURVE",
"597 270 OFFCURVE",
"608 338 CURVE",
"580 338 LINE SMOOTH",
"573 338 OFFCURVE",
"568 332 OFFCURVE",
"566 324 CURVE SMOOTH",
"553 273 OFFCURVE",
"526 216 OFFCURVE",
"494 174 CURVE",
"298 394 LINE SMOOTH",
"251 446 OFFCURVE",
"225 492 OFFCURVE",
"232 553 CURVE SMOOTH",
"241 624 OFFCURVE",
"300 678 OFFCURVE",
"381 678 CURVE SMOOTH",
"442 678 OFFCURVE",
"485 636 OFFCURVE",
"491 580 CURVE",
"492 573 OFFCURVE",
"498 567 OFFCURVE",
"511 569 CURVE",
"533 574 LINE",
"541 654 OFFCURVE",
"468 716 OFFCURVE",
"385 716 CURVE SMOOTH"
);
},
{
closed = 1;
nodes = (
"101 263 OFFCURVE",
"169 334 OFFCURVE",
"258 369 CURVE",
"465 138 LINE",
"402 71 OFFCURVE",
"324 31 OFFCURVE",
"235 31 CURVE SMOOTH",
"149 31 OFFCURVE",
"81 91 OFFCURVE",
"92 184 CURVE SMOOTH"
);
}
);
width = 672;
},
{
layerId = "A0CD44AA-8F44-4864-B482-F84B7650FD25";
paths = (
{
closed = 1;
nodes = (
"354 731 OFFCURVE",
"325 726 OFFCURVE",
"298 716 CURVE SMOOTH",
"271 706 OFFCURVE",
"249 693 OFFCURVE",
"229 676 CURVE SMOOTH",
"209 659 OFFCURVE",
"193 641 OFFCURVE",
"181 618 CURVE SMOOTH",
"169 596 OFFCURVE",
"162 571 OFFCURVE",
"159 546 CURVE SMOOTH",
"156 522 OFFCURVE",
"157 499 OFFCURVE",
"162 475 CURVE SMOOTH",
"167 451 OFFCURVE",
"177 427 OFFCURVE",
"192 402 CURVE",
"169 392 OFFCURVE",
"149 380 OFFCURVE",
"129 366 CURVE SMOOTH",
"109 352 OFFCURVE",
"92 336 OFFCURVE",
"77 319 CURVE SMOOTH",
"62 302 OFFCURVE",
"50 283 OFFCURVE",
"40 263 CURVE SMOOTH",
"30 243 OFFCURVE",
"24 221 OFFCURVE",
"21 199 CURVE SMOOTH",
"17 167 OFFCURVE",
"19 139 OFFCURVE",
"29 113 CURVE SMOOTH",
"39 87 OFFCURVE",
"53 66 OFFCURVE",
"72 48 CURVE SMOOTH",
"91 30 OFFCURVE",
"113 16 OFFCURVE",
"139 6 CURVE SMOOTH",
"165 -4 OFFCURVE",
"191 -8 OFFCURVE",
"219 -8 CURVE SMOOTH",
"265 -8 OFFCURVE",
"308 -1 OFFCURVE",
"349 14 CURVE SMOOTH",
"390 29 OFFCURVE",
"428 49 OFFCURVE",
"463 75 CURVE",
"507 24 LINE",
"511 19 OFFCURVE",
"514 15 OFFCURVE",
"518 12 CURVE SMOOTH",
"522 9 OFFCURVE",
"525 7 OFFCURVE",
"529 5 CURVE SMOOTH",
"533 3 OFFCURVE",
"538 2 OFFCURVE",
"543 1 CURVE SMOOTH",
"548 0 OFFCURVE",
"553 0 OFFCURVE",
"559 0 CURVE SMOOTH",
"680 0 LINE",
"548 157 LINE",
"575 191 OFFCURVE",
"598 228 OFFCURVE",
"615 268 CURVE SMOOTH",
"632 308 OFFCURVE",
"643 350 OFFCURVE",
"649 394 CURVE",
"572 394 LINE SMOOTH",
"564 394 OFFCURVE",
"558 391 OFFCURVE",
"553 386 CURVE SMOOTH",
"548 381 OFFCURVE",
"545 376 OFFCURVE",
"543 368 CURVE",
"538 344 OFFCURVE",
"531 320 OFFCURVE",
"521 297 CURVE SMOOTH",
"511 274 OFFCURVE",
"501 252 OFFCURVE",
"487 231 CURVE",
"319 430 LINE",
"309 441 OFFCURVE",
"301 452 OFFCURVE",
"295 462 CURVE SMOOTH",
"289 472 OFFCURVE",
"284 482 OFFCURVE",
"280 491 CURVE SMOOTH",
"276 500 OFFCURVE",
"275 510 OFFCURVE",
"274 519 CURVE SMOOTH",
"273 528 OFFCURVE",
"273 538 OFFCURVE",
"274 548 CURVE SMOOTH",
"275 560 OFFCURVE",
"279 571 OFFCURVE",
"284 582 CURVE SMOOTH",
"289 593 OFFCURVE",
"296 602 OFFCURVE",
"305 610 CURVE SMOOTH",
"314 618 OFFCURVE",
"324 625 OFFCURVE",
"336 630 CURVE SMOOTH",
"348 635 OFFCURVE",
"360 637 OFFCURVE",
"374 637 CURVE SMOOTH",
"386 637 OFFCURVE",
"395 636 OFFCURVE",
"404 632 CURVE SMOOTH",
"413 628 OFFCURVE",
"420 624 OFFCURVE",
"426 618 CURVE SMOOTH",
"432 612 OFFCURVE",
"437 605 OFFCURVE",
"441 597 CURVE SMOOTH",
"445 589 OFFCURVE",
"447 582 OFFCURVE",
"449 573 CURVE",
"451 566 OFFCURVE",
"454 561 OFFCURVE",
"458 558 CURVE SMOOTH",
"462 555 OFFCURVE",
"467 553 OFFCURVE",
"473 553 CURVE SMOOTH",
"476 553 LINE SMOOTH",
"477 553 OFFCURVE",
"478 554 OFFCURVE",
"479 554 CURVE",
"560 570 LINE",
"561 591 OFFCURVE",
"557 611 OFFCURVE",
"550 630 CURVE SMOOTH",
"543 649 OFFCURVE",
"533 667 OFFCURVE",
"518 682 CURVE SMOOTH",
"503 697 OFFCURVE",
"485 709 OFFCURVE",
"463 718 CURVE SMOOTH",
"441 727 OFFCURVE",
"415 731 OFFCURVE",
"386 731 CURVE SMOOTH"
);
},
{
closed = 1;
nodes = (
"150 234 OFFCURVE",
"159 257 OFFCURVE",
"174 279 CURVE SMOOTH",
"189 301 OFFCURVE",
"211 321 OFFCURVE",
"240 338 CURVE",
"406 143 LINE",
"384 127 OFFCURVE",
"360 113 OFFCURVE",
"335 104 CURVE SMOOTH",
"310 95 OFFCURVE",
"282 91 OFFCURVE",
"253 91 CURVE SMOOTH",
"237 91 OFFCURVE",
"222 93 OFFCURVE",
"208 99 CURVE SMOOTH",
"194 105 OFFCURVE",
"182 112 OFFCURVE",
"172 122 CURVE SMOOTH",
"162 132 OFFCURVE",
"156 145 OFFCURVE",
"151 160 CURVE SMOOTH",
"146 175 OFFCURVE",
"145 191 OFFCURVE",
"147 209 CURVE SMOOTH"
);
}
);
width = 700;
}
);
note = ampersand;
unicode = 0026;
},
{
glyphname = quotesingle;
layers = (
{
layerId = "C87851D2-2817-4F36-A784-A5AE84D7BDA8";
paths = (
{
closed = 1;
nodes = (
"165 716 LINE",
"88 716 LINE",
"70 572 LINE",
"69 494 LINE",
"70 483 OFFCURVE",
"72 475 OFFCURVE",
"76 469 CURVE SMOOTH",
"80 463 OFFCURVE",
"86 460 OFFCURVE",
"95 460 CURVE SMOOTH",
"105 460 OFFCURVE",
"113 463 OFFCURVE",
"118 469 CURVE SMOOTH",
"123 475 OFFCURVE",
"128 483 OFFCURVE",
"130 494 CURVE",
"148 572 LINE"
);
}
);
width = 234;
},
{
layerId = "18B4A443-2C69-4DCB-9619-77A7DD6AC8EC";
paths = (
{
closed = 1;
nodes = (
"134 708 LINE",
"93 708 LINE",
"75 562 LINE",
"70 485 LINE",
"70 478 OFFCURVE",
"71 467 OFFCURVE",
"84 467 CURVE SMOOTH",
"94 467 OFFCURVE",
"101 476 OFFCURVE",
"103 485 CURVE SMOOTH",
"116 562 LINE"
);
}
);
width = 204;
},
{
layerId = "A0CD44AA-8F44-4864-B482-F84B7650FD25";
paths = (
{
closed = 1;
nodes = (
"179 723 LINE",
"72 723 LINE",
"54 579 LINE",
"55 501 LINE SMOOTH",
"55 486 OFFCURVE",
"59 475 OFFCURVE",
"65 467 CURVE SMOOTH",
"71 459 OFFCURVE",
"80 456 OFFCURVE",
"92 456 CURVE SMOOTH",
"106 456 OFFCURVE",
"117 459 OFFCURVE",
"124 467 CURVE SMOOTH",
"131 475 OFFCURVE",
"136 486 OFFCURVE",
"140 501 CURVE SMOOTH",
"162 579 LINE"
);
}
);
width = 233;
}
);
leftKerningGroup = ordfeminine;
note = quotesingle;
rightKerningGroup = ordfeminine;
unicode = 0027;
},
{
glyphname = parenleft;
layers = (
{
layerId = "C87851D2-2817-4F36-A784-A5AE84D7BDA8";
paths = (
{
closed = 1;
nodes = (
"137 385 OFFCURVE",
"155 455 OFFCURVE",
"181 522 CURVE SMOOTH",
"207 589 OFFCURVE",
"242 653 OFFCURVE",
"284 714 CURVE SMOOTH",
"288 720 OFFCURVE",
"290 727 OFFCURVE",
"291 732 CURVE SMOOTH",
"292 737 OFFCURVE",
"291 740 OFFCURVE",
"289 743 CURVE SMOOTH",
"287 746 OFFCURVE",
"284 749 OFFCURVE",
"281 751 CURVE SMOOTH",
"245 776 LINE",
"215 737 OFFCURVE",
"189 699 OFFCURVE",
"167 661 CURVE SMOOTH",
"145 623 OFFCURVE",
"125 586 OFFCURVE",
"110 548 CURVE SMOOTH",
"95 510 OFFCURVE",
"83 472 OFFCURVE",
"73 433 CURVE SMOOTH",
"63 394 OFFCURVE",
"56 354 OFFCURVE",
"51 314 CURVE SMOOTH",
"46 273 OFFCURVE",
"44 234 OFFCURVE",
"44 196 CURVE SMOOTH",
"44 158 OFFCURVE",
"47 119 OFFCURVE",
"53 81 CURVE SMOOTH",
"59 43 OFFCURVE",
"69 6 OFFCURVE",
"82 -32 CURVE SMOOTH",
"95 -70 OFFCURVE",
"111 -108 OFFCURVE",
"131 -146 CURVE",
"174 -122 LINE",
"178 -120 OFFCURVE",
"181 -117 OFFCURVE",
"184 -114 CURVE SMOOTH",
"187 -111 OFFCURVE",
"188 -108 OFFCURVE",
"189 -103 CURVE",
"189 -95 LINE SMOOTH",
"189 -92 OFFCURVE",
"188 -90 OFFCURVE",
"186 -86 CURVE",
"159 -25 OFFCURVE",
"140 40 OFFCURVE",
"130 107 CURVE SMOOTH",
"120 174 OFFCURVE",
"119 243 OFFCURVE",
"128 314 CURVE SMOOTH"
);
}
);
width = 324;
},
{
layerId = "18B4A443-2C69-4DCB-9619-77A7DD6AC8EC";
paths = (
{
closed = 1;
nodes = (
"150 570 OFFCURVE",
"269 729 CURVE SMOOTH",
"272 732 OFFCURVE",
"278 745 OFFCURVE",
"268 750 CURVE",
"249 763 LINE",
"115 588 OFFCURVE",
"50 423 OFFCURVE",
"50 202 CURVE SMOOTH",
"50 87 OFFCURVE",
"82 -28 OFFCURVE",
"139 -133 CURVE",
"161 -120 LINE",
"169 -115 OFFCURVE",
"172 -107 OFFCURVE",
"168 -98 CURVE SMOOTH",
"120 -3 OFFCURVE",
"95 97 OFFCURVE",
"92 203 CURVE SMOOTH",
"87 388 OFFCURVE"
);
}
);
width = 309;
},
{
layerId = "A0CD44AA-8F44-4864-B482-F84B7650FD25";
paths = (
{
closed = 1;
nodes = (
"147 383 OFFCURVE",
"164 450 OFFCURVE",
"189 516 CURVE SMOOTH",
"214 582 OFFCURVE",
"245 646 OFFCURVE",
"283 704 CURVE",
"288 713 OFFCURVE",
"291 720 OFFCURVE",
"292 726 CURVE SMOOTH",
"293 732 OFFCURVE",
"292 738 OFFCURVE",
"289 742 CURVE SMOOTH",
"286 746 OFFCURVE",
"282 749 OFFCURVE",
"278 752 CURVE",
"227 785 LINE",
"198 747 OFFCURVE",
"172 709 OFFCURVE",
"150 671 CURVE SMOOTH",
"128 633 OFFCURVE",
"109 594 OFFCURVE",
"93 555 CURVE SMOOTH",
"77 516 OFFCURVE",
"65 476 OFFCURVE",
"55 436 CURVE SMOOTH",
"45 396 OFFCURVE",
"37 356 OFFCURVE",
"32 314 CURVE SMOOTH",
"27 272 OFFCURVE",
"25 231 OFFCURVE",
"25 191 CURVE SMOOTH",
"25 151 OFFCURVE",
"28 111 OFFCURVE",
"34 72 CURVE SMOOTH",
"40 33 OFFCURVE",
"49 -6 OFFCURVE",
"62 -44 CURVE SMOOTH",
"75 -82 OFFCURVE",
"91 -120 OFFCURVE",
"111 -158 CURVE",
"171 -124 LINE SMOOTH",
"176 -121 OFFCURVE",
"180 -118 OFFCURVE",
"184 -114 CURVE SMOOTH",
"188 -110 OFFCURVE",
"190 -105 OFFCURVE",
"191 -98 CURVE",
"191 -88 LINE SMOOTH",
"191 -84 OFFCURVE",
"189 -80 OFFCURVE",
"187 -76 CURVE",
"163 -18 OFFCURVE",
"148 45 OFFCURVE",
"139 111 CURVE SMOOTH",
"130 177 OFFCURVE",
"131 245 OFFCURVE",
"139 314 CURVE SMOOTH"
);
}
);
width = 308;
}
);
note = parenleft;
unicode = 0028;
},
{
glyphname = parenright;
layers = (
{
layerId = "C87851D2-2817-4F36-A784-A5AE84D7BDA8";
paths = (
{
closed = 1;
nodes = (
"186 243 OFFCURVE",
"169 174 OFFCURVE",
"142 107 CURVE SMOOTH",
"115 40 OFFCURVE",
"81 -25 OFFCURVE",
"39 -86 CURVE",
"37 -90 OFFCURVE",
"35 -92 OFFCURVE",
"34 -95 CURVE SMOOTH",
"33 -98 OFFCURVE",
"32 -100 OFFCURVE",
"32 -103 CURVE",
"31 -108 OFFCURVE",
"32 -111 OFFCURVE",
"34 -114 CURVE SMOOTH",
"36 -117 OFFCURVE",
"39 -120 OFFCURVE",
"42 -122 CURVE SMOOTH",
"78 -146 LINE",
"108 -108 OFFCURVE",
"134 -70 OFFCURVE",
"156 -32 CURVE SMOOTH",
"178 6 OFFCURVE",
"197 43 OFFCURVE",
"213 81 CURVE SMOOTH",
"228 119 OFFCURVE",
"240 158 OFFCURVE",
"250 196 CURVE SMOOTH",
"260 234 OFFCURVE",
"267 274 OFFCURVE",
"272 315 CURVE SMOOTH",
"277 355 OFFCURVE",
"280 394 OFFCURVE",
"280 433 CURVE SMOOTH",
"280 472 OFFCURVE",
"276 510 OFFCURVE",
"270 548 CURVE SMOOTH",
"264 586 OFFCURVE",
"254 623 OFFCURVE",
"241 661 CURVE SMOOTH",
"228 699 OFFCURVE",
"212 737 OFFCURVE",
"192 776 CURVE",
"149 751 LINE",
"145 749 OFFCURVE",
"142 746 OFFCURVE",
"139 743 CURVE SMOOTH",
"136 740 OFFCURVE",
"135 737 OFFCURVE",
"134 732 CURVE SMOOTH",
"133 727 OFFCURVE",
"134 720 OFFCURVE",
"137 714 CURVE SMOOTH",
"165 653 OFFCURVE",
"183 589 OFFCURVE",
"193 522 CURVE SMOOTH",
"203 455 OFFCURVE",
"204 385 OFFCURVE",
"195 314 CURVE SMOOTH"
);
}
);
width = 324;
},
{
layerId = "18B4A443-2C69-4DCB-9619-77A7DD6AC8EC";
paths = (
{
closed = 1;
nodes = (
"159 60 OFFCURVE",
"40 -99 CURVE SMOOTH",
"37 -102 OFFCURVE",
"31 -115 OFFCURVE",
"41 -120 CURVE",
"60 -133 LINE",
"194 42 OFFCURVE",
"259 207 OFFCURVE",
"259 428 CURVE SMOOTH",
"259 543 OFFCURVE",
"227 658 OFFCURVE",
"170 763 CURVE",
"148 750 LINE",
"140 745 OFFCURVE",
"137 737 OFFCURVE",
"141 728 CURVE SMOOTH",
"189 633 OFFCURVE",
"214 533 OFFCURVE",
"217 427 CURVE SMOOTH",
"222 242 OFFCURVE"
);
}
);
width = 309;
},
{
layerId = "A0CD44AA-8F44-4864-B482-F84B7650FD25";
paths = (
{
closed = 1;
nodes = (
"160 245 OFFCURVE",
"143 177 OFFCURVE",
"118 111 CURVE SMOOTH",
"93 45 OFFCURVE",
"62 -18 OFFCURVE",
"24 -76 CURVE",
"21 -80 OFFCURVE",
"19 -84 OFFCURVE",
"18 -88 CURVE SMOOTH",
"17 -92 OFFCURVE",
"15 -95 OFFCURVE",
"15 -98 CURVE",
"14 -105 OFFCURVE",
"15 -110 OFFCURVE",
"18 -114 CURVE SMOOTH",
"21 -118 OFFCURVE",
"25 -121 OFFCURVE",
"29 -124 CURVE",
"80 -158 LINE",
"109 -120 OFFCURVE",
"135 -82 OFFCURVE",
"157 -44 CURVE SMOOTH",
"179 -6 OFFCURVE",
"198 33 OFFCURVE",
"214 72 CURVE SMOOTH",
"230 111 OFFCURVE",
"243 151 OFFCURVE",
"253 191 CURVE SMOOTH",
"263 231 OFFCURVE",
"270 272 OFFCURVE",
"275 314 CURVE SMOOTH",
"280 356 OFFCURVE",
"283 396 OFFCURVE",
"283 436 CURVE SMOOTH",
"283 476 OFFCURVE",
"279 516 OFFCURVE",
"273 555 CURVE SMOOTH",
"267 594 OFFCURVE",
"258 633 OFFCURVE",
"245 671 CURVE SMOOTH",
"232 709 OFFCURVE",
"216 747 OFFCURVE",
"196 785 CURVE",
"137 752 LINE SMOOTH",
"132 749 OFFCURVE",
"127 746 OFFCURVE",
"123 742 CURVE SMOOTH",
"119 738 OFFCURVE",
"117 732 OFFCURVE",
"116 726 CURVE SMOOTH",
"115 720 OFFCURVE",
"117 713 OFFCURVE",
"120 704 CURVE",
"144 646 OFFCURVE",
"159 582 OFFCURVE",
"168 516 CURVE SMOOTH",
"177 450 OFFCURVE",
"176 383 OFFCURVE",
"168 314 CURVE SMOOTH"
);
}
);
width = 308;
}
);
note = parenright;
unicode = 0029;
},
{
glyphname = asterisk;
layers = (
{
layerId = "C87851D2-2817-4F36-A784-A5AE84D7BDA8";
paths = (
{
closed = 1;
nodes = (
"179 432 LINE",
"223 432 LINE",
"235 530 LINE SMOOTH",
"237 543 OFFCURVE",
"235 555 OFFCURVE",
"231 566 CURVE",
"234 561 OFFCURVE",
"238 557 OFFCURVE",
"242 553 CURVE SMOOTH",
"246 549 OFFCURVE",
"251 546 OFFCURVE",
"257 542 CURVE SMOOTH",
"337 492 LINE",
"364 530 LINE",
"284 580 LINE",
"279 584 OFFCURVE",
"273 586 OFFCURVE",
"268 588 CURVE SMOOTH",
"263 590 OFFCURVE",
"257 591 OFFCURVE",
"251 592 CURVE",
"257 593 OFFCURVE",
"263 594 OFFCURVE",
"269 596 CURVE SMOOTH",
"275 598 OFFCURVE",
"281 600 OFFCURVE",
"287 604 CURVE",
"379 654 LINE",
"361 692 LINE",
"269 642 LINE",
"263 638 OFFCURVE",
"258 636 OFFCURVE",
"253 632 CURVE SMOOTH",
"248 628 OFFCURVE",
"243 623 OFFCURVE",
"239 618 CURVE",
"245 628 OFFCURVE",
"248 640 OFFCURVE",
"250 654 CURVE SMOOTH",
"262 753 LINE",
"218 753 LINE",
"206 654 LINE SMOOTH",
"205 647 OFFCURVE",
"206 641 OFFCURVE",
"206 635 CURVE SMOOTH",
"206 629 OFFCURVE",
"208 622 OFFCURVE",
"210 616 CURVE",
"204 627 OFFCURVE",
"195 635 OFFCURVE",
"184 642 CURVE SMOOTH",
"104 692 LINE",
"77 655 LINE",
"158 604 LINE SMOOTH",
"164 600 OFFCURVE",
"168 598 OFFCURVE",
"174 596 CURVE SMOOTH",
"180 594 OFFCURVE",
"186 593 OFFCURVE",
"193 592 CURVE",
"181 591 OFFCURVE",
"168 587 OFFCURVE",
"155 580 CURVE SMOOTH",
"62 530 LINE",
"80 492 LINE",
"172 542 LINE SMOOTH",
"184 549 OFFCURVE",
"193 556 OFFCURVE",
"201 564 CURVE",
"198 559 OFFCURVE",
"196 554 OFFCURVE",
"194 548 CURVE SMOOTH",
"192 542 OFFCURVE",
"192 536 OFFCURVE",
"191 530 CURVE"
);
}
);
width = 441;
},
{
layerId = "18B4A443-2C69-4DCB-9619-77A7DD6AC8EC";
paths = (
{
closed = 1;
nodes = (
"181 448 LINE",
"207 448 LINE",
"220 556 LINE",
"222 565 OFFCURVE",
"220 568 OFFCURVE",
"217 586 CURVE",
"220 582 OFFCURVE",
"230 570 OFFCURVE",
"238 565 CURVE SMOOTH",
"327 510 LINE",
"342 532 LINE",
"254 588 LINE SMOOTH",
"246 593 OFFCURVE",
"238 595 OFFCURVE",
"226 597 CURVE",
"238 599 OFFCURVE",
"241 599 OFFCURVE",
"257 608 CURVE",
"357 662 LINE",
"347 684 LINE",
"246 630 LINE SMOOTH",
"236 625 OFFCURVE",
"228 618 OFFCURVE",
"220 608 CURVE",
"226 621 OFFCURVE",
"228 626 OFFCURVE",
"230 640 CURVE",
"243 746 LINE",
"217 746 LINE",
"204 639 LINE",
"203 630 OFFCURVE",
"205 617 OFFCURVE",
"208 607 CURVE",
"204 613 OFFCURVE",
"195 625 OFFCURVE",
"186 630 CURVE SMOOTH",
"98 685 LINE",
"82 662 LINE",
"171 607 LINE",
"174 605 OFFCURVE",
"186 599 OFFCURVE",
"198 597 CURVE",
"193 596 OFFCURVE",
"176 592 OFFCURVE",
"168 587 CURVE",
"68 532 LINE",
"77 510 LINE",
"178 565 LINE",
"189 571 OFFCURVE",
"194 572 OFFCURVE",
"204 585 CURVE",
"199 576 OFFCURVE",
"197 571 OFFCURVE",
"194 555 CURVE"
);
}
);
width = 425;
},
{
layerId = "A0CD44AA-8F44-4864-B482-F84B7650FD25";
paths = (
{
closed = 1;
nodes = (
"161 418 LINE",
"220 418 LINE",
"231 510 LINE SMOOTH",
"233 524 OFFCURVE",
"232 537 OFFCURVE",
"229 548 CURVE",
"232 543 OFFCURVE",
"236 539 OFFCURVE",
"241 535 CURVE SMOOTH",
"246 531 OFFCURVE",
"250 528 OFFCURVE",
"256 524 CURVE SMOOTH",
"330 478 LINE",
"365 528 LINE",
"291 574 LINE SMOOTH",
"279 581 OFFCURVE",
"268 586 OFFCURVE",
"257 588 CURVE",
"263 589 OFFCURVE",
"270 591 OFFCURVE",
"276 593 CURVE SMOOTH",
"282 595 OFFCURVE",
"289 598 OFFCURVE",
"295 602 CURVE",
"380 648 LINE",
"356 698 LINE",
"272 652 LINE",
"266 648 OFFCURVE",
"259 645 OFFCURVE",
"254 641 CURVE SMOOTH",
"249 637 OFFCURVE",
"243 633 OFFCURVE",
"239 628 CURVE",
"242 634 OFFCURVE",
"244 640 OFFCURVE",
"246 646 CURVE SMOOTH",
"248 652 OFFCURVE",
"249 659 OFFCURVE",
"250 666 CURVE SMOOTH",
"261 758 LINE",
"202 758 LINE",
"191 666 LINE SMOOTH",
"190 659 OFFCURVE",
"190 652 OFFCURVE",
"190 646 CURVE SMOOTH",
"190 640 OFFCURVE",
"190 634 OFFCURVE",
"192 628 CURVE",
"189 633 OFFCURVE",
"186 637 OFFCURVE",
"181 641 CURVE SMOOTH",
"176 645 OFFCURVE",
"171 648 OFFCURVE",
"166 652 CURVE",
"92 699 LINE",
"57 649 LINE",
"131 602 LINE SMOOTH",
"137 598 OFFCURVE",
"141 596 OFFCURVE",
"147 593 CURVE SMOOTH",
"153 590 OFFCURVE",
"159 589 OFFCURVE",
"165 588 CURVE",
"159 587 OFFCURVE",
"152 585 OFFCURVE",
"146 583 CURVE SMOOTH",
"140 581 OFFCURVE",
"133 578 OFFCURVE",
"127 574 CURVE",
"42 528 LINE",
"65 478 LINE",
"150 524 LINE",
"156 528 OFFCURVE",
"162 531 OFFCURVE",
"167 535 CURVE SMOOTH",
"172 539 OFFCURVE",
"178 542 OFFCURVE",
"182 547 CURVE",
"179 541 OFFCURVE",
"177 535 OFFCURVE",
"175 529 CURVE SMOOTH",
"173 523 OFFCURVE",
"173 517 OFFCURVE",
"172 510 CURVE SMOOTH"
);
}
);
width = 422;
}
);
leftKerningGroup = quotedbl;
note = asterisk;
rightKerningGroup = quotedbl;
unicode = 002A;
},
{
glyphname = plus;
layers = (
{
layerId = "C87851D2-2817-4F36-A784-A5AE84D7BDA8";
paths = (
{
closed = 1;
nodes = (
"362 583 LINE",
"289 583 LINE",
"262 370 LINE",
"60 370 LINE",
"52 302 LINE",
"254 302 LINE",
"228 87 LINE",
"301 87 LINE",
"327 302 LINE",
"530 302 LINE",
"539 370 LINE",
"335 370 LINE"
);
}
);
width = 591;
},
{
layerId = "18B4A443-2C69-4DCB-9619-77A7DD6AC8EC";
paths = (
{
closed = 1;
nodes = (
"342 579 LINE",
"303 579 LINE",
"275 354 LINE",
"60 354 LINE",
"56 317 LINE",
"271 317 LINE",
"243 90 LINE",
"282 90 LINE",
"310 317 LINE",
"526 317 LINE",
"530 354 LINE",
"314 354 LINE"
);
}
);
width = 586;
},
{
layerId = "A0CD44AA-8F44-4864-B482-F84B7650FD25";
paths = (
{
closed = 1;
nodes = (
"374 586 LINE",
"274 586 LINE",
"249 382 LINE",
"55 382 LINE",
"44 290 LINE",
"237 290 LINE",
"212 84 LINE",
"312 84 LINE",
"337 290 LINE",
"532 290 LINE",
"543 382 LINE",
"349 382 LINE"
);
}
);
width = 587;
}
);
note = plus;
unicode = 002B;
},
{
glyphname = comma;
layers = (
{
layerId = "C87851D2-2817-4F36-A784-A5AE84D7BDA8";
paths = (
{
closed = 1;
nodes = (
"60 53 OFFCURVE",
"61 45 OFFCURVE",
"63 37 CURVE SMOOTH",
"65 29 OFFCURVE",
"68 23 OFFCURVE",
"72 17 CURVE SMOOTH",
"76 11 OFFCURVE",
"82 7 OFFCURVE",
"89 4 CURVE SMOOTH",
"96 1 OFFCURVE",
"103 0 OFFCURVE",
"112 0 CURVE SMOOTH",
"118 0 LINE",
"115 -11 OFFCURVE",
"111 -21 OFFCURVE",
"105 -31 CURVE SMOOTH",
"99 -41 OFFCURVE",
"93 -50 OFFCURVE",
"87 -58 CURVE SMOOTH",
"81 -66 OFFCURVE",
"74 -73 OFFCURVE",
"68 -79 CURVE SMOOTH",
"62 -85 OFFCURVE",
"58 -90 OFFCURVE",
"54 -94 CURVE SMOOTH",
"49 -99 OFFCURVE",
"46 -103 OFFCURVE",
"45 -107 CURVE",
"44 -112 OFFCURVE",
"46 -117 OFFCURVE",
"50 -121 CURVE",
"63 -136 LINE",
"80 -123 OFFCURVE",
"94 -109 OFFCURVE",
"108 -94 CURVE SMOOTH",
"122 -79 OFFCURVE",
"134 -64 OFFCURVE",
"144 -48 CURVE SMOOTH",
"154 -32 OFFCURVE",
"162 -16 OFFCURVE",
"168 0 CURVE SMOOTH",
"174 16 OFFCURVE",
"179 32 OFFCURVE",
"181 47 CURVE SMOOTH",
"182 57 OFFCURVE",
"182 67 OFFCURVE",
"180 75 CURVE SMOOTH",
"178 83 OFFCURVE",
"175 91 OFFCURVE",
"171 97 CURVE SMOOTH",
"167 103 OFFCURVE",
"160 109 OFFCURVE",
"153 113 CURVE SMOOTH",
"146 117 OFFCURVE",
"137 118 OFFCURVE",
"127 118 CURVE SMOOTH",
"118 118 OFFCURVE",
"111 117 OFFCURVE",
"103 114 CURVE SMOOTH",
"95 111 OFFCURVE",
"88 106 OFFCURVE",
"82 101 CURVE SMOOTH",
"76 96 OFFCURVE",
"72 90 OFFCURVE",
"68 83 CURVE SMOOTH",
"64 76 OFFCURVE",
"62 70 OFFCURVE",
"61 62 CURVE SMOOTH"
);
}
);
width = 227;
},
{
layerId = "18B4A443-2C69-4DCB-9619-77A7DD6AC8EC";
paths = (
{
closed = 1;
nodes = (
"69 17 OFFCURVE",
"85 -2 OFFCURVE",
"110 -2 CURVE SMOOTH",
"116 -2 OFFCURVE",
"122 -1 OFFCURVE",
"125 0 CURVE",
"116 -35 OFFCURVE",
"85 -83 OFFCURVE",
"62 -101 CURVE",
"55 -108 OFFCURVE",
"53 -112 OFFCURVE",
"59 -119 CURVE",
"66 -126 LINE",
"113 -88 OFFCURVE",
"153 -26 OFFCURVE",
"161 31 CURVE SMOOTH",
"165 62 OFFCURVE",
"152 85 OFFCURVE",
"122 85 CURVE SMOOTH",
"98 85 OFFCURVE",
"75 65 OFFCURVE",
"73 42 CURVE"
);
}
);
width = 217;
},
{
layerId = "A0CD44AA-8F44-4864-B482-F84B7650FD25";
paths = (
{
closed = 1;
nodes = (
"39 65 OFFCURVE",
"39 55 OFFCURVE",
"41 46 CURVE SMOOTH",
"43 37 OFFCURVE",
"48 30 OFFCURVE",
"53 23 CURVE SMOOTH",
"58 16 OFFCURVE",
"65 11 OFFCURVE",
"73 7 CURVE SMOOTH",
"81 3 OFFCURVE",
"91 2 OFFCURVE",
"101 2 CURVE",
"98 -8 OFFCURVE",
"94 -18 OFFCURVE",
"88 -27 CURVE SMOOTH",
"82 -36 OFFCURVE",
"76 -43 OFFCURVE",
"70 -51 CURVE SMOOTH",
"64 -59 OFFCURVE",
"58 -65 OFFCURVE",
"52 -71 CURVE SMOOTH",
"46 -77 OFFCURVE",
"40 -82 OFFCURVE",
"36 -86 CURVE SMOOTH",
"33 -89 OFFCURVE",
"31 -92 OFFCURVE",
"29 -95 CURVE SMOOTH",
"27 -98 OFFCURVE",
"25 -101 OFFCURVE",
"25 -104 CURVE",
"24 -111 OFFCURVE",
"26 -117 OFFCURVE",
"31 -122 CURVE SMOOTH",
"51 -142 LINE",
"70 -128 OFFCURVE",
"87 -113 OFFCURVE",
"103 -96 CURVE SMOOTH",
"119 -79 OFFCURVE",
"132 -62 OFFCURVE",
"144 -44 CURVE SMOOTH",
"156 -26 OFFCURVE",
"165 -10 OFFCURVE",
"172 8 CURVE SMOOTH",
"179 26 OFFCURVE",
"183 43 OFFCURVE",
"185 59 CURVE SMOOTH",
"186 70 OFFCURVE",
"187 81 OFFCURVE",
"185 91 CURVE SMOOTH",
"183 101 OFFCURVE",
"179 110 OFFCURVE",
"174 118 CURVE SMOOTH",
"169 126 OFFCURVE",
"162 133 OFFCURVE",
"153 137 CURVE SMOOTH",
"144 141 OFFCURVE",
"134 143 OFFCURVE",
"121 143 CURVE SMOOTH",
"110 143 OFFCURVE",
"99 142 OFFCURVE",
"90 138 CURVE SMOOTH",
"81 134 OFFCURVE",
"73 130 OFFCURVE",
"66 124 CURVE SMOOTH",
"59 118 OFFCURVE",
"53 110 OFFCURVE",
"48 102 CURVE SMOOTH",
"43 94 OFFCURVE",
"41 85 OFFCURVE",
"40 76 CURVE SMOOTH"
);
}
);
width = 211;
}
);
leftKerningGroup = comma;
note = comma;
rightKerningGroup = comma;
unicode = 002C;
},
{
glyphname = hyphen;
layers = (
{
layerId = "C87851D2-2817-4F36-A784-A5AE84D7BDA8";
paths = (
{
closed = 1;
nodes = (
"50 338 LINE",
"40 262 LINE",
"288 262 LINE",
"297 338 LINE"
);
}
);
width = 337;
},
{
layerId = "18B4A443-2C69-4DCB-9619-77A7DD6AC8EC";
paths = (
{
closed = 1;
nodes = (
"74 317 LINE",
"69 276 LINE",
"301 276 LINE",
"306 317 LINE"
);
}
);
width = 375;
},
{
layerId = "A0CD44AA-8F44-4864-B482-F84B7650FD25";
paths = (
{
closed = 1;
nodes = (
"62 354 LINE",
"50 250 LINE",
"308 250 LINE",
"321 354 LINE"
);
}
);
width = 371;
}
);
leftKerningGroup = emdash;
note = hyphen;
rightKerningGroup = emdash;
unicode = 002D;
},
{
glyphname = period;
layers = (
{
layerId = "C87851D2-2817-4F36-A784-A5AE84D7BDA8";
paths = (
{
closed = 1;
nodes = (
"45 46 OFFCURVE",
"45 38 OFFCURVE",
"47 30 CURVE SMOOTH",
"49 22 OFFCURVE",
"53 16 OFFCURVE",
"58 10 CURVE SMOOTH",
"63 4 OFFCURVE",
"69 0 OFFCURVE",
"76 -3 CURVE SMOOTH",
"83 -6 OFFCURVE",
"91 -8 OFFCURVE",
"100 -8 CURVE SMOOTH",
"109 -8 OFFCURVE",
"117 -6 OFFCURVE",
"125 -3 CURVE SMOOTH",
"133 0 OFFCURVE",
"141 4 OFFCURVE",
"147 10 CURVE SMOOTH",
"153 16 OFFCURVE",
"158 22 OFFCURVE",
"162 30 CURVE SMOOTH",
"166 38 OFFCURVE",
"169 46 OFFCURVE",
"170 55 CURVE SMOOTH",
"171 64 OFFCURVE",
"170 72 OFFCURVE",
"168 80 CURVE SMOOTH",
"166 88 OFFCURVE",
"163 93 OFFCURVE",
"158 99 CURVE SMOOTH",
"153 105 OFFCURVE",
"146 110 OFFCURVE",
"139 113 CURVE SMOOTH",
"132 116 OFFCURVE",
"124 118 OFFCURVE",
"115 118 CURVE SMOOTH",
"106 118 OFFCURVE",
"98 116 OFFCURVE",
"90 113 CURVE SMOOTH",
"82 110 OFFCURVE",
"75 105 OFFCURVE",
"69 99 CURVE SMOOTH",
"63 93 OFFCURVE",
"57 88 OFFCURVE",
"53 80 CURVE SMOOTH",
"49 72 OFFCURVE",
"47 64 OFFCURVE",
"46 55 CURVE SMOOTH"
);
}
);
width = 215;
},
{
layerId = "18B4A443-2C69-4DCB-9619-77A7DD6AC8EC";
paths = (
{
closed = 1;
nodes = (
"121 -8 OFFCURVE",
"145 14 OFFCURVE",
"147 39 CURVE SMOOTH",
"150 63 OFFCURVE",
"133 85 OFFCURVE",
"107 85 CURVE SMOOTH",
"81 85 OFFCURVE",
"57 63 OFFCURVE",
"55 39 CURVE SMOOTH",
"53 14 OFFCURVE",
"70 -8 OFFCURVE",
"96 -8 CURVE SMOOTH"
);
}
);
width = 202;
},
{
layerId = "A0CD44AA-8F44-4864-B482-F84B7650FD25";
paths = (
{
closed = 1;
nodes = (
"25 57 OFFCURVE",
"25 47 OFFCURVE",
"28 38 CURVE SMOOTH",
"31 29 OFFCURVE",
"35 22 OFFCURVE",
"41 15 CURVE SMOOTH",
"47 8 OFFCURVE",
"54 3 OFFCURVE",
"63 -1 CURVE SMOOTH",
"72 -5 OFFCURVE",
"81 -7 OFFCURVE",
"92 -7 CURVE SMOOTH",
"102 -7 OFFCURVE",
"113 -5 OFFCURVE",
"123 -1 CURVE SMOOTH",
"133 3 OFFCURVE",
"142 8 OFFCURVE",
"149 15 CURVE SMOOTH",
"156 22 OFFCURVE",
"162 29 OFFCURVE",
"167 38 CURVE SMOOTH",
"172 47 OFFCURVE",
"176 57 OFFCURVE",
"177 68 CURVE SMOOTH",
"178 78 OFFCURVE",
"178 89 OFFCURVE",
"175 98 CURVE SMOOTH",
"172 107 OFFCURVE",
"168 115 OFFCURVE",
"162 122 CURVE SMOOTH",
"156 129 OFFCURVE",
"149 134 OFFCURVE",
"140 138 CURVE SMOOTH",
"131 142 OFFCURVE",
"121 144 OFFCURVE",
"111 144 CURVE SMOOTH",
"100 144 OFFCURVE",
"90 142 OFFCURVE",
"80 138 CURVE SMOOTH",
"70 134 OFFCURVE",
"62 129 OFFCURVE",
"54 122 CURVE SMOOTH",
"46 115 OFFCURVE",
"40 107 OFFCURVE",
"35 98 CURVE SMOOTH",
"30 89 OFFCURVE",
"27 78 OFFCURVE",
"26 68 CURVE SMOOTH"
);
}
);
width = 203;
}
);
leftKerningGroup = comma;
note = period;
rightKerningGroup = comma;
unicode = 002E;
},
{
glyphname = slash;
layers = (
{
layerId = "C87851D2-2817-4F36-A784-A5AE84D7BDA8";
paths = (
{
closed = 1;
nodes = (
"508 736 LINE",
"470 736 LINE SMOOTH",
"459 736 OFFCURVE",
"450 734 OFFCURVE",
"441 728 CURVE SMOOTH",
"432 722 OFFCURVE",
"425 715 OFFCURVE",
"419 704 CURVE SMOOTH",
"27 -45 LINE",
"65 -45 LINE SMOOTH",
"75 -45 OFFCURVE",
"84 -42 OFFCURVE",
"94 -36 CURVE SMOOTH",
"104 -30 OFFCURVE",
"112 -22 OFFCURVE",
"118 -10 CURVE SMOOTH"
);
}
);
width = 536;
},
{
layerId = "18B4A443-2C69-4DCB-9619-77A7DD6AC8EC";
paths = (
{
closed = 1;
nodes = (
"479 728 LINE",
"459 728 LINE SMOOTH",
"446 728 OFFCURVE",
"437 721 OFFCURVE",
"430 709 CURVE",
"27 -42 LINE",
"46 -42 LINE SMOOTH",
"55 -42 OFFCURVE",
"71 -36 OFFCURVE",
"77 -22 CURVE"
);
}
);
width = 507;
},
{
layerId = "A0CD44AA-8F44-4864-B482-F84B7650FD25";
paths = (
{
closed = 1;
nodes = (
"530 743 LINE",
"478 743 LINE SMOOTH",
"463 743 OFFCURVE",
"450 740 OFFCURVE",
"438 732 CURVE SMOOTH",
"426 724 OFFCURVE",
"416 714 OFFCURVE",
"409 700 CURVE SMOOTH",
"26 -48 LINE",
"78 -48 LINE SMOOTH",
"84 -48 OFFCURVE",
"90 -46 OFFCURVE",
"97 -44 CURVE SMOOTH",
"104 -42 OFFCURVE",
"111 -40 OFFCURVE",
"117 -36 CURVE SMOOTH",
"123 -32 OFFCURVE",
"130 -28 OFFCURVE",
"135 -22 CURVE SMOOTH",
"140 -16 OFFCURVE",
"145 -10 OFFCURVE",
"149 -2 CURVE SMOOTH"
);
}
);
width = 556;
}
);
note = slash;
unicode = 002F;
},
{
glyphname = zero;
layers = (
{
layerId = "C87851D2-2817-4F36-A784-A5AE84D7BDA8";
paths = (
{
closed = 1;
nodes = (
"561 421 OFFCURVE",
"561 475 OFFCURVE",
"553 521 CURVE SMOOTH",
"545 567 OFFCURVE",
"531 605 OFFCURVE",
"511 635 CURVE SMOOTH",
"491 665 OFFCURVE",
"467 687 OFFCURVE",
"437 702 CURVE SMOOTH",
"407 717 OFFCURVE",
"373 724 OFFCURVE",
"337 724 CURVE SMOOTH",
"300 724 OFFCURVE",
"265 717 OFFCURVE",
"232 702 CURVE SMOOTH",
"199 687 OFFCURVE",
"169 665 OFFCURVE",
"142 635 CURVE SMOOTH",
"115 605 OFFCURVE",
"92 567 OFFCURVE",
"73 521 CURVE SMOOTH",
"54 475 OFFCURVE",
"41 421 OFFCURVE",
"33 358 CURVE SMOOTH",
"25 295 OFFCURVE",
"25 241 OFFCURVE",
"33 195 CURVE SMOOTH",
"41 149 OFFCURVE",
"54 111 OFFCURVE",
"74 81 CURVE SMOOTH",
"94 51 OFFCURVE",
"118 29 OFFCURVE",
"148 14 CURVE SMOOTH",
"178 -1 OFFCURVE",
"210 -8 OFFCURVE",
"247 -8 CURVE SMOOTH",
"283 -8 OFFCURVE",
"318 -1 OFFCURVE",
"352 14 CURVE SMOOTH",
"386 29 OFFCURVE",
"416 51 OFFCURVE",
"443 81 CURVE SMOOTH",
"470 111 OFFCURVE",
"494 149 OFFCURVE",
"513 195 CURVE SMOOTH",
"532 241 OFFCURVE",
"545 295 OFFCURVE",
"553 358 CURVE SMOOTH"
);
},
{
closed = 1;
nodes = (
"453 303 OFFCURVE",
"444 257 OFFCURVE",
"430 220 CURVE SMOOTH",
"416 183 OFFCURVE",
"400 154 OFFCURVE",
"382 131 CURVE SMOOTH",
"364 108 OFFCURVE",
"344 92 OFFCURVE",
"322 82 CURVE SMOOTH",
"300 72 OFFCURVE",
"279 67 OFFCURVE",
"257 67 CURVE SMOOTH",
"235 67 OFFCURVE",
"214 72 OFFCURVE",
"195 82 CURVE SMOOTH",
"176 92 OFFCURVE",
"160 108 OFFCURVE",
"147 131 CURVE SMOOTH",
"134 154 OFFCURVE",
"127 183 OFFCURVE",
"122 220 CURVE SMOOTH",
"117 257 OFFCURVE",
"118 303 OFFCURVE",
"125 358 CURVE SMOOTH",
"132 413 OFFCURVE",
"141 459 OFFCURVE",
"155 496 CURVE SMOOTH",
"169 533 OFFCURVE",
"185 562 OFFCURVE",
"203 585 CURVE SMOOTH",
"221 608 OFFCURVE",
"241 624 OFFCURVE",
"263 634 CURVE SMOOTH",
"285 644 OFFCURVE",
"306 649 OFFCURVE",
"328 649 CURVE SMOOTH",
"350 649 OFFCURVE",
"371 644 OFFCURVE",
"390 634 CURVE SMOOTH",
"409 624 OFFCURVE",
"424 608 OFFCURVE",
"437 585 CURVE SMOOTH",
"450 562 OFFCURVE",
"458 533 OFFCURVE",
"463 496 CURVE SMOOTH",
"468 459 OFFCURVE",
"467 413 OFFCURVE",
"460 358 CURVE SMOOTH"
);
}
);
width = 588;
},
{
layerId = "18B4A443-2C69-4DCB-9619-77A7DD6AC8EC";
paths = (
{
closed = 1;
nodes = (
"579 552 OFFCURVE",
"516 716 OFFCURVE",
"344 716 CURVE SMOOTH",
"168 716 OFFCURVE",
"71 550 OFFCURVE",
"46 354 CURVE SMOOTH",
"22 163 OFFCURVE",
"76 -8 OFFCURVE",
"255 -8 CURVE SMOOTH",
"426 -8 OFFCURVE",
"527 151 OFFCURVE",
"553 354 CURVE SMOOTH"
);
},
{
closed = 1;
nodes = (
"482 179 OFFCURVE",
"404 33 OFFCURVE",
"260 33 CURVE SMOOTH",
"111 33 OFFCURVE",
"74 190 OFFCURVE",
"95 354 CURVE SMOOTH",
"116 515 OFFCURVE",
"188 676 OFFCURVE",
"339 676 CURVE SMOOTH",
"483 676 OFFCURVE",
"525 532 OFFCURVE",
"503 354 CURVE SMOOTH"
);
}
);
width = 600;
},
{
layerId = "A0CD44AA-8F44-4864-B482-F84B7650FD25";
paths = (
{
closed = 1;
nodes = (
"559 425 OFFCURVE",
"559 480 OFFCURVE",
"551 526 CURVE SMOOTH",
"543 572 OFFCURVE",
"529 611 OFFCURVE",
"509 641 CURVE SMOOTH",
"489 671 OFFCURVE",
"464 694 OFFCURVE",
"433 709 CURVE SMOOTH",
"402 724 OFFCURVE",
"368 731 OFFCURVE",
"330 731 CURVE SMOOTH",
"292 731 OFFCURVE",
"257 724 OFFCURVE",
"223 709 CURVE SMOOTH",
"189 694 OFFCURVE",
"158 671 OFFCURVE",
"131 641 CURVE SMOOTH",
"104 611 OFFCURVE",
"80 572 OFFCURVE",
"61 526 CURVE SMOOTH",
"42 480 OFFCURVE",
"29 425 OFFCURVE",
"21 362 CURVE SMOOTH",
"13 299 OFFCURVE",
"13 243 OFFCURVE",
"21 197 CURVE SMOOTH",
"29 151 OFFCURVE",
"42 112 OFFCURVE",
"62 82 CURVE SMOOTH",
"82 52 OFFCURVE",
"107 29 OFFCURVE",
"137 14 CURVE SMOOTH",
"167 -1 OFFCURVE",
"201 -8 OFFCURVE",
"239 -8 CURVE SMOOTH",
"277 -8 OFFCURVE",
"313 -1 OFFCURVE",
"347 14 CURVE SMOOTH",
"381 29 OFFCURVE",
"412 52 OFFCURVE",
"440 82 CURVE SMOOTH",
"468 112 OFFCURVE",
"491 151 OFFCURVE",
"510 197 CURVE SMOOTH",
"529 243 OFFCURVE",
"543 299 OFFCURVE",
"551 362 CURVE SMOOTH"
);
},
{
closed = 1;
nodes = (
"417 310 OFFCURVE",
"408 266 OFFCURVE",
"396 232 CURVE SMOOTH",
"384 198 OFFCURVE",
"370 169 OFFCURVE",
"355 149 CURVE SMOOTH",
"340 129 OFFCURVE",
"324 115 OFFCURVE",
"306 107 CURVE SMOOTH",
"288 99 OFFCURVE",
"270 94 OFFCURVE",
"252 94 CURVE SMOOTH",
"234 94 OFFCURVE",
"217 99 OFFCURVE",
"202 107 CURVE SMOOTH",
"187 115 OFFCURVE",
"174 130 OFFCURVE",
"164 150 CURVE SMOOTH",
"154 170 OFFCURVE",
"147 198 OFFCURVE",
"144 232 CURVE SMOOTH",
"141 266 OFFCURVE",
"142 310 OFFCURVE",
"148 362 CURVE SMOOTH",
"154 414 OFFCURVE",
"164 458 OFFCURVE",
"176 492 CURVE SMOOTH",
"188 526 OFFCURVE",
"201 554 OFFCURVE",
"216 574 CURVE SMOOTH",
"231 594 OFFCURVE",
"247 608 OFFCURVE",
"265 616 CURVE SMOOTH",
"283 624 OFFCURVE",
"300 629 OFFCURVE",
"318 629 CURVE SMOOTH",
"336 629 OFFCURVE",
"352 624 OFFCURVE",
"368 616 CURVE SMOOTH",
"384 608 OFFCURVE",
"397 594 OFFCURVE",
"407 574 CURVE SMOOTH",
"417 554 OFFCURVE",
"425 526 OFFCURVE",
"428 492 CURVE SMOOTH",
"431 458 OFFCURVE",
"429 414 OFFCURVE",
"423 362 CURVE SMOOTH"
);
}
);
width = 574;
}
);
note = zero;
unicode = 0030;
},
{
glyphname = one;
layers = (
{
layerId = "C87851D2-2817-4F36-A784-A5AE84D7BDA8";
paths = (
{
closed = 1;
nodes = (
"457 59 OFFCURVE",
"415 62 OFFCURVE",
"337 68 CURVE",
"417 718 LINE",
"345 718 LINE",
"109 534 LINE",
"132 495 LINE SMOOTH",
"136 488 OFFCURVE",
"144 484 OFFCURVE",
"155 484 CURVE SMOOTH",
"161 484 OFFCURVE",
"167 487 OFFCURVE",
"174 492 CURVE",
"315 601 LINE",
"312 586 OFFCURVE",
"310 571 OFFCURVE",
"308 556 CURVE SMOOTH",
"248 68 LINE",
"107 58 LINE",
"97 56 OFFCURVE",
"92 50 OFFCURVE",
"91 40 CURVE SMOOTH",
"90 30 LINE",
"86 0 LINE",
"470 0 LINE",
"475 40 LINE SMOOTH",
"476 50 OFFCURVE",
"472 56 OFFCURVE",
"463 58 CURVE"
);
}
);
width = 563;
},
{
layerId = "18B4A443-2C69-4DCB-9619-77A7DD6AC8EC";
paths = (
{
closed = 1;
nodes = (
"468 0 LINE",
"470 16 LINE SMOOTH",
"471 25 OFFCURVE",
"466 30 OFFCURVE",
"455 31 CURVE",
"318 38 LINE",
"400 710 LINE",
"363 710 LINE",
"137 530 LINE",
"149 510 LINE",
"154 503 OFFCURVE",
"165 502 OFFCURVE",
"173 508 CURVE SMOOTH",
"346 647 LINE",
"341 611 LINE",
"270 38 LINE",
"270 38 OFFCURVE",
"126 31 OFFCURVE",
"123 31 CURVE",
"112 30 OFFCURVE",
"106 25 OFFCURVE",
"105 16 CURVE SMOOTH",
"103 0 LINE"
);
}
);
width = 574;
},
{
layerId = "A0CD44AA-8F44-4864-B482-F84B7650FD25";
paths = (
{
closed = 1;
nodes = (
"434 84 OFFCURVE",
"398 88 OFFCURVE",
"332 93 CURVE",
"409 724 LINE",
"308 724 LINE",
"64 537 LINE",
"97 483 LINE",
"99 479 OFFCURVE",
"103 476 OFFCURVE",
"108 473 CURVE SMOOTH",
"113 470 OFFCURVE",
"119 469 OFFCURVE",
"126 469 CURVE SMOOTH",
"130 469 OFFCURVE",
"134 470 OFFCURVE",
"139 471 CURVE SMOOTH",
"144 472 OFFCURVE",
"148 475 OFFCURVE",
"153 479 CURVE SMOOTH",
"268 566 LINE",
"265 548 OFFCURVE",
"262 530 OFFCURVE",
"260 514 CURVE SMOOTH",
"208 94 LINE",
"130 88 OFFCURVE",
"88 84 OFFCURVE",
"81 83 CURVE",
"67 80 OFFCURVE",
"60 72 OFFCURVE",
"58 58 CURVE SMOOTH",
"50 0 LINE",
"247 0 LINE",
"254 0 LINE",
"450 0 LINE",
"458 58 LINE SMOOTH",
"460 72 OFFCURVE",
"453 80 OFFCURVE",
"440 83 CURVE"
);
}
);
width = 504;
}
);
note = one;
unicode = 0031;
},
{
glyphname = two;
layers = (
{
layerId = "C87851D2-2817-4F36-A784-A5AE84D7BDA8";
paths = (
{
closed = 1;
nodes = (
"405 265 LINE SMOOTH",
"466 320 OFFCURVE",
"528 375 OFFCURVE",
"564 451 CURVE SMOOTH",
"584 492 OFFCURVE",
"596 558 OFFCURVE",
"579 609 CURVE SMOOTH",
"556 682 OFFCURVE",
"491 724 OFFCURVE",
"395 724 CURVE SMOOTH",
"364 724 OFFCURVE",
"336 720 OFFCURVE",
"308 711 CURVE SMOOTH",
"220 683 OFFCURVE",
"161 615 OFFCURVE",
"136 522 CURVE",
"182 514 LINE",
"186 513 OFFCURVE",
"189 513 OFFCURVE",
"193 513 CURVE SMOOTH",
"213 513 OFFCURVE",
"222 525 OFFCURVE",
"229 541 CURVE",
"234 557 OFFCURVE",
"242 571 OFFCURVE",
"252 584 CURVE SMOOTH",
"278 619 OFFCURVE",
"321 648 OFFCURVE",
"381 648 CURVE SMOOTH",
"439 648 OFFCURVE",
"477 623 OFFCURVE",
"491 578 CURVE SMOOTH",
"502 540 OFFCURVE",
"491 493 OFFCURVE",
"478 463 CURVE SMOOTH",
"448 395 OFFCURVE",
"394 348 OFFCURVE",
"340 299 CURVE SMOOTH",
"82 68 LINE",
"71 59 OFFCURVE",
"63 47 OFFCURVE",
"61 31 CURVE SMOOTH",
"57 0 LINE",
"535 0 LINE",
"542 62 LINE SMOOTH",
"546 95 OFFCURVE",
"550 126 OFFCURVE",
"554 159 CURVE",
"506 159 LINE SMOOTH",
"496 159 OFFCURVE",
"486 152 OFFCURVE",
"483 142 CURVE",
"482 138 OFFCURVE",
"477 112 OFFCURVE",
"471 84 CURVE",
"274 84 LINE SMOOTH",
"245 84 OFFCURVE",
"217 79 OFFCURVE",
"193 73 CURVE"
);
}
);
width = 652;
},
{
layerId = "18B4A443-2C69-4DCB-9619-77A7DD6AC8EC";
paths = (
{
closed = 1;
nodes = (
"519 134 LINE SMOOTH",
"505 134 OFFCURVE",
"497 126 OFFCURVE",
"494 110 CURVE",
"481 45 LINE",
"209 45 LINE SMOOTH",
"193 45 OFFCURVE",
"159 42 OFFCURVE",
"140 37 CURVE",
"389 263 LINE SMOOTH",
"491 356 OFFCURVE",
"562 423 OFFCURVE",
"574 525 CURVE SMOOTH",
"589 644 OFFCURVE",
"515 715 OFFCURVE",
"394 715 CURVE SMOOTH",
"273 715 OFFCURVE",
"183 642 OFFCURVE",
"152 524 CURVE",
"175 520 LINE",
"187 518 OFFCURVE",
"197 522 OFFCURVE",
"203 537 CURVE",
"229 623 OFFCURVE",
"302 675 OFFCURVE",
"387 675 CURVE SMOOTH",
"478 675 OFFCURVE",
"536 621 OFFCURVE",
"525 523 CURVE SMOOTH",
"514 433 OFFCURVE",
"452 369 OFFCURVE",
"356 282 CURVE SMOOTH",
"84 38 LINE",
"80 34 OFFCURVE",
"74 26 OFFCURVE",
"72 17 CURVE",
"70 0 LINE",
"526 0 LINE",
"543 134 LINE"
);
}
);
width = 650;
},
{
layerId = "A0CD44AA-8F44-4864-B482-F84B7650FD25";
paths = (
{
closed = 1;
nodes = (
"563 108 LINE",
"572 178 LINE",
"519 178 LINE SMOOTH",
"506 178 OFFCURVE",
"497 172 OFFCURVE",
"493 160 CURVE",
"492 156 OFFCURVE",
"488 141 OFFCURVE",
"483 115 CURVE",
"324 115 LINE SMOOTH",
"310 115 OFFCURVE",
"295 113 OFFCURVE",
"279 111 CURVE",
"263 108 OFFCURVE",
"248 105 OFFCURVE",
"231 100 CURVE",
"414 267 LINE SMOOTH",
"436 287 OFFCURVE",
"457 307 OFFCURVE",
"477 326 CURVE SMOOTH",
"497 345 OFFCURVE",
"515 365 OFFCURVE",
"531 386 CURVE SMOOTH",
"547 407 OFFCURVE",
"559 428 OFFCURVE",
"570 451 CURVE SMOOTH",
"581 474 OFFCURVE",
"588 498 OFFCURVE",
"591 525 CURVE SMOOTH",
"595 556 OFFCURVE",
"593 584 OFFCURVE",
"585 609 CURVE SMOOTH",
"577 634 OFFCURVE",
"564 656 OFFCURVE",
"547 674 CURVE SMOOTH",
"530 692 OFFCURVE",
"507 706 OFFCURVE",
"481 716 CURVE SMOOTH",
"455 726 OFFCURVE",
"424 731 OFFCURVE",
"391 731 CURVE SMOOTH",
"359 731 OFFCURVE",
"329 727 OFFCURVE",
"300 718 CURVE SMOOTH",
"271 709 OFFCURVE",
"245 695 OFFCURVE",
"221 678 CURVE SMOOTH",
"197 660 OFFCURVE",
"177 639 OFFCURVE",
"159 613 CURVE SMOOTH",
"141 587 OFFCURVE",
"128 556 OFFCURVE",
"119 521 CURVE",
"183 510 LINE SMOOTH",
"189 509 OFFCURVE",
"194 508 OFFCURVE",
"199 508 CURVE SMOOTH",
"210 508 OFFCURVE",
"220 512 OFFCURVE",
"228 517 CURVE SMOOTH",
"236 522 OFFCURVE",
"243 531 OFFCURVE",
"248 544 CURVE",
"259 569 OFFCURVE",
"274 589 OFFCURVE",
"295 604 CURVE SMOOTH",
"316 619 OFFCURVE",
"341 627 OFFCURVE",
"371 627 CURVE SMOOTH",
"387 627 OFFCURVE",
"402 624 OFFCURVE",
"414 620 CURVE SMOOTH",
"426 616 OFFCURVE",
"437 609 OFFCURVE",
"445 600 CURVE SMOOTH",
"453 591 OFFCURVE",
"459 580 OFFCURVE",
"462 567 CURVE SMOOTH",
"465 554 OFFCURVE",
"466 538 OFFCURVE",
"464 521 CURVE SMOOTH",
"462 502 OFFCURVE",
"457 484 OFFCURVE",
"450 467 CURVE SMOOTH",
"443 450 OFFCURVE",
"433 433 OFFCURVE",
"421 416 CURVE SMOOTH",
"409 399 OFFCURVE",
"395 382 OFFCURVE",
"378 365 CURVE SMOOTH",
"361 348 OFFCURVE",
"343 331 OFFCURVE",
"322 312 CURVE SMOOTH",
"76 92 LINE SMOOTH",
"67 84 OFFCURVE",
"61 76 OFFCURVE",
"56 67 CURVE SMOOTH",
"51 58 OFFCURVE",
"49 49 OFFCURVE",
"48 41 CURVE SMOOTH",
"42 0 LINE",
"509 0 LINE",
"538 0 LINE",
"550 0 LINE"
);
}
);
width = 640;
}
);
note = two;
unicode = 0032;
},
{
glyphname = three;
layers = (
{
layerId = "C87851D2-2817-4F36-A784-A5AE84D7BDA8";
paths = (
{
closed = 1;
nodes = (
"345 724 OFFCURVE",
"317 720 OFFCURVE",
"289 711 CURVE SMOOTH",
"261 702 OFFCURVE",
"237 689 OFFCURVE",
"214 672 CURVE SMOOTH",
"191 655 OFFCURVE",
"171 634 OFFCURVE",
"155 609 CURVE SMOOTH",
"139 584 OFFCURVE",
"127 555 OFFCURVE",
"118 522 CURVE",
"163 514 LINE",
"169 514 LINE",
"175 514 LINE SMOOTH",
"183 514 OFFCURVE",
"190 516 OFFCURVE",
"196 520 CURVE SMOOTH",
"202 524 OFFCURVE",
"206 531 OFFCURVE",
"210 541 CURVE SMOOTH",
"216 556 OFFCURVE",
"224 571 OFFCURVE",
"234 584 CURVE SMOOTH",
"244 597 OFFCURVE",
"255 608 OFFCURVE",
"268 618 CURVE",
"281 627 OFFCURVE",
"295 635 OFFCURVE",
"311 640 CURVE SMOOTH",
"327 645 OFFCURVE",
"344 648 OFFCURVE",
"362 648 CURVE SMOOTH",
"380 648 OFFCURVE",
"396 645 OFFCURVE",
"411 640 CURVE SMOOTH",
"426 635 OFFCURVE",
"439 628 OFFCURVE",
"449 618 CURVE SMOOTH",
"459 608 OFFCURVE",
"466 595 OFFCURVE",
"471 580 CURVE SMOOTH",
"476 565 OFFCURVE",
"477 547 OFFCURVE",
"474 526 CURVE",
"472 507 OFFCURVE",
"467 490 OFFCURVE",
"459 475 CURVE SMOOTH",
"451 460 OFFCURVE",
"439 447 OFFCURVE",
"424 436 CURVE SMOOTH",
"409 425 OFFCURVE",
"390 416 OFFCURVE",
"368 410 CURVE SMOOTH",
"346 404 OFFCURVE",
"319 400 OFFCURVE",
"289 400 CURVE",
"281 335 LINE",
"318 335 OFFCURVE",
"349 332 OFFCURVE",
"372 325 CURVE SMOOTH",
"395 318 OFFCURVE",
"412 310 OFFCURVE",
"424 298 CURVE SMOOTH",
"436 286 OFFCURVE",
"444 272 OFFCURVE",
"447 256 CURVE SMOOTH",
"450 240 OFFCURVE",
"450 222 OFFCURVE",
"448 203 CURVE SMOOTH",
"446 187 OFFCURVE",
"441 172 OFFCURVE",
"433 156 CURVE SMOOTH",
"425 140 OFFCURVE",
"414 125 OFFCURVE",
"400 112 CURVE SMOOTH",
"386 99 OFFCURVE",
"369 88 OFFCURVE",
"349 80 CURVE SMOOTH",
"329 72 OFFCURVE",
"306 68 OFFCURVE",
"281 68 CURVE SMOOTH",
"256 68 OFFCURVE",
"236 72 OFFCURVE",
"220 79 CURVE SMOOTH",
"204 86 OFFCURVE",
"191 95 OFFCURVE",
"181 106 CURVE SMOOTH",
"171 117 OFFCURVE",
"163 128 OFFCURVE",
"158 140 CURVE SMOOTH",
"153 152 OFFCURVE",
"148 163 OFFCURVE",
"145 173 CURVE",
"145 175 OFFCURVE",
"144 176 OFFCURVE",
"144 178 CURVE SMOOTH",
"144 179 OFFCURVE",
"143 181 OFFCURVE",
"142 182 CURVE",
"140 188 OFFCURVE",
"137 192 OFFCURVE",
"132 195 CURVE SMOOTH",
"127 198 OFFCURVE",
"122 199 OFFCURVE",
"115 199 CURVE SMOOTH",
"108 199 OFFCURVE",
"100 198 OFFCURVE",
"93 195 CURVE SMOOTH",
"54 179 LINE",
"59 152 OFFCURVE",
"66 128 OFFCURVE",
"75 105 CURVE SMOOTH",
"84 82 OFFCURVE",
"97 62 OFFCURVE",
"114 45 CURVE SMOOTH",
"131 28 OFFCURVE",
"151 16 OFFCURVE",
"177 6 CURVE SMOOTH",
"203 -4 OFFCURVE",
"235 -8 OFFCURVE",
"273 -8 CURVE SMOOTH",
"306 -8 OFFCURVE",
"338 -3 OFFCURVE",
"368 7 CURVE SMOOTH",
"398 17 OFFCURVE",
"425 31 OFFCURVE",
"449 49 CURVE SMOOTH",
"473 67 OFFCURVE",
"492 90 OFFCURVE",
"508 116 CURVE SMOOTH",
"524 142 OFFCURVE",
"534 172 OFFCURVE",
"538 205 CURVE SMOOTH",
"543 249 OFFCURVE",
"536 285 OFFCURVE",
"516 314 CURVE SMOOTH",
"496 343 OFFCURVE",
"463 364 OFFCURVE",
"418 376 CURVE",
"438 382 OFFCURVE",
"457 390 OFFCURVE",
"473 399 CURVE SMOOTH",
"489 408 OFFCURVE",
"504 419 OFFCURVE",
"516 433 CURVE SMOOTH",
"528 447 OFFCURVE",
"539 462 OFFCURVE",
"547 480 CURVE SMOOTH",
"555 498 OFFCURVE",
"560 518 OFFCURVE",
"563 541 CURVE SMOOTH",
"566 569 OFFCURVE",
"565 593 OFFCURVE",
"557 616 CURVE SMOOTH",
"549 639 OFFCURVE",
"538 658 OFFCURVE",
"521 674 CURVE SMOOTH",
"504 690 OFFCURVE",
"484 702 OFFCURVE",
"459 711 CURVE SMOOTH",
"434 720 OFFCURVE",
"406 724 OFFCURVE",
"376 724 CURVE SMOOTH"
);
}
);
width = 634;
},
{
layerId = "18B4A443-2C69-4DCB-9619-77A7DD6AC8EC";
paths = (
{
closed = 1;
nodes = (
"271 716 OFFCURVE",
"178 646 OFFCURVE",
"146 524 CURVE",
"170 520 LINE",
"183 518 OFFCURVE",
"192 525 OFFCURVE",
"196 538 CURVE SMOOTH",
"224 621 OFFCURVE",
"295 675 OFFCURVE",
"381 675 CURVE SMOOTH",
"474 675 OFFCURVE",
"528 619 OFFCURVE",
"517 529 CURVE SMOOTH",
"503 431 OFFCURVE",
"419 383 OFFCURVE",
"311 380 CURVE",
"307 346 LINE",
"424 346 OFFCURVE",
"508 306 OFFCURVE",
"493 193 CURVE SMOOTH",
"483 105 OFFCURVE",
"393 32 OFFCURVE",
"293 32 CURVE SMOOTH",
"198 32 OFFCURVE",
"148 77 OFFCURVE",
"128 171 CURVE SMOOTH",
"125 184 OFFCURVE",
"109 185 OFFCURVE",
"99 181 CURVE",
"80 173 LINE",
"96 52 OFFCURVE",
"157 -8 OFFCURVE",
"288 -8 CURVE SMOOTH",
"414 -8 OFFCURVE",
"525 75 OFFCURVE",
"541 194 CURVE SMOOTH",
"553 287 OFFCURVE",
"505 349 OFFCURVE",
"404 369 CURVE",
"487 389 OFFCURVE",
"554 449 OFFCURVE",
"565 537 CURVE SMOOTH",
"579 642 OFFCURVE",
"505 716 OFFCURVE",
"388 716 CURVE SMOOTH"
);
}
);
width = 657;
},
{
layerId = "A0CD44AA-8F44-4864-B482-F84B7650FD25";
paths = (
{
closed = 1;
nodes = (
"326 731 OFFCURVE",
"295 727 OFFCURVE",
"266 718 CURVE SMOOTH",
"237 709 OFFCURVE",
"211 696 OFFCURVE",
"187 678 CURVE SMOOTH",
"163 660 OFFCURVE",
"144 639 OFFCURVE",
"126 613 CURVE SMOOTH",
"108 587 OFFCURVE",
"95 557 OFFCURVE",
"86 522 CURVE",
"149 510 LINE SMOOTH",
"155 509 OFFCURVE",
"161 508 OFFCURVE",
"166 508 CURVE SMOOTH",
"177 508 OFFCURVE",
"186 511 OFFCURVE",
"194 517 CURVE SMOOTH",
"202 523 OFFCURVE",
"208 531 OFFCURVE",
"214 544 CURVE SMOOTH",
"225 568 OFFCURVE",
"241 588 OFFCURVE",
"262 604 CURVE SMOOTH",
"283 620 OFFCURVE",
"309 627 OFFCURVE",
"338 627 CURVE SMOOTH",
"370 627 OFFCURVE",
"394 619 OFFCURVE",
"411 601 CURVE SMOOTH",
"428 583 OFFCURVE",
"434 557 OFFCURVE",
"430 523 CURVE SMOOTH",
"428 507 OFFCURVE",
"423 492 OFFCURVE",
"417 479 CURVE SMOOTH",
"411 466 OFFCURVE",
"401 455 OFFCURVE",
"388 445 CURVE",
"375 436 OFFCURVE",
"359 427 OFFCURVE",
"338 422 CURVE SMOOTH",
"317 417 OFFCURVE",
"291 414 OFFCURVE",
"261 414 CURVE",
"250 326 LINE",
"287 326 OFFCURVE",
"316 324 OFFCURVE",
"337 318 CURVE SMOOTH",
"358 312 OFFCURVE",
"375 304 OFFCURVE",
"385 294 CURVE SMOOTH",
"395 284 OFFCURVE",
"401 272 OFFCURVE",
"403 258 CURVE SMOOTH",
"405 244 OFFCURVE",
"405 227 OFFCURVE",
"403 210 CURVE SMOOTH",
"401 196 OFFCURVE",
"397 184 OFFCURVE",
"390 170 CURVE SMOOTH",
"383 156 OFFCURVE",
"374 144 OFFCURVE",
"362 133 CURVE SMOOTH",
"350 122 OFFCURVE",
"337 113 OFFCURVE",
"320 106 CURVE SMOOTH",
"303 99 OFFCURVE",
"284 96 OFFCURVE",
"263 96 CURVE SMOOTH",
"244 96 OFFCURVE",
"229 98 OFFCURVE",
"216 104 CURVE SMOOTH",
"203 110 OFFCURVE",
"192 117 OFFCURVE",
"183 126 CURVE SMOOTH",
"174 135 OFFCURVE",
"167 145 OFFCURVE",
"161 156 CURVE SMOOTH",
"155 167 OFFCURVE",
"151 178 OFFCURVE",
"146 190 CURVE SMOOTH",
"143 197 OFFCURVE",
"138 202 OFFCURVE",
"132 206 CURVE SMOOTH",
"126 210 OFFCURVE",
"118 212 OFFCURVE",
"109 212 CURVE SMOOTH",
"99 212 OFFCURVE",
"90 210 OFFCURVE",
"80 206 CURVE SMOOTH",
"23 184 LINE",
"29 153 OFFCURVE",
"38 126 OFFCURVE",
"49 102 CURVE SMOOTH",
"60 78 OFFCURVE",
"75 58 OFFCURVE",
"93 42 CURVE SMOOTH",
"111 26 OFFCURVE",
"133 12 OFFCURVE",
"159 4 CURVE SMOOTH",
"185 -4 OFFCURVE",
"216 -8 OFFCURVE",
"252 -8 CURVE SMOOTH",
"285 -8 OFFCURVE",
"318 -4 OFFCURVE",
"349 6 CURVE SMOOTH",
"380 16 OFFCURVE",
"408 30 OFFCURVE",
"433 49 CURVE SMOOTH",
"458 68 OFFCURVE",
"478 91 OFFCURVE",
"495 119 CURVE SMOOTH",
"512 147 OFFCURVE",
"523 178 OFFCURVE",
"527 214 CURVE SMOOTH",
"532 256 OFFCURVE",
"526 292 OFFCURVE",
"508 320 CURVE SMOOTH",
"490 348 OFFCURVE",
"460 368 OFFCURVE",
"418 382 CURVE",
"437 388 OFFCURVE",
"454 396 OFFCURVE",
"469 405 CURVE SMOOTH",
"484 414 OFFCURVE",
"498 425 OFFCURVE",
"509 438 CURVE SMOOTH",
"520 451 OFFCURVE",
"531 466 OFFCURVE",
"538 484 CURVE SMOOTH",
"545 502 OFFCURVE",
"550 521 OFFCURVE",
"553 544 CURVE SMOOTH",
"556 570 OFFCURVE",
"554 595 OFFCURVE",
"547 618 CURVE SMOOTH",
"540 641 OFFCURVE",
"527 660 OFFCURVE",
"510 677 CURVE SMOOTH",
"493 694 OFFCURVE",
"472 707 OFFCURVE",
"446 717 CURVE SMOOTH",
"420 727 OFFCURVE",
"391 731 OFFCURVE",
"358 731 CURVE SMOOTH"
);
}
);
width = 589;
}
);
note = three;
unicode = 0033;
},
{
glyphname = four;
layers = (
{
layerId = "C87851D2-2817-4F36-A784-A5AE84D7BDA8";
paths = (
{
closed = 1;
nodes = (
"456 258 LINE",
"512 716 LINE",
"429 716 LINE",
"24 254 LINE",
"27 208 LINE",
"28 202 OFFCURVE",
"31 198 OFFCURVE",
"35 194 CURVE SMOOTH",
"39 190 OFFCURVE",
"44 188 OFFCURVE",
"51 188 CURVE SMOOTH",
"369 188 LINE",
"346 0 LINE",
"424 0 LINE",
"447 188 LINE",
"536 188 LINE SMOOTH",
"543 188 OFFCURVE",
"548 190 OFFCURVE",
"552 194 CURVE SMOOTH",
"556 198 OFFCURVE",
"557 203 OFFCURVE",
"558 208 CURVE",
"565 258 LINE"
);
},
{
closed = 1;
nodes = (
"378 258 LINE",
"121 258 LINE",
"425 613 LINE",
"422 602 OFFCURVE",
"420 592 OFFCURVE",
"418 582 CURVE SMOOTH",
"416 572 OFFCURVE",
"415 563 OFFCURVE",
"414 554 CURVE SMOOTH"
);
}
);
width = 600;
},
{
layerId = "18B4A443-2C69-4DCB-9619-77A7DD6AC8EC";
paths = (
{
closed = 1;
nodes = (
"431 241 LINE",
"488 708 LINE",
"446 708 LINE",
"33 238 LINE",
"34 215 LINE",
"35 206 OFFCURVE",
"42 203 OFFCURVE",
"50 203 CURVE SMOOTH",
"383 203 LINE",
"358 0 LINE",
"401 0 LINE",
"426 203 LINE",
"542 203 LINE SMOOTH",
"551 203 OFFCURVE",
"556 207 OFFCURVE",
"557 215 CURVE",
"560 241 LINE"
);
},
{
closed = 1;
nodes = (
"433 612 LINE",
"388 241 LINE",
"85 241 LINE",
"440 649 LINE"
);
}
);
width = 603;
},
{
layerId = "A0CD44AA-8F44-4864-B482-F84B7650FD25";
paths = (
{
closed = 1;
nodes = (
"468 272 LINE",
"524 724 LINE",
"407 724 LINE",
"8 266 LINE",
"13 204 LINE",
"14 196 OFFCURVE",
"16 189 OFFCURVE",
"22 184 CURVE SMOOTH",
"28 179 OFFCURVE",
"36 176 OFFCURVE",
"44 176 CURVE SMOOTH",
"349 176 LINE",
"327 0 LINE",
"435 0 LINE",
"457 176 LINE",
"522 176 LINE SMOOTH",
"530 176 OFFCURVE",
"537 179 OFFCURVE",
"542 184 CURVE SMOOTH",
"547 189 OFFCURVE",
"550 194 OFFCURVE",
"551 201 CURVE SMOOTH",
"559 272 LINE"
);
},
{
closed = 1;
nodes = (
"360 272 LINE",
"140 272 LINE",
"403 582 LINE",
"400 569 OFFCURVE",
"397 556 OFFCURVE",
"395 544 CURVE SMOOTH",
"393 532 OFFCURVE",
"390 520 OFFCURVE",
"389 509 CURVE SMOOTH"
);
}
);
width = 573;
}
);
note = four;
unicode = 0034;
},
{
glyphname = five;
layers = (
{
layerId = "C87851D2-2817-4F36-A784-A5AE84D7BDA8";
paths = (
{
closed = 1;
nodes = (
"578 716 LINE",
"238 716 LINE",
"139 382 LINE",
"193 365 LINE",
"214 372 OFFCURVE",
"235 377 OFFCURVE",
"255 380 CURVE SMOOTH",
"275 383 OFFCURVE",
"293 384 OFFCURVE",
"311 384 CURVE SMOOTH",
"337 384 OFFCURVE",
"360 381 OFFCURVE",
"379 374 CURVE SMOOTH",
"398 367 OFFCURVE",
"413 357 OFFCURVE",
"425 344 CURVE SMOOTH",
"437 331 OFFCURVE",
"445 316 OFFCURVE",
"449 298 CURVE SMOOTH",
"453 280 OFFCURVE",
"454 260 OFFCURVE",
"451 238 CURVE SMOOTH",
"448 212 OFFCURVE",
"441 189 OFFCURVE",
"431 168 CURVE SMOOTH",
"421 147 OFFCURVE",
"408 130 OFFCURVE",
"392 115 CURVE SMOOTH",
"376 100 OFFCURVE",
"357 88 OFFCURVE",
"336 80 CURVE SMOOTH",
"315 72 OFFCURVE",
"292 68 OFFCURVE",
"267 68 CURVE SMOOTH",
"245 68 OFFCURVE",
"226 71 OFFCURVE",
"210 76 CURVE SMOOTH",
"194 81 OFFCURVE",
"181 88 OFFCURVE",
"170 94 CURVE SMOOTH",
"159 100 OFFCURVE",
"150 106 OFFCURVE",
"142 111 CURVE SMOOTH",
"134 116 OFFCURVE",
"126 119 OFFCURVE",
"120 119 CURVE SMOOTH",
"110 119 OFFCURVE",
"102 115 OFFCURVE",
"95 106 CURVE",
"63 68 LINE",
"73 58 OFFCURVE",
"84 48 OFFCURVE",
"97 39 CURVE SMOOTH",
"110 30 OFFCURVE",
"125 22 OFFCURVE",
"141 15 CURVE SMOOTH",
"157 8 OFFCURVE",
"174 2 OFFCURVE",
"193 -2 CURVE SMOOTH",
"212 -6 OFFCURVE",
"232 -8 OFFCURVE",
"253 -8 CURVE SMOOTH",
"289 -8 OFFCURVE",
"323 -2 OFFCURVE",
"356 10 CURVE SMOOTH",
"389 22 OFFCURVE",
"418 38 OFFCURVE",
"444 60 CURVE SMOOTH",
"470 82 OFFCURVE",
"492 108 OFFCURVE",
"509 139 CURVE SMOOTH",
"526 170 OFFCURVE",
"536 204 OFFCURVE",
"541 242 CURVE SMOOTH",
"545 273 OFFCURVE",
"544 302 OFFCURVE",
"537 328 CURVE SMOOTH",
"530 354 OFFCURVE",
"519 377 OFFCURVE",
"502 396 CURVE SMOOTH",
"485 415 OFFCURVE",
"463 431 OFFCURVE",
"436 442 CURVE SMOOTH",
"409 453 OFFCURVE",
"376 458 OFFCURVE",
"339 458 CURVE SMOOTH",
"307 458 OFFCURVE",
"272 454 OFFCURVE",
"234 446 CURVE",
"290 634 LINE",
"515 634 LINE SMOOTH",
"534 634 OFFCURVE",
"548 638 OFFCURVE",
"557 646 CURVE SMOOTH",
"566 654 OFFCURVE",
"571 665 OFFCURVE",
"573 678 CURVE SMOOTH"
);
}
);
width = 648;
},
{
layerId = "18B4A443-2C69-4DCB-9619-77A7DD6AC8EC";
paths = (
{
closed = 1;
nodes = (
"570 708 LINE",
"252 708 LINE",
"158 394 LINE",
"187 384 LINE",
"226 395 OFFCURVE",
"281 404 OFFCURVE",
"318 404 CURVE SMOOTH",
"433 404 OFFCURVE",
"495 342 OFFCURVE",
"482 230 CURVE SMOOTH",
"469 116 OFFCURVE",
"383 34 OFFCURVE",
"263 34 CURVE SMOOTH",
"219 34 OFFCURVE",
"169 50 OFFCURVE",
"130 74 CURVE SMOOTH",
"116 83 OFFCURVE",
"107 86 OFFCURVE",
"97 74 CURVE",
"80 55 LINE",
"123 17 OFFCURVE",
"189 -8 OFFCURVE",
"256 -8 CURVE SMOOTH",
"400 -8 OFFCURVE",
"510 90 OFFCURVE",
"530 232 CURVE SMOOTH",
"547 361 OFFCURVE",
"472 444 OFFCURVE",
"332 444 CURVE SMOOTH",
"301 444 OFFCURVE",
"245 437 OFFCURVE",
"209 428 CURVE",
"280 664 LINE",
"536 664 LINE SMOOTH",
"550 664 OFFCURVE",
"564 668 OFFCURVE",
"567 687 CURVE SMOOTH"
);
}
);
width = 661;
},
{
layerId = "A0CD44AA-8F44-4864-B482-F84B7650FD25";
paths = (
{
closed = 1;
nodes = (
"573 723 LINE",
"216 723 LINE",
"113 372 LINE",
"188 350 LINE",
"225 363 OFFCURVE",
"260 369 OFFCURVE",
"295 369 CURVE SMOOTH",
"339 369 OFFCURVE",
"372 358 OFFCURVE",
"392 336 CURVE SMOOTH",
"412 314 OFFCURVE",
"420 283 OFFCURVE",
"415 244 CURVE SMOOTH",
"412 223 OFFCURVE",
"407 202 OFFCURVE",
"399 184 CURVE SMOOTH",
"391 166 OFFCURVE",
"380 150 OFFCURVE",
"367 137 CURVE SMOOTH",
"354 124 OFFCURVE",
"338 113 OFFCURVE",
"320 106 CURVE SMOOTH",
"302 99 OFFCURVE",
"282 96 OFFCURVE",
"259 96 CURVE SMOOTH",
"238 96 OFFCURVE",
"219 99 OFFCURVE",
"205 104 CURVE SMOOTH",
"191 109 OFFCURVE",
"179 115 OFFCURVE",
"168 121 CURVE SMOOTH",
"157 127 OFFCURVE",
"148 134 OFFCURVE",
"140 139 CURVE SMOOTH",
"132 144 OFFCURVE",
"124 147 OFFCURVE",
"116 147 CURVE SMOOTH",
"103 147 OFFCURVE",
"91 141 OFFCURVE",
"82 130 CURVE SMOOTH",
"37 77 LINE",
"48 66 OFFCURVE",
"60 55 OFFCURVE",
"74 45 CURVE SMOOTH",
"88 35 OFFCURVE",
"103 26 OFFCURVE",
"120 18 CURVE SMOOTH",
"137 10 OFFCURVE",
"155 4 OFFCURVE",
"175 -1 CURVE SMOOTH",
"195 -6 OFFCURVE",
"216 -8 OFFCURVE",
"239 -8 CURVE SMOOTH",
"278 -8 OFFCURVE",
"315 -1 OFFCURVE",
"349 11 CURVE SMOOTH",
"383 23 OFFCURVE",
"413 41 OFFCURVE",
"440 63 CURVE SMOOTH",
"467 85 OFFCURVE",
"489 112 OFFCURVE",
"506 144 CURVE SMOOTH",
"523 176 OFFCURVE",
"535 211 OFFCURVE",
"540 249 CURVE SMOOTH",
"544 280 OFFCURVE",
"542 309 OFFCURVE",
"535 336 CURVE SMOOTH",
"528 363 OFFCURVE",
"516 386 OFFCURVE",
"499 406 CURVE SMOOTH",
"482 426 OFFCURVE",
"459 442 OFFCURVE",
"432 453 CURVE SMOOTH",
"405 464 OFFCURVE",
"372 470 OFFCURVE",
"334 470 CURVE SMOOTH",
"307 470 OFFCURVE",
"277 467 OFFCURVE",
"244 460 CURVE",
"288 611 LINE",
"487 611 LINE SMOOTH",
"513 611 OFFCURVE",
"532 617 OFFCURVE",
"545 628 CURVE SMOOTH",
"558 639 OFFCURVE",
"565 652 OFFCURVE",
"567 670 CURVE SMOOTH"
);
}
);
width = 614;
}
);
note = five;
unicode = 0035;
},
{
glyphname = six;
layers = (
{
layerId = "C87851D2-2817-4F36-A784-A5AE84D7BDA8";
paths = (
{
closed = 1;
nodes = (
"319 439 OFFCURVE",
"296 435 OFFCURVE",
"275 429 CURVE SMOOTH",
"254 423 OFFCURVE",
"233 414 OFFCURVE",
"215 402 CURVE",
"502 716 LINE",
"423 716 LINE SMOOTH",
"412 716 OFFCURVE",
"403 714 OFFCURVE",
"394 710 CURVE SMOOTH",
"385 706 OFFCURVE",
"377 701 OFFCURVE",
"372 695 CURVE SMOOTH",
"161 450 LINE SMOOTH",
"126 409 OFFCURVE",
"98 371 OFFCURVE",
"80 336 CURVE SMOOTH",
"62 301 OFFCURVE",
"51 267 OFFCURVE",
"47 236 CURVE SMOOTH",
"42 199 OFFCURVE",
"44 165 OFFCURVE",
"51 135 CURVE SMOOTH",
"58 105 OFFCURVE",
"72 79 OFFCURVE",
"90 58 CURVE SMOOTH",
"108 37 OFFCURVE",
"130 21 OFFCURVE",
"158 9 CURVE SMOOTH",
"186 -3 OFFCURVE",
"218 -8 OFFCURVE",
"254 -8 CURVE SMOOTH",
"290 -8 OFFCURVE",
"324 -2 OFFCURVE",
"356 10 CURVE SMOOTH",
"388 22 OFFCURVE",
"416 39 OFFCURVE",
"440 60 CURVE SMOOTH",
"464 81 OFFCURVE",
"484 106 OFFCURVE",
"499 134 CURVE SMOOTH",
"514 162 OFFCURVE",
"525 193 OFFCURVE",
"529 226 CURVE SMOOTH",
"533 260 OFFCURVE",
"531 290 OFFCURVE",
"523 316 CURVE SMOOTH",
"515 342 OFFCURVE",
"502 365 OFFCURVE",
"485 383 CURVE SMOOTH",
"468 401 OFFCURVE",
"447 415 OFFCURVE",
"423 425 CURVE SMOOTH",
"399 435 OFFCURVE",
"372 439 OFFCURVE",
"343 439 CURVE SMOOTH"
);
},
{
closed = 1;
nodes = (
"133 241 OFFCURVE",
"140 260 OFFCURVE",
"149 278 CURVE SMOOTH",
"158 296 OFFCURVE",
"171 312 OFFCURVE",
"186 326 CURVE SMOOTH",
"201 340 OFFCURVE",
"219 351 OFFCURVE",
"239 359 CURVE SMOOTH",
"259 367 OFFCURVE",
"282 371 OFFCURVE",
"306 371 CURVE SMOOTH",
"328 371 OFFCURVE",
"348 368 OFFCURVE",
"366 361 CURVE SMOOTH",
"384 354 OFFCURVE",
"398 343 OFFCURVE",
"410 330 CURVE SMOOTH",
"422 317 OFFCURVE",
"430 301 OFFCURVE",
"435 282 CURVE SMOOTH",
"440 263 OFFCURVE",
"441 242 OFFCURVE",
"438 219 CURVE SMOOTH",
"435 197 OFFCURVE",
"430 177 OFFCURVE",
"420 158 CURVE SMOOTH",
"410 139 OFFCURVE",
"398 124 OFFCURVE",
"382 110 CURVE SMOOTH",
"366 96 OFFCURVE",
"348 86 OFFCURVE",
"328 78 CURVE SMOOTH",
"308 70 OFFCURVE",
"286 66 OFFCURVE",
"262 66 CURVE SMOOTH",
"238 66 OFFCURVE",
"218 69 OFFCURVE",
"200 77 CURVE SMOOTH",
"182 85 OFFCURVE",
"168 95 OFFCURVE",
"157 109 CURVE SMOOTH",
"146 123 OFFCURVE",
"137 139 OFFCURVE",
"133 158 CURVE SMOOTH",
"129 177 OFFCURVE",
"128 198 OFFCURVE",
"131 221 CURVE SMOOTH"
);
}
);
width = 571;
},
{
layerId = "18B4A443-2C69-4DCB-9619-77A7DD6AC8EC";
paths = (
{
closed = 1;
nodes = (
"282 423 OFFCURVE",
"226 400 OFFCURVE",
"179 358 CURVE",
"189 373 OFFCURVE",
"205 391 OFFCURVE",
"240 432 CURVE SMOOTH",
"485 708 LINE",
"443 708 LINE SMOOTH",
"432 708 OFFCURVE",
"423 704 OFFCURVE",
"416 696 CURVE SMOOTH",
"191 436 LINE SMOOTH",
"135 371 OFFCURVE",
"82 291 OFFCURVE",
"75 225 CURVE SMOOTH",
"59 82 OFFCURVE",
"131 -8 OFFCURVE",
"268 -8 CURVE SMOOTH",
"405 -8 OFFCURVE",
"514 83 OFFCURVE",
"529 213 CURVE SMOOTH",
"545 337 OFFCURVE",
"471 423 OFFCURVE",
"345 423 CURVE SMOOTH"
);
},
{
closed = 1;
nodes = (
"134 314 OFFCURVE",
"225 386 OFFCURVE",
"328 386 CURVE SMOOTH",
"434 386 OFFCURVE",
"493 316 OFFCURVE",
"481 210 CURVE SMOOTH",
"469 107 OFFCURVE",
"386 32 OFFCURVE",
"273 32 CURVE SMOOTH",
"164 32 OFFCURVE",
"108 107 OFFCURVE",
"120 214 CURVE SMOOTH"
);
}
);
width = 597;
},
{
layerId = "A0CD44AA-8F44-4864-B482-F84B7650FD25";
paths = (
{
closed = 1;
nodes = (
"318 452 OFFCURVE",
"301 450 OFFCURVE",
"284 446 CURVE SMOOTH",
"267 442 OFFCURVE",
"252 436 OFFCURVE",
"237 429 CURVE",
"242 434 OFFCURVE",
"246 439 OFFCURVE",
"251 444 CURVE SMOOTH",
"256 449 OFFCURVE",
"261 454 OFFCURVE",
"266 460 CURVE",
"513 723 LINE",
"403 723 LINE SMOOTH",
"388 723 OFFCURVE",
"374 720 OFFCURVE",
"362 714 CURVE SMOOTH",
"350 708 OFFCURVE",
"340 702 OFFCURVE",
"333 694 CURVE SMOOTH",
"132 462 LINE SMOOTH",
"98 423 OFFCURVE",
"72 387 OFFCURVE",
"54 351 CURVE SMOOTH",
"36 315 OFFCURVE",
"25 280 OFFCURVE",
"21 246 CURVE SMOOTH",
"16 208 OFFCURVE",
"17 173 OFFCURVE",
"25 142 CURVE SMOOTH",
"33 111 OFFCURVE",
"46 84 OFFCURVE",
"65 62 CURVE SMOOTH",
"84 40 OFFCURVE",
"108 22 OFFCURVE",
"137 10 CURVE SMOOTH",
"166 -2 OFFCURVE",
"200 -8 OFFCURVE",
"239 -8 CURVE SMOOTH",
"277 -8 OFFCURVE",
"313 -2 OFFCURVE",
"346 11 CURVE SMOOTH",
"379 24 OFFCURVE",
"408 41 OFFCURVE",
"433 63 CURVE SMOOTH",
"458 85 OFFCURVE",
"478 110 OFFCURVE",
"494 140 CURVE SMOOTH",
"510 170 OFFCURVE",
"520 201 OFFCURVE",
"524 235 CURVE SMOOTH",
"528 271 OFFCURVE",
"527 303 OFFCURVE",
"518 330 CURVE SMOOTH",
"509 357 OFFCURVE",
"496 379 OFFCURVE",
"479 397 CURVE SMOOTH",
"462 415 OFFCURVE",
"440 429 OFFCURVE",
"415 438 CURVE SMOOTH",
"390 447 OFFCURVE",
"364 452 OFFCURVE",
"337 452 CURVE SMOOTH"
);
},
{
closed = 1;
nodes = (
"139 246 OFFCURVE",
"144 263 OFFCURVE",
"152 279 CURVE SMOOTH",
"160 295 OFFCURVE",
"171 309 OFFCURVE",
"184 321 CURVE SMOOTH",
"197 333 OFFCURVE",
"212 342 OFFCURVE",
"229 349 CURVE SMOOTH",
"246 356 OFFCURVE",
"264 359 OFFCURVE",
"284 359 CURVE SMOOTH",
"304 359 OFFCURVE",
"320 356 OFFCURVE",
"336 350 CURVE SMOOTH",
"352 344 OFFCURVE",
"365 336 OFFCURVE",
"375 324 CURVE SMOOTH",
"385 312 OFFCURVE",
"393 298 OFFCURVE",
"397 282 CURVE SMOOTH",
"401 266 OFFCURVE",
"403 247 OFFCURVE",
"400 226 CURVE",
"398 207 OFFCURVE",
"392 189 OFFCURVE",
"383 173 CURVE SMOOTH",
"374 157 OFFCURVE",
"363 143 OFFCURVE",
"350 131 CURVE SMOOTH",
"337 119 OFFCURVE",
"321 110 OFFCURVE",
"304 103 CURVE SMOOTH",
"287 96 OFFCURVE",
"269 93 OFFCURVE",
"249 93 CURVE SMOOTH",
"228 93 OFFCURVE",
"210 97 OFFCURVE",
"195 103 CURVE SMOOTH",
"180 109 OFFCURVE",
"167 118 OFFCURVE",
"158 130 CURVE SMOOTH",
"149 142 OFFCURVE",
"141 156 OFFCURVE",
"138 172 CURVE SMOOTH",
"135 188 OFFCURVE",
"135 207 OFFCURVE",
"137 227 CURVE SMOOTH"
);
}
);
width = 542;
}
);
note = six;
unicode = 0036;
},
{
glyphname = seven;
layers = (
{
layerId = "C87851D2-2817-4F36-A784-A5AE84D7BDA8";
paths = (
{
closed = 1;
nodes = (
"85 716 LINE",
"64 542 LINE",
"113 542 LINE SMOOTH",
"124 542 OFFCURVE",
"131 548 OFFCURVE",
"135 559 CURVE",
"137 563 OFFCURVE",
"142 588 OFFCURVE",
"151 634 CURVE",
"471 634 LINE",
"460 623 OFFCURVE",
"450 609 OFFCURVE",
"438 591 CURVE SMOOTH",
"64 0 LINE",
"128 0 LINE SMOOTH",
"150 0 OFFCURVE",
"167 11 OFFCURVE",
"180 32 CURVE SMOOTH",
"550 630 LINE SMOOTH",
"559 644 OFFCURVE",
"566 659 OFFCURVE",
"568 676 CURVE SMOOTH",
"572 716 LINE"
);
}
);
width = 623;
},
{
layerId = "18B4A443-2C69-4DCB-9619-77A7DD6AC8EC";
paths = (
{
closed = 1;
nodes = (
"101 707 LINE",
"84 573 LINE",
"108 573 LINE SMOOTH",
"122 573 OFFCURVE",
"130 581 OFFCURVE",
"133 597 CURVE",
"144 664 LINE",
"516 664 LINE",
"498 640 LINE",
"93 0 LINE",
"125 0 LINE SMOOTH",
"136 0 OFFCURVE",
"147 4 OFFCURVE",
"156 18 CURVE SMOOTH",
"559 661 LINE SMOOTH",
"564 669 OFFCURVE",
"567 679 OFFCURVE",
"568 686 CURVE SMOOTH",
"571 708 LINE"
);
}
);
width = 615;
},
{
layerId = "A0CD44AA-8F44-4864-B482-F84B7650FD25";
paths = (
{
closed = 1;
nodes = (
"65 723 LINE",
"55 639 LINE",
"55 638 LINE",
"55 637 LINE",
"42 530 LINE",
"95 530 LINE SMOOTH",
"108 530 OFFCURVE",
"116 536 OFFCURVE",
"120 548 CURVE SMOOTH",
"123 558 OFFCURVE",
"128 579 OFFCURVE",
"135 611 CURVE",
"426 611 LINE",
"410 595 OFFCURVE",
"394 575 OFFCURVE",
"380 552 CURVE SMOOTH",
"32 0 LINE",
"122 0 LINE SMOOTH",
"140 0 OFFCURVE",
"154 4 OFFCURVE",
"165 12 CURVE SMOOTH",
"176 20 OFFCURVE",
"186 30 OFFCURVE",
"193 42 CURVE SMOOTH",
"535 606 LINE SMOOTH",
"539 613 OFFCURVE",
"544 621 OFFCURVE",
"549 631 CURVE SMOOTH",
"554 641 OFFCURVE",
"557 654 OFFCURVE",
"559 670 CURVE SMOOTH",
"565 723 LINE"
);
}
);
width = 584;
}
);
note = seven;
unicode = 0037;
},
{
glyphname = eight;
layers = (
{
layerId = "C87851D2-2817-4F36-A784-A5AE84D7BDA8";
paths = (
{
closed = 1;
nodes = (
"305 -8 OFFCURVE",
"337 -4 OFFCURVE",
"368 6 CURVE SMOOTH",
"399 16 OFFCURVE",
"427 29 OFFCURVE",
"450 47 CURVE SMOOTH",
"473 65 OFFCURVE",
"492 86 OFFCURVE",
"507 111 CURVE SMOOTH",
"522 136 OFFCURVE",
"531 165 OFFCURVE",
"535 196 CURVE SMOOTH",
"541 242 OFFCURVE",
"533 280 OFFCURVE",
"513 310 CURVE SMOOTH",
"493 340 OFFCURVE",
"461 361 OFFCURVE",
"418 374 CURVE",
"457 388 OFFCURVE",
"488 408 OFFCURVE",
"511 436 CURVE SMOOTH",
"534 464 OFFCURVE",
"547 497 OFFCURVE",
"552 536 CURVE SMOOTH",
"555 562 OFFCURVE",
"554 587 OFFCURVE",
"546 610 CURVE SMOOTH",
"538 633 OFFCURVE",
"526 653 OFFCURVE",
"509 670 CURVE SMOOTH",
"492 687 OFFCURVE",
"470 700 OFFCURVE",
"445 710 CURVE SMOOTH",
"420 720 OFFCURVE",
"391 724 OFFCURVE",
"359 724 CURVE SMOOTH",
"326 724 OFFCURVE",
"296 720 OFFCURVE",
"268 710 CURVE SMOOTH",
"240 700 OFFCURVE",
"216 687 OFFCURVE",
"195 670 CURVE SMOOTH",
"174 653 OFFCURVE",
"157 633 OFFCURVE",
"144 610 CURVE SMOOTH",
"131 587 OFFCURVE",
"122 562 OFFCURVE",
"119 536 CURVE SMOOTH",
"114 497 OFFCURVE",
"120 464 OFFCURVE",
"136 436 CURVE SMOOTH",
"152 408 OFFCURVE",
"177 387 OFFCURVE",
"213 373 CURVE",
"167 360 OFFCURVE",
"130 340 OFFCURVE",
"102 310 CURVE SMOOTH",
"74 280 OFFCURVE",
"58 242 OFFCURVE",
"52 196 CURVE SMOOTH",
"48 165 OFFCURVE",
"50 136 OFFCURVE",
"59 111 CURVE SMOOTH",
"68 86 OFFCURVE",
"82 65 OFFCURVE",
"101 47 CURVE SMOOTH",
"120 29 OFFCURVE",
"144 16 OFFCURVE",
"172 6 CURVE SMOOTH",
"201 -4 OFFCURVE",
"233 -8 OFFCURVE",
"269 -8 CURVE SMOOTH"
);
},
{
closed = 1;
nodes = (
"254 63 OFFCURVE",
"234 67 OFFCURVE",
"216 73 CURVE SMOOTH",
"198 79 OFFCURVE",
"183 88 OFFCURVE",
"172 100 CURVE SMOOTH",
"161 112 OFFCURVE",
"153 127 OFFCURVE",
"148 143 CURVE SMOOTH",
"143 159 OFFCURVE",
"142 177 OFFCURVE",
"144 197 CURVE SMOOTH",
"147 222 OFFCURVE",
"154 243 OFFCURVE",
"164 261 CURVE SMOOTH",
"174 279 OFFCURVE",
"188 292 OFFCURVE",
"203 303 CURVE SMOOTH",
"218 314 OFFCURVE",
"234 323 OFFCURVE",
"253 328 CURVE SMOOTH",
"272 333 OFFCURVE",
"291 335 OFFCURVE",
"311 335 CURVE SMOOTH",
"331 335 OFFCURVE",
"349 333 OFFCURVE",
"366 328 CURVE SMOOTH",
"383 323 OFFCURVE",
"399 314 OFFCURVE",
"411 303 CURVE SMOOTH",
"423 292 OFFCURVE",
"433 279 OFFCURVE",
"439 261 CURVE SMOOTH",
"445 243 OFFCURVE",
"446 222 OFFCURVE",
"443 197 CURVE SMOOTH",
"441 177 OFFCURVE",
"435 159 OFFCURVE",
"426 143 CURVE SMOOTH",
"417 127 OFFCURVE",
"406 112 OFFCURVE",
"392 100 CURVE SMOOTH",
"378 88 OFFCURVE",
"360 79 OFFCURVE",
"341 73 CURVE SMOOTH",
"322 67 OFFCURVE",
"300 63 OFFCURVE",
"277 63 CURVE SMOOTH"
);
},
{
closed = 1;
nodes = (
"297 407 OFFCURVE",
"277 411 OFFCURVE",
"261 418 CURVE SMOOTH",
"245 425 OFFCURVE",
"234 434 OFFCURVE",
"225 446 CURVE SMOOTH",
"216 458 OFFCURVE",
"210 472 OFFCURVE",
"207 487 CURVE SMOOTH",
"204 502 OFFCURVE",
"204 518 OFFCURVE",
"206 534 CURVE SMOOTH",
"208 551 OFFCURVE",
"213 566 OFFCURVE",
"220 581 CURVE SMOOTH",
"227 596 OFFCURVE",
"237 609 OFFCURVE",
"249 620 CURVE SMOOTH",
"261 631 OFFCURVE",
"276 640 OFFCURVE",
"293 646 CURVE SMOOTH",
"310 652 OFFCURVE",
"329 655 OFFCURVE",
"350 655 CURVE SMOOTH",
"371 655 OFFCURVE",
"390 652 OFFCURVE",
"405 646 CURVE SMOOTH",
"420 640 OFFCURVE",
"434 631 OFFCURVE",
"443 620 CURVE SMOOTH",
"452 609 OFFCURVE",
"458 596 OFFCURVE",
"462 581 CURVE SMOOTH",
"466 566 OFFCURVE",
"467 551 OFFCURVE",
"465 534 CURVE SMOOTH",
"463 518 OFFCURVE",
"459 502 OFFCURVE",
"452 487 CURVE SMOOTH",
"445 472 OFFCURVE",
"437 458 OFFCURVE",
"425 446 CURVE SMOOTH",
"413 434 OFFCURVE",
"398 425 OFFCURVE",
"381 418 CURVE SMOOTH",
"364 411 OFFCURVE",
"343 407 OFFCURVE",
"320 407 CURVE SMOOTH"
);
}
);
width = 603;
},
{
layerId = "18B4A443-2C69-4DCB-9619-77A7DD6AC8EC";
paths = (
{
closed = 1;
nodes = (
"403 -8 OFFCURVE",
"513 59 OFFCURVE",
"530 187 CURVE SMOOTH",
"541 283 OFFCURVE",
"493 349 OFFCURVE",
"398 370 CURVE",
"480 393 OFFCURVE",
"539 453 OFFCURVE",
"547 535 CURVE SMOOTH",
"560 647 OFFCURVE",
"479 716 OFFCURVE",
"365 716 CURVE SMOOTH",
"248 716 OFFCURVE",
"152 644 OFFCURVE",
"138 535 CURVE SMOOTH",
"131 455 OFFCURVE",
"165 395 OFFCURVE",
"247 370 CURVE",
"149 349 OFFCURVE",
"81 284 OFFCURVE",
"70 187 CURVE SMOOTH",
"54 64 OFFCURVE",
"147 -8 OFFCURVE",
"276 -8 CURVE SMOOTH"
);
},
{
closed = 1;
nodes = (
"175 30 OFFCURVE",
"106 91 OFFCURVE",
"119 188 CURVE SMOOTH",
"132 291 OFFCURVE",
"214 348 OFFCURVE",
"320 348 CURVE SMOOTH",
"428 348 OFFCURVE",
"495 290 OFFCURVE",
"481 188 CURVE SMOOTH",
"469 88 OFFCURVE",
"385 30 OFFCURVE",
"281 30 CURVE SMOOTH"
);
},
{
closed = 1;
nodes = (
"229 387 OFFCURVE",
"176 440 OFFCURVE",
"185 534 CURVE SMOOTH",
"195 620 OFFCURVE",
"265 678 OFFCURVE",
"361 678 CURVE SMOOTH",
"450 678 OFFCURVE",
"510 630 OFFCURVE",
"500 534 CURVE SMOOTH",
"491 448 OFFCURVE",
"422 387 OFFCURVE",
"325 387 CURVE SMOOTH"
);
}
);
width = 616;
},
{
layerId = "A0CD44AA-8F44-4864-B482-F84B7650FD25";
paths = (
{
closed = 1;
nodes = (
"281 -8 OFFCURVE",
"316 -3 OFFCURVE",
"348 7 CURVE SMOOTH",
"380 17 OFFCURVE",
"408 32 OFFCURVE",
"432 50 CURVE SMOOTH",
"456 68 OFFCURVE",
"477 90 OFFCURVE",
"492 116 CURVE SMOOTH",
"507 142 OFFCURVE",
"517 171 OFFCURVE",
"521 203 CURVE SMOOTH",
"526 246 OFFCURVE",
"520 281 OFFCURVE",
"503 311 CURVE SMOOTH",
"486 341 OFFCURVE",
"456 363 OFFCURVE",
"413 377 CURVE",
"450 392 OFFCURVE",
"478 413 OFFCURVE",
"499 440 CURVE SMOOTH",
"520 467 OFFCURVE",
"533 499 OFFCURVE",
"538 537 CURVE SMOOTH",
"541 564 OFFCURVE",
"538 590 OFFCURVE",
"530 614 CURVE SMOOTH",
"522 638 OFFCURVE",
"509 657 OFFCURVE",
"491 675 CURVE SMOOTH",
"473 692 OFFCURVE",
"452 706 OFFCURVE",
"425 716 CURVE SMOOTH",
"398 726 OFFCURVE",
"368 731 OFFCURVE",
"335 731 CURVE SMOOTH",
"302 731 OFFCURVE",
"270 726 OFFCURVE",
"241 716 CURVE SMOOTH",
"212 706 OFFCURVE",
"186 693 OFFCURVE",
"164 675 CURVE SMOOTH",
"142 658 OFFCURVE",
"124 638 OFFCURVE",
"110 614 CURVE SMOOTH",
"96 590 OFFCURVE",
"87 564 OFFCURVE",
"84 537 CURVE SMOOTH",
"79 499 OFFCURVE",
"84 467 OFFCURVE",
"98 440 CURVE SMOOTH",
"112 413 OFFCURVE",
"136 392 OFFCURVE",
"170 377 CURVE",
"124 363 OFFCURVE",
"89 341 OFFCURVE",
"64 311 CURVE SMOOTH",
"39 281 OFFCURVE",
"24 246 OFFCURVE",
"19 203 CURVE SMOOTH",
"15 171 OFFCURVE",
"17 142 OFFCURVE",
"26 116 CURVE SMOOTH",
"35 90 OFFCURVE",
"49 68 OFFCURVE",
"69 50 CURVE SMOOTH",
"89 32 OFFCURVE",
"113 17 OFFCURVE",
"143 7 CURVE SMOOTH",
"173 -3 OFFCURVE",
"207 -8 OFFCURVE",
"244 -8 CURVE SMOOTH"
);
},
{
closed = 1;
nodes = (
"236 88 OFFCURVE",
"218 91 OFFCURVE",
"203 97 CURVE SMOOTH",
"188 103 OFFCURVE",
"177 112 OFFCURVE",
"168 122 CURVE SMOOTH",
"159 132 OFFCURVE",
"152 144 OFFCURVE",
"148 158 CURVE SMOOTH",
"144 172 OFFCURVE",
"144 188 OFFCURVE",
"146 205 CURVE SMOOTH",
"151 245 OFFCURVE",
"166 275 OFFCURVE",
"190 295 CURVE SMOOTH",
"214 315 OFFCURVE",
"246 326 OFFCURVE",
"285 326 CURVE SMOOTH",
"324 326 OFFCURVE",
"352 315 OFFCURVE",
"372 295 CURVE SMOOTH",
"392 275 OFFCURVE",
"399 245 OFFCURVE",
"394 205 CURVE SMOOTH",
"392 188 OFFCURVE",
"387 172 OFFCURVE",
"380 158 CURVE SMOOTH",
"373 144 OFFCURVE",
"364 132 OFFCURVE",
"352 122 CURVE SMOOTH",
"340 112 OFFCURVE",
"326 103 OFFCURVE",
"310 97 CURVE SMOOTH",
"294 91 OFFCURVE",
"276 88 OFFCURVE",
"256 88 CURVE SMOOTH"
);
},
{
closed = 1;
nodes = (
"277 422 OFFCURVE",
"260 426 OFFCURVE",
"247 432 CURVE SMOOTH",
"234 438 OFFCURVE",
"225 447 OFFCURVE",
"218 457 CURVE SMOOTH",
"211 467 OFFCURVE",
"206 479 OFFCURVE",
"204 493 CURVE SMOOTH",
"202 506 OFFCURVE",
"202 521 OFFCURVE",
"204 535 CURVE SMOOTH",
"206 549 OFFCURVE",
"209 562 OFFCURVE",
"215 574 CURVE SMOOTH",
"221 586 OFFCURVE",
"229 597 OFFCURVE",
"239 607 CURVE SMOOTH",
"249 617 OFFCURVE",
"261 623 OFFCURVE",
"275 629 CURVE SMOOTH",
"289 635 OFFCURVE",
"305 638 OFFCURVE",
"323 638 CURVE SMOOTH",
"341 638 OFFCURVE",
"357 635 OFFCURVE",
"370 629 CURVE SMOOTH",
"383 623 OFFCURVE",
"392 617 OFFCURVE",
"400 607 CURVE SMOOTH",
"408 597 OFFCURVE",
"412 586 OFFCURVE",
"415 574 CURVE SMOOTH",
"418 562 OFFCURVE",
"419 549 OFFCURVE",
"417 535 CURVE SMOOTH",
"415 521 OFFCURVE",
"412 507 OFFCURVE",
"407 493 CURVE SMOOTH",
"402 479 OFFCURVE",
"395 467 OFFCURVE",
"385 457 CURVE SMOOTH",
"375 447 OFFCURVE",
"362 438 OFFCURVE",
"348 432 CURVE SMOOTH",
"334 426 OFFCURVE",
"317 422 OFFCURVE",
"297 422 CURVE SMOOTH"
);
}
);
width = 557;
}
);
note = eight;
unicode = 0038;
},
{
glyphname = nine;
layers = (
{
layerId = "C87851D2-2817-4F36-A784-A5AE84D7BDA8";
paths = (
{
closed = 1;
nodes = (
"243 294 OFFCURVE",
"268 298 OFFCURVE",
"292 306 CURVE SMOOTH",
"316 314 OFFCURVE",
"338 324 OFFCURVE",
"358 339 CURVE",
"351 330 OFFCURVE",
"344 322 OFFCURVE",
"337 313 CURVE SMOOTH",
"330 304 OFFCURVE",
"322 296 OFFCURVE",
"313 286 CURVE SMOOTH",
"60 0 LINE",
"142 0 LINE SMOOTH",
"152 0 OFFCURVE",
"162 2 OFFCURVE",
"170 6 CURVE SMOOTH",
"178 10 OFFCURVE",
"185 15 OFFCURVE",
"190 21 CURVE SMOOTH",
"396 273 LINE SMOOTH",
"411 292 OFFCURVE",
"425 309 OFFCURVE",
"437 327 CURVE SMOOTH",
"449 345 OFFCURVE",
"460 362 OFFCURVE",
"470 380 CURVE SMOOTH",
"480 398 OFFCURVE",
"487 415 OFFCURVE",
"493 434 CURVE SMOOTH",
"499 452 OFFCURVE",
"503 472 OFFCURVE",
"506 493 CURVE SMOOTH",
"510 527 OFFCURVE",
"509 559 OFFCURVE",
"502 587 CURVE SMOOTH",
"495 615 OFFCURVE",
"482 640 OFFCURVE",
"464 660 CURVE SMOOTH",
"446 680 OFFCURVE",
"425 697 OFFCURVE",
"398 708 CURVE SMOOTH",
"371 719 OFFCURVE",
"341 725 OFFCURVE",
"307 725 CURVE SMOOTH",
"272 725 OFFCURVE",
"239 719 OFFCURVE",
"209 707 CURVE SMOOTH",
"179 695 OFFCURVE",
"151 679 OFFCURVE",
"128 659 CURVE SMOOTH",
"105 639 OFFCURVE",
"85 615 OFFCURVE",
"70 588 CURVE SMOOTH",
"55 561 OFFCURVE",
"46 531 OFFCURVE",
"42 500 CURVE SMOOTH",
"38 467 OFFCURVE",
"40 438 OFFCURVE",
"48 412 CURVE SMOOTH",
"56 386 OFFCURVE",
"67 365 OFFCURVE",
"83 347 CURVE SMOOTH",
"99 329 OFFCURVE",
"119 317 OFFCURVE",
"142 308 CURVE SMOOTH",
"165 299 OFFCURVE",
"190 294 OFFCURVE",
"217 294 CURVE SMOOTH"
);
},
{
closed = 1;
nodes = (
"420 486 OFFCURVE",
"415 468 OFFCURVE",
"406 451 CURVE SMOOTH",
"397 434 OFFCURVE",
"385 419 OFFCURVE",
"371 406 CURVE SMOOTH",
"357 393 OFFCURVE",
"339 382 OFFCURVE",
"320 374 CURVE SMOOTH",
"301 366 OFFCURVE",
"279 363 OFFCURVE",
"255 363 CURVE SMOOTH",
"233 363 OFFCURVE",
"215 366 OFFCURVE",
"198 372 CURVE SMOOTH",
"181 378 OFFCURVE",
"168 388 OFFCURVE",
"157 400 CURVE SMOOTH",
"146 412 OFFCURVE",
"138 427 OFFCURVE",
"134 445 CURVE SMOOTH",
"130 463 OFFCURVE",
"129 483 OFFCURVE",
"132 506 CURVE SMOOTH",
"135 527 OFFCURVE",
"141 546 OFFCURVE",
"150 564 CURVE SMOOTH",
"159 582 OFFCURVE",
"171 597 OFFCURVE",
"185 610 CURVE SMOOTH",
"199 623 OFFCURVE",
"216 632 OFFCURVE",
"235 639 CURVE SMOOTH",
"254 646 OFFCURVE",
"275 650 OFFCURVE",
"297 650 CURVE SMOOTH",
"318 650 OFFCURVE",
"336 647 OFFCURVE",
"353 640 CURVE SMOOTH",
"370 633 OFFCURVE",
"384 624 OFFCURVE",
"395 611 CURVE SMOOTH",
"406 598 OFFCURVE",
"414 582 OFFCURVE",
"419 564 CURVE SMOOTH",
"424 546 OFFCURVE",
"425 526 OFFCURVE",
"422 504 CURVE SMOOTH"
);
}
);
width = 552;
},
{
layerId = "18B4A443-2C69-4DCB-9619-77A7DD6AC8EC";
paths = (
{
closed = 1;
nodes = (
"307 301 OFFCURVE",
"364 324 OFFCURVE",
"410 368 CURVE",
"405 360 OFFCURVE",
"363 307 OFFCURVE",
"350 292 CURVE SMOOTH",
"105 0 LINE",
"148 0 LINE SMOOTH",
"159 0 OFFCURVE",
"168 4 OFFCURVE",
"174 12 CURVE SMOOTH",
"393 284 LINE SMOOTH",
"453 359 OFFCURVE",
"497 421 OFFCURVE",
"505 494 CURVE SMOOTH",
"521 622 OFFCURVE",
"446 716 OFFCURVE",
"319 716 CURVE SMOOTH",
"194 716 OFFCURVE",
"84 626 OFFCURVE",
"67 503 CURVE SMOOTH",
"51 389 OFFCURVE",
"121 301 OFFCURVE",
"243 301 CURVE SMOOTH"
);
},
{
closed = 1;
nodes = (
"451 412 OFFCURVE",
"363 338 OFFCURVE",
"261 338 CURVE SMOOTH",
"162 338 OFFCURVE",
"103 401 OFFCURVE",
"115 506 CURVE SMOOTH",
"127 602 OFFCURVE",
"207 676 OFFCURVE",
"313 676 CURVE SMOOTH",
"410 676 OFFCURVE",
"472 606 OFFCURVE",
"460 502 CURVE SMOOTH"
);
}
);
width = 581;
},
{
layerId = "A0CD44AA-8F44-4864-B482-F84B7650FD25";
paths = (
{
closed = 1;
nodes = (
"213 288 OFFCURVE",
"234 291 OFFCURVE",
"255 297 CURVE",
"276 302 OFFCURVE",
"295 310 OFFCURVE",
"313 321 CURVE",
"308 314 OFFCURVE",
"302 308 OFFCURVE",
"296 301 CURVE SMOOTH",
"290 294 OFFCURVE",
"285 287 OFFCURVE",
"278 280 CURVE",
"19 0 LINE",
"132 0 LINE SMOOTH",
"146 0 OFFCURVE",
"159 2 OFFCURVE",
"171 8 CURVE SMOOTH",
"183 14 OFFCURVE",
"192 20 OFFCURVE",
"199 28 CURVE SMOOTH",
"394 264 LINE SMOOTH",
"409 282 OFFCURVE",
"422 299 OFFCURVE",
"434 317 CURVE SMOOTH",
"446 335 OFFCURVE",
"457 353 OFFCURVE",
"466 371 CURVE SMOOTH",
"475 389 OFFCURVE",
"484 409 OFFCURVE",
"490 429 CURVE SMOOTH",
"496 449 OFFCURVE",
"500 471 OFFCURVE",
"503 493 CURVE SMOOTH",
"507 528 OFFCURVE",
"506 560 OFFCURVE",
"498 589 CURVE SMOOTH",
"490 618 OFFCURVE",
"478 643 OFFCURVE",
"460 664 CURVE SMOOTH",
"442 685 OFFCURVE",
"418 702 OFFCURVE",
"390 714 CURVE SMOOTH",
"362 726 OFFCURVE",
"329 731 OFFCURVE",
"292 731 CURVE SMOOTH",
"255 731 OFFCURVE",
"222 724 OFFCURVE",
"190 712 CURVE SMOOTH",
"158 700 OFFCURVE",
"130 683 OFFCURVE",
"106 662 CURVE SMOOTH",
"82 641 OFFCURVE",
"61 616 OFFCURVE",
"46 588 CURVE SMOOTH",
"31 560 OFFCURVE",
"21 528 OFFCURVE",
"17 496 CURVE SMOOTH",
"13 461 OFFCURVE",
"15 432 OFFCURVE",
"23 406 CURVE SMOOTH",
"31 380 OFFCURVE",
"43 359 OFFCURVE",
"60 341 CURVE SMOOTH",
"77 323 OFFCURVE",
"96 311 OFFCURVE",
"119 302 CURVE SMOOTH",
"142 293 OFFCURVE",
"166 288 OFFCURVE",
"191 288 CURVE SMOOTH"
);
},
{
closed = 1;
nodes = (
"384 488 OFFCURVE",
"379 471 OFFCURVE",
"372 456 CURVE SMOOTH",
"365 441 OFFCURVE",
"355 429 OFFCURVE",
"343 418 CURVE SMOOTH",
"331 407 OFFCURVE",
"317 398 OFFCURVE",
"301 392 CURVE SMOOTH",
"285 386 OFFCURVE",
"266 382 OFFCURVE",
"246 382 CURVE SMOOTH",
"208 382 OFFCURVE",
"179 393 OFFCURVE",
"161 414 CURVE SMOOTH",
"143 435 OFFCURVE",
"136 466 OFFCURVE",
"141 506 CURVE SMOOTH",
"143 524 OFFCURVE",
"148 541 OFFCURVE",
"156 556 CURVE SMOOTH",
"164 571 OFFCURVE",
"173 584 OFFCURVE",
"185 595 CURVE SMOOTH",
"197 606 OFFCURVE",
"210 615 OFFCURVE",
"226 621 CURVE SMOOTH",
"242 627 OFFCURVE",
"259 630 OFFCURVE",
"278 630 CURVE SMOOTH",
"296 630 OFFCURVE",
"313 628 OFFCURVE",
"327 622 CURVE SMOOTH",
"341 616 OFFCURVE",
"353 608 OFFCURVE",
"363 597 CURVE SMOOTH",
"373 586 OFFCURVE",
"380 574 OFFCURVE",
"384 558 CURVE SMOOTH",
"388 543 OFFCURVE",
"388 525 OFFCURVE",
"386 505 CURVE SMOOTH"
);
}
);
width = 524;
}
);
note = nine;
unicode = 0039;
},
{
glyphname = colon;
layers = (
{
layerId = "C87851D2-2817-4F36-A784-A5AE84D7BDA8";
paths = (
{
closed = 1;
nodes = (
"44 46 OFFCURVE",
"45 38 OFFCURVE",
"47 30 CURVE SMOOTH",
"49 22 OFFCURVE",
"52 16 OFFCURVE",
"57 10 CURVE SMOOTH",
"62 4 OFFCURVE",
"68 0 OFFCURVE",
"75 -3 CURVE SMOOTH",
"82 -6 OFFCURVE",
"90 -8 OFFCURVE",
"99 -8 CURVE SMOOTH",
"108 -8 OFFCURVE",
"116 -6 OFFCURVE",
"124 -3 CURVE SMOOTH",
"132 0 OFFCURVE",
"140 4 OFFCURVE",
"146 10 CURVE SMOOTH",
"152 16 OFFCURVE",
"158 22 OFFCURVE",
"162 30 CURVE SMOOTH",
"166 38 OFFCURVE",
"169 46 OFFCURVE",
"170 55 CURVE SMOOTH",
"171 64 OFFCURVE",
"170 72 OFFCURVE",
"168 80 CURVE SMOOTH",
"166 88 OFFCURVE",
"162 93 OFFCURVE",
"157 99 CURVE SMOOTH",
"152 105 OFFCURVE",
"146 110 OFFCURVE",
"139 113 CURVE SMOOTH",
"132 116 OFFCURVE",
"124 118 OFFCURVE",
"115 118 CURVE SMOOTH",
"106 118 OFFCURVE",
"98 116 OFFCURVE",
"90 113 CURVE SMOOTH",
"82 110 OFFCURVE",
"74 105 OFFCURVE",
"68 99 CURVE SMOOTH",
"62 93 OFFCURVE",
"57 88 OFFCURVE",
"53 80 CURVE SMOOTH",
"49 72 OFFCURVE",
"46 64 OFFCURVE",
"45 55 CURVE SMOOTH"
);
},
{
closed = 1;
nodes = (
"90 421 OFFCURVE",
"91 413 OFFCURVE",
"93 405 CURVE SMOOTH",
"95 397 OFFCURVE",
"98 392 OFFCURVE",
"103 386 CURVE SMOOTH",
"108 380 OFFCURVE",
"114 375 OFFCURVE",
"121 372 CURVE SMOOTH",
"128 369 OFFCURVE",
"136 368 OFFCURVE",
"145 368 CURVE SMOOTH",
"154 368 OFFCURVE",
"162 369 OFFCURVE",
"170 372 CURVE SMOOTH",
"178 375 OFFCURVE",
"186 380 OFFCURVE",
"192 386 CURVE SMOOTH",
"198 392 OFFCURVE",
"204 397 OFFCURVE",
"208 405 CURVE SMOOTH",
"212 413 OFFCURVE",
"215 421 OFFCURVE",
"216 430 CURVE SMOOTH",
"217 439 OFFCURVE",
"216 447 OFFCURVE",
"214 455 CURVE SMOOTH",
"212 463 OFFCURVE",
"208 469 OFFCURVE",
"203 475 CURVE SMOOTH",
"198 481 OFFCURVE",
"192 485 OFFCURVE",
"185 488 CURVE SMOOTH",
"178 491 OFFCURVE",
"170 493 OFFCURVE",
"161 493 CURVE SMOOTH",
"152 493 OFFCURVE",
"144 491 OFFCURVE",
"136 488 CURVE SMOOTH",
"128 485 OFFCURVE",
"120 481 OFFCURVE",
"114 475 CURVE SMOOTH",
"108 469 OFFCURVE",
"103 463 OFFCURVE",
"99 455 CURVE SMOOTH",
"95 447 OFFCURVE",
"92 439 OFFCURVE",
"91 430 CURVE SMOOTH"
);
}
);
width = 261;
},
{
layerId = "18B4A443-2C69-4DCB-9619-77A7DD6AC8EC";
paths = (
{
closed = 1;
nodes = (
"121 -8 OFFCURVE",
"145 14 OFFCURVE",
"147 39 CURVE SMOOTH",
"150 63 OFFCURVE",
"133 85 OFFCURVE",
"107 85 CURVE SMOOTH",
"81 85 OFFCURVE",
"57 63 OFFCURVE",
"55 39 CURVE SMOOTH",
"53 14 OFFCURVE",
"70 -8 OFFCURVE",
"96 -8 CURVE SMOOTH"
);
},
{
closed = 1;
nodes = (
"170 391 OFFCURVE",
"194 413 OFFCURVE",
"196 438 CURVE SMOOTH",
"199 462 OFFCURVE",
"182 484 OFFCURVE",
"156 484 CURVE SMOOTH",
"130 484 OFFCURVE",
"106 462 OFFCURVE",
"104 438 CURVE SMOOTH",
"102 413 OFFCURVE",
"119 391 OFFCURVE",
"145 391 CURVE SMOOTH"
);
}
);
width = 251;
},
{
layerId = "A0CD44AA-8F44-4864-B482-F84B7650FD25";
paths = (
{
closed = 1;
nodes = (
"25 57 OFFCURVE",
"25 47 OFFCURVE",
"28 38 CURVE SMOOTH",
"31 29 OFFCURVE",
"35 22 OFFCURVE",
"41 15 CURVE SMOOTH",
"47 8 OFFCURVE",
"55 3 OFFCURVE",
"64 -1 CURVE SMOOTH",
"73 -5 OFFCURVE",
"82 -7 OFFCURVE",
"93 -7 CURVE SMOOTH",
"103 -7 OFFCURVE",
"113 -5 OFFCURVE",
"123 -1 CURVE SMOOTH",
"133 3 OFFCURVE",
"142 8 OFFCURVE",
"149 15 CURVE SMOOTH",
"156 22 OFFCURVE",
"163 29 OFFCURVE",
"168 38 CURVE SMOOTH",
"173 47 OFFCURVE",
"177 57 OFFCURVE",
"178 68 CURVE SMOOTH",
"179 78 OFFCURVE",
"178 89 OFFCURVE",
"175 98 CURVE SMOOTH",
"172 107 OFFCURVE",
"168 115 OFFCURVE",
"162 122 CURVE SMOOTH",
"156 129 OFFCURVE",
"149 134 OFFCURVE",
"140 138 CURVE SMOOTH",
"131 142 OFFCURVE",
"121 144 OFFCURVE",
"111 144 CURVE SMOOTH",
"100 144 OFFCURVE",
"91 142 OFFCURVE",
"81 138 CURVE SMOOTH",
"71 134 OFFCURVE",
"62 129 OFFCURVE",
"54 122 CURVE SMOOTH",
"46 115 OFFCURVE",
"41 107 OFFCURVE",
"36 98 CURVE SMOOTH",
"31 89 OFFCURVE",
"27 78 OFFCURVE",
"26 68 CURVE SMOOTH"
);
},
{
closed = 1;
nodes = (
"69 413 OFFCURVE",
"69 404 OFFCURVE",
"72 395 CURVE SMOOTH",
"75 386 OFFCURVE",
"79 378 OFFCURVE",
"85 371 CURVE SMOOTH",
"91 364 OFFCURVE",
"98 359 OFFCURVE",
"107 355 CURVE SMOOTH",
"116 351 OFFCURVE",
"126 350 OFFCURVE",
"137 350 CURVE SMOOTH",
"147 350 OFFCURVE",
"157 351 OFFCURVE",
"167 355 CURVE SMOOTH",
"177 359 OFFCURVE",
"186 364 OFFCURVE",
"193 371 CURVE SMOOTH",
"200 378 OFFCURVE",
"207 386 OFFCURVE",
"212 395 CURVE SMOOTH",
"217 404 OFFCURVE",
"220 414 OFFCURVE",
"221 425 CURVE SMOOTH",
"222 435 OFFCURVE",
"222 445 OFFCURVE",
"219 454 CURVE SMOOTH",
"216 463 OFFCURVE",
"212 471 OFFCURVE",
"206 478 CURVE SMOOTH",
"200 485 OFFCURVE",
"193 490 OFFCURVE",
"184 494 CURVE SMOOTH",
"175 498 OFFCURVE",
"165 500 OFFCURVE",
"155 500 CURVE SMOOTH",
"144 500 OFFCURVE",
"134 498 OFFCURVE",
"124 494 CURVE SMOOTH",
"114 490 OFFCURVE",
"106 485 OFFCURVE",
"98 478 CURVE SMOOTH",
"90 471 OFFCURVE",
"84 463 OFFCURVE",
"79 454 CURVE SMOOTH",
"74 445 OFFCURVE",
"71 434 OFFCURVE",
"70 424 CURVE SMOOTH"
);
}
);
width = 247;
}
);
leftKerningGroup = semicolon;
note = colon;
rightKerningGroup = semicolon;
unicode = 003A;
},
{
glyphname = semicolon;
layers = (
{
layerId = "C87851D2-2817-4F36-A784-A5AE84D7BDA8";
paths = (
{
closed = 1;
nodes = (
"60 53 OFFCURVE",
"60 45 OFFCURVE",
"62 37 CURVE SMOOTH",
"64 29 OFFCURVE",
"68 23 OFFCURVE",
"72 17 CURVE SMOOTH",
"76 11 OFFCURVE",
"81 7 OFFCURVE",
"88 4 CURVE SMOOTH",
"95 1 OFFCURVE",
"102 0 OFFCURVE",
"111 0 CURVE SMOOTH",
"118 0 LINE",
"115 -11 OFFCURVE",
"110 -21 OFFCURVE",
"104 -31 CURVE SMOOTH",
"98 -41 OFFCURVE",
"92 -50 OFFCURVE",
"86 -58 CURVE SMOOTH",
"80 -66 OFFCURVE",
"74 -73 OFFCURVE",
"68 -79 CURVE SMOOTH",
"53 -94 LINE SMOOTH",
"48 -99 OFFCURVE",
"46 -103 OFFCURVE",
"45 -107 CURVE",
"44 -112 OFFCURVE",
"45 -117 OFFCURVE",
"49 -121 CURVE SMOOTH",
"63 -136 LINE",
"80 -123 OFFCURVE",
"94 -109 OFFCURVE",
"108 -94 CURVE SMOOTH",
"122 -79 OFFCURVE",
"133 -64 OFFCURVE",
"143 -48 CURVE SMOOTH",
"153 -32 OFFCURVE",
"162 -16 OFFCURVE",
"168 0 CURVE SMOOTH",
"174 16 OFFCURVE",
"178 32 OFFCURVE",
"180 47 CURVE SMOOTH",
"181 57 OFFCURVE",
"181 67 OFFCURVE",
"179 75 CURVE SMOOTH",
"177 83 OFFCURVE",
"174 91 OFFCURVE",
"170 97 CURVE SMOOTH",
"166 103 OFFCURVE",
"160 109 OFFCURVE",
"153 113 CURVE SMOOTH",
"146 117 OFFCURVE",
"137 118 OFFCURVE",
"127 118 CURVE SMOOTH",
"118 118 OFFCURVE",
"110 117 OFFCURVE",
"102 114 CURVE SMOOTH",
"94 111 OFFCURVE",
"88 106 OFFCURVE",
"82 101 CURVE SMOOTH",
"76 96 OFFCURVE",
"72 90 OFFCURVE",
"68 83 CURVE SMOOTH",
"64 76 OFFCURVE",
"62 70 OFFCURVE",
"61 62 CURVE SMOOTH"
);
},
{
closed = 1;
nodes = (
"102 421 OFFCURVE",
"103 413 OFFCURVE",
"105 405 CURVE SMOOTH",
"107 397 OFFCURVE",
"110 392 OFFCURVE",
"115 386 CURVE SMOOTH",
"120 380 OFFCURVE",
"126 375 OFFCURVE",
"133 372 CURVE SMOOTH",
"140 369 OFFCURVE",
"148 368 OFFCURVE",
"157 368 CURVE SMOOTH",
"166 368 OFFCURVE",
"174 369 OFFCURVE",
"182 372 CURVE SMOOTH",
"190 375 OFFCURVE",
"198 380 OFFCURVE",
"204 386 CURVE SMOOTH",
"210 392 OFFCURVE",
"216 397 OFFCURVE",
"220 405 CURVE SMOOTH",
"224 413 OFFCURVE",
"227 421 OFFCURVE",
"228 430 CURVE SMOOTH",
"229 439 OFFCURVE",
"228 447 OFFCURVE",
"226 455 CURVE SMOOTH",
"224 463 OFFCURVE",
"220 469 OFFCURVE",
"215 475 CURVE SMOOTH",
"210 481 OFFCURVE",
"204 485 OFFCURVE",
"197 488 CURVE SMOOTH",
"190 491 OFFCURVE",
"182 493 OFFCURVE",
"173 493 CURVE SMOOTH",
"164 493 OFFCURVE",
"156 491 OFFCURVE",
"148 488 CURVE SMOOTH",
"140 485 OFFCURVE",
"132 481 OFFCURVE",
"126 475 CURVE SMOOTH",
"120 469 OFFCURVE",
"115 463 OFFCURVE",
"111 455 CURVE SMOOTH",
"107 447 OFFCURVE",
"104 439 OFFCURVE",
"103 430 CURVE SMOOTH"
);
}
);
width = 273;
},
{
components = (
{
name = comma;
transform = "{1, 0, 0, 1, 3, 0}";
},
{
name = period;
transform = "{1, 0, 0, 1, 61, 399}";
}
);
layerId = "18B4A443-2C69-4DCB-9619-77A7DD6AC8EC";
width = 263;
},
{
layerId = "A0CD44AA-8F44-4864-B482-F84B7650FD25";
paths = (
{
closed = 1;
nodes = (
"39 65 OFFCURVE",
"40 55 OFFCURVE",
"42 46 CURVE SMOOTH",
"44 37 OFFCURVE",
"49 30 OFFCURVE",
"54 23 CURVE SMOOTH",
"59 16 OFFCURVE",
"66 11 OFFCURVE",
"74 7 CURVE SMOOTH",
"82 3 OFFCURVE",
"92 2 OFFCURVE",
"102 2 CURVE",
"99 -8 OFFCURVE",
"94 -18 OFFCURVE",
"88 -27 CURVE SMOOTH",
"82 -36 OFFCURVE",
"77 -43 OFFCURVE",
"71 -51 CURVE SMOOTH",
"65 -59 OFFCURVE",
"58 -65 OFFCURVE",
"52 -71 CURVE SMOOTH",
"37 -86 LINE SMOOTH",
"34 -89 OFFCURVE",
"31 -92 OFFCURVE",
"29 -95 CURVE SMOOTH",
"27 -98 OFFCURVE",
"25 -101 OFFCURVE",
"25 -104 CURVE",
"24 -111 OFFCURVE",
"27 -117 OFFCURVE",
"32 -122 CURVE SMOOTH",
"51 -142 LINE",
"70 -128 OFFCURVE",
"88 -113 OFFCURVE",
"104 -96 CURVE SMOOTH",
"120 -79 OFFCURVE",
"132 -62 OFFCURVE",
"144 -44 CURVE SMOOTH",
"156 -26 OFFCURVE",
"165 -10 OFFCURVE",
"172 8 CURVE SMOOTH",
"179 26 OFFCURVE",
"184 43 OFFCURVE",
"186 59 CURVE SMOOTH",
"187 70 OFFCURVE",
"187 81 OFFCURVE",
"185 91 CURVE SMOOTH",
"183 101 OFFCURVE",
"179 110 OFFCURVE",
"174 118 CURVE SMOOTH",
"169 126 OFFCURVE",
"162 133 OFFCURVE",
"153 137 CURVE SMOOTH",
"144 141 OFFCURVE",
"134 143 OFFCURVE",
"121 143 CURVE SMOOTH",
"110 143 OFFCURVE",
"100 142 OFFCURVE",
"91 138 CURVE SMOOTH",
"82 134 OFFCURVE",
"73 130 OFFCURVE",
"66 124 CURVE SMOOTH",
"59 118 OFFCURVE",
"54 110 OFFCURVE",
"49 102 CURVE SMOOTH",
"44 94 OFFCURVE",
"41 85 OFFCURVE",
"40 76 CURVE SMOOTH"
);
},
{
closed = 1;
nodes = (
"79 413 OFFCURVE",
"79 404 OFFCURVE",
"82 395 CURVE SMOOTH",
"85 386 OFFCURVE",
"89 378 OFFCURVE",
"95 371 CURVE SMOOTH",
"101 364 OFFCURVE",
"108 359 OFFCURVE",
"117 355 CURVE SMOOTH",
"126 351 OFFCURVE",
"135 350 OFFCURVE",
"146 350 CURVE SMOOTH",
"156 350 OFFCURVE",
"167 351 OFFCURVE",
"177 355 CURVE SMOOTH",
"187 359 OFFCURVE",
"196 364 OFFCURVE",
"203 371 CURVE SMOOTH",
"210 378 OFFCURVE",
"216 386 OFFCURVE",
"221 395 CURVE SMOOTH",
"226 404 OFFCURVE",
"230 413 OFFCURVE",
"231 424 CURVE SMOOTH",
"232 434 OFFCURVE",
"232 445 OFFCURVE",
"229 454 CURVE SMOOTH",
"226 463 OFFCURVE",
"222 471 OFFCURVE",
"216 478 CURVE SMOOTH",
"210 485 OFFCURVE",
"203 490 OFFCURVE",
"194 494 CURVE SMOOTH",
"185 498 OFFCURVE",
"175 500 OFFCURVE",
"165 500 CURVE SMOOTH",
"154 500 OFFCURVE",
"144 498 OFFCURVE",
"134 494 CURVE SMOOTH",
"124 490 OFFCURVE",
"116 485 OFFCURVE",
"108 478 CURVE SMOOTH",
"100 471 OFFCURVE",
"94 463 OFFCURVE",
"89 454 CURVE SMOOTH",
"84 445 OFFCURVE",
"81 434 OFFCURVE",
"80 424 CURVE SMOOTH"
);
}
);
width = 257;
}
);
leftKerningGroup = semicolon;
note = semicolon;
unicode = 003B;
},
{
glyphname = less;
layers = (
{
layerId = "C87851D2-2817-4F36-A784-A5AE84D7BDA8";
paths = (
{
closed = 1;
nodes = (
"59 355 LINE",
"55 318 LINE",
"417 117 LINE",
"425 181 LINE",
"426 186 OFFCURVE",
"424 192 OFFCURVE",
"422 196 CURVE SMOOTH",
"420 200 OFFCURVE",
"416 204 OFFCURVE",
"410 207 CURVE SMOOTH",
"199 320 LINE SMOOTH",
"193 323 OFFCURVE",
"186 327 OFFCURVE",
"179 330 CURVE SMOOTH",
"172 333 OFFCURVE",
"164 334 OFFCURVE",
"156 336 CURVE",
"165 338 OFFCURVE",
"173 341 OFFCURVE",
"181 343 CURVE SMOOTH",
"189 345 OFFCURVE",
"196 348 OFFCURVE",
"203 352 CURVE",
"442 466 LINE",
"449 469 OFFCURVE",
"454 473 OFFCURVE",
"457 477 CURVE SMOOTH",
"460 481 OFFCURVE",
"462 486 OFFCURVE",
"463 492 CURVE",
"471 556 LINE"
);
}
);
width = 505;
},
{
layerId = "18B4A443-2C69-4DCB-9619-77A7DD6AC8EC";
paths = (
{
closed = 1;
nodes = (
"37 346 LINE",
"34 326 LINE",
"385 132 LINE",
"389 165 LINE",
"389 174 OFFCURVE",
"386 177 OFFCURVE",
"378 182 CURVE",
"119 323 LINE SMOOTH",
"110 328 OFFCURVE",
"98 332 OFFCURVE",
"84 335 CURVE",
"97 338 OFFCURVE",
"110 342 OFFCURVE",
"122 348 CURVE SMOOTH",
"416 488 LINE",
"421 491 OFFCURVE",
"429 496 OFFCURVE",
"431 506 CURVE",
"435 538 LINE"
);
}
);
width = 537;
},
{
layerId = "A0CD44AA-8F44-4864-B482-F84B7650FD25";
paths = (
{
closed = 1;
nodes = (
"37 362 LINE",
"31 312 LINE",
"402 105 LINE",
"412 193 LINE SMOOTH",
"413 200 OFFCURVE",
"413 205 OFFCURVE",
"410 211 CURVE SMOOTH",
"407 217 OFFCURVE",
"402 222 OFFCURVE",
"395 226 CURVE SMOOTH",
"225 319 LINE SMOOTH",
"218 323 OFFCURVE",
"210 326 OFFCURVE",
"202 329 CURVE SMOOTH",
"194 332 OFFCURVE",
"185 335 OFFCURVE",
"176 337 CURVE",
"186 339 OFFCURVE",
"195 342 OFFCURVE",
"204 345 CURVE SMOOTH",
"213 348 OFFCURVE",
"221 351 OFFCURVE",
"229 355 CURVE SMOOTH",
"422 448 LINE SMOOTH",
"430 452 OFFCURVE",
"436 456 OFFCURVE",
"440 462 CURVE",
"444 467 OFFCURVE",
"447 474 OFFCURVE",
"448 481 CURVE SMOOTH",
"458 569 LINE"
);
}
);
width = 524;
}
);
note = less;
unicode = 003C;
},
{
glyphname = equal;
layers = (
{
layerId = "C87851D2-2817-4F36-A784-A5AE84D7BDA8";
paths = (
{
closed = 1;
nodes = (
"76 287 LINE",
"68 220 LINE",
"497 220 LINE",
"506 287 LINE"
);
},
{
closed = 1;
nodes = (
"97 454 LINE",
"89 387 LINE",
"518 387 LINE",
"526 454 LINE"
);
}
);
width = 594;
},
{
layerId = "18B4A443-2C69-4DCB-9619-77A7DD6AC8EC";
paths = (
{
closed = 1;
nodes = (
"75 278 LINE",
"70 241 LINE",
"484 241 LINE",
"488 278 LINE"
);
},
{
closed = 1;
nodes = (
"94 434 LINE",
"89 398 LINE",
"503 398 LINE",
"507 434 LINE"
);
}
);
width = 577;
},
{
layerId = "A0CD44AA-8F44-4864-B482-F84B7650FD25";
paths = (
{
closed = 1;
nodes = (
"66 294 LINE",
"55 202 LINE",
"498 202 LINE",
"509 294 LINE"
);
},
{
closed = 1;
nodes = (
"88 470 LINE",
"77 378 LINE",
"520 378 LINE",
"531 470 LINE"
);
}
);
width = 586;
}
);
note = equal;
unicode = 003D;
},
{
glyphname = greater;
layers = (
{
layerId = "C87851D2-2817-4F36-A784-A5AE84D7BDA8";
paths = (
{
closed = 1;
nodes = (
"55 117 LINE",
"466 318 LINE",
"470 355 LINE",
"108 556 LINE",
"101 492 LINE",
"100 486 OFFCURVE",
"101 481 OFFCURVE",
"103 477 CURVE SMOOTH",
"105 473 OFFCURVE",
"109 469 OFFCURVE",
"115 466 CURVE SMOOTH",
"326 352 LINE",
"332 348 OFFCURVE",
"338 345 OFFCURVE",
"345 343 CURVE SMOOTH",
"352 341 OFFCURVE",
"360 338 OFFCURVE",
"368 336 CURVE",
"359 334 OFFCURVE",
"351 333 OFFCURVE",
"344 330 CURVE SMOOTH",
"337 327 OFFCURVE",
"329 324 OFFCURVE",
"322 321 CURVE",
"84 207 LINE",
"77 204 OFFCURVE",
"71 200 OFFCURVE",
"68 196 CURVE SMOOTH",
"65 192 OFFCURVE",
"63 186 OFFCURVE",
"62 181 CURVE"
);
}
);
width = 504;
},
{
layerId = "18B4A443-2C69-4DCB-9619-77A7DD6AC8EC";
paths = (
{
closed = 1;
nodes = (
"449 324 LINE",
"452 344 LINE",
"101 538 LINE",
"97 505 LINE",
"97 496 OFFCURVE",
"100 493 OFFCURVE",
"108 488 CURVE",
"367 347 LINE SMOOTH",
"376 342 OFFCURVE",
"388 338 OFFCURVE",
"402 335 CURVE",
"389 332 OFFCURVE",
"376 328 OFFCURVE",
"364 322 CURVE SMOOTH",
"70 182 LINE",
"65 179 OFFCURVE",
"57 174 OFFCURVE",
"55 164 CURVE",
"51 132 LINE"
);
}
);
width = 486;
},
{
layerId = "A0CD44AA-8F44-4864-B482-F84B7650FD25";
paths = (
{
closed = 1;
nodes = (
"66 105 LINE",
"487 312 LINE",
"494 362 LINE",
"123 568 LINE",
"112 480 LINE SMOOTH",
"111 473 OFFCURVE",
"112 468 OFFCURVE",
"115 462 CURVE SMOOTH",
"118 456 OFFCURVE",
"123 452 OFFCURVE",
"130 448 CURVE SMOOTH",
"300 355 LINE SMOOTH",
"307 351 OFFCURVE",
"315 348 OFFCURVE",
"323 345 CURVE SMOOTH",
"331 342 OFFCURVE",
"340 339 OFFCURVE",
"349 337 CURVE",
"329 332 OFFCURVE",
"311 326 OFFCURVE",
"295 319 CURVE",
"102 226 LINE SMOOTH",
"94 222 OFFCURVE",
"88 217 OFFCURVE",
"84 211 CURVE SMOOTH",
"80 205 OFFCURVE",
"78 200 OFFCURVE",
"77 193 CURVE SMOOTH"
);
}
);
width = 525;
}
);
note = greater;
unicode = 003E;
},
{
glyphname = question;
layers = (
{
layerId = "C87851D2-2817-4F36-A784-A5AE84D7BDA8";
paths = (
{
closed = 1;
nodes = (
"52 615 LINE SMOOTH",
"56 607 OFFCURVE",
"62 604 OFFCURVE",
"70 604 CURVE SMOOTH",
"74 604 OFFCURVE",
"80 606 OFFCURVE",
"87 611 CURVE SMOOTH",
"94 616 OFFCURVE",
"102 622 OFFCURVE",
"113 628 CURVE SMOOTH",
"124 634 OFFCURVE",
"137 639 OFFCURVE",
"152 644 CURVE SMOOTH",
"167 649 OFFCURVE",
"185 652 OFFCURVE",
"205 652 CURVE SMOOTH",
"220 652 OFFCURVE",
"233 649 OFFCURVE",
"246 645 CURVE SMOOTH",
"259 641 OFFCURVE",
"269 634 OFFCURVE",
"278 626 CURVE SMOOTH",
"287 618 OFFCURVE",
"294 608 OFFCURVE",
"298 596 CURVE SMOOTH",
"302 584 OFFCURVE",
"303 572 OFFCURVE",
"301 558 CURVE",
"299 538 OFFCURVE",
"293 521 OFFCURVE",
"284 506 CURVE SMOOTH",
"275 491 OFFCURVE",
"263 478 OFFCURVE",
"250 466 CURVE SMOOTH",
"237 454 OFFCURVE",
"224 445 OFFCURVE",
"210 435 CURVE SMOOTH",
"196 425 OFFCURVE",
"182 416 OFFCURVE",
"169 406 CURVE",
"156 397 OFFCURVE",
"146 387 OFFCURVE",
"137 376 CURVE SMOOTH",
"128 365 OFFCURVE",
"123 353 OFFCURVE",
"121 339 CURVE SMOOTH",
"120 333 LINE",
"116 250 LINE",
"177 250 LINE",
"195 327 LINE",
"198 338 OFFCURVE",
"204 348 OFFCURVE",
"214 357 CURVE SMOOTH",
"224 366 OFFCURVE",
"235 375 OFFCURVE",
"248 384 CURVE SMOOTH",
"261 393 OFFCURVE",
"274 402 OFFCURVE",
"289 412 CURVE SMOOTH",
"304 422 OFFCURVE",
"319 434 OFFCURVE",
"332 448 CURVE SMOOTH",
"345 462 OFFCURVE",
"356 479 OFFCURVE",
"366 497 CURVE SMOOTH",
"376 515 OFFCURVE",
"382 537 OFFCURVE",
"385 562 CURVE SMOOTH",
"388 587 OFFCURVE",
"387 610 OFFCURVE",
"380 630 CURVE SMOOTH",
"373 650 OFFCURVE",
"362 667 OFFCURVE",
"347 681 CURVE SMOOTH",
"332 695 OFFCURVE",
"315 705 OFFCURVE",
"293 713 CURVE SMOOTH",
"271 721 OFFCURVE",
"247 725 OFFCURVE",
"221 725 CURVE SMOOTH",
"201 725 OFFCURVE",
"183 723 OFFCURVE",
"165 719 CURVE SMOOTH",
"147 715 OFFCURVE",
"131 710 OFFCURVE",
"115 703 CURVE SMOOTH",
"99 696 OFFCURVE",
"85 689 OFFCURVE",
"71 680 CURVE SMOOTH",
"57 671 OFFCURVE",
"45 662 OFFCURVE",
"33 652 CURVE"
);
},
{
closed = 1;
nodes = (
"57 46 OFFCURVE",
"58 38 OFFCURVE",
"60 30 CURVE SMOOTH",
"62 22 OFFCURVE",
"65 17 OFFCURVE",
"70 11 CURVE SMOOTH",
"75 5 OFFCURVE",
"82 0 OFFCURVE",
"89 -3 CURVE SMOOTH",
"96 -6 OFFCURVE",
"103 -7 OFFCURVE",
"112 -7 CURVE SMOOTH",
"121 -7 OFFCURVE",
"130 -6 OFFCURVE",
"138 -3 CURVE SMOOTH",
"146 0 OFFCURVE",
"153 5 OFFCURVE",
"159 11 CURVE SMOOTH",
"165 17 OFFCURVE",
"171 22 OFFCURVE",
"175 30 CURVE SMOOTH",
"179 38 OFFCURVE",
"182 46 OFFCURVE",
"183 55 CURVE SMOOTH",
"184 64 OFFCURVE",
"183 72 OFFCURVE",
"181 80 CURVE SMOOTH",
"179 88 OFFCURVE",
"175 94 OFFCURVE",
"170 100 CURVE SMOOTH",
"165 106 OFFCURVE",
"159 110 OFFCURVE",
"152 113 CURVE SMOOTH",
"145 116 OFFCURVE",
"137 118 OFFCURVE",
"128 118 CURVE SMOOTH",
"119 118 OFFCURVE",
"111 116 OFFCURVE",
"103 113 CURVE SMOOTH",
"95 110 OFFCURVE",
"87 106 OFFCURVE",
"81 100 CURVE SMOOTH",
"75 94 OFFCURVE",
"70 88 OFFCURVE",
"66 80 CURVE SMOOTH",
"62 72 OFFCURVE",
"59 64 OFFCURVE",
"58 55 CURVE SMOOTH"
);
}
);
width = 425;
},
{
layerId = "18B4A443-2C69-4DCB-9619-77A7DD6AC8EC";
paths = (
{
closed = 1;
nodes = (
"45 630 LINE SMOOTH",
"52 619 OFFCURVE",
"60 621 OFFCURVE",
"69 629 CURVE SMOOTH",
"102 657 OFFCURVE",
"148 676 OFFCURVE",
"199 676 CURVE SMOOTH",
"271 676 OFFCURVE",
"323 632 OFFCURVE",
"315 562 CURVE SMOOTH",
"307 504 OFFCURVE",
"272 463 OFFCURVE",
"218 427 CURVE SMOOTH",
"163 390 OFFCURVE",
"131 367 OFFCURVE",
"126 331 CURVE",
"118 243 LINE",
"150 243 LINE",
"166 325 LINE SMOOTH",
"173 358 OFFCURVE",
"205 373 OFFCURVE",
"261 414 CURVE",
"313 448 OFFCURVE",
"353 499 OFFCURVE",
"360 564 CURVE SMOOTH",
"372 654 OFFCURVE",
"302 716 OFFCURVE",
"208 716 CURVE SMOOTH",
"148 716 OFFCURVE",
"81 687 OFFCURVE",
"35 646 CURVE"
);
},
{
closed = 1;
nodes = (
"128 -8 OFFCURVE",
"152 14 OFFCURVE",
"154 39 CURVE SMOOTH",
"157 63 OFFCURVE",
"140 85 OFFCURVE",
"114 85 CURVE SMOOTH",
"88 85 OFFCURVE",
"64 63 OFFCURVE",
"62 39 CURVE SMOOTH",
"60 14 OFFCURVE",
"77 -8 OFFCURVE",
"103 -8 CURVE SMOOTH"
);
}
);
width = 399;
},
{
layerId = "A0CD44AA-8F44-4864-B482-F84B7650FD25";
paths = (
{
closed = 1;
nodes = (
"48 606 LINE",
"52 596 OFFCURVE",
"60 591 OFFCURVE",
"72 591 CURVE SMOOTH",
"77 591 OFFCURVE",
"83 593 OFFCURVE",
"90 597 CURVE SMOOTH",
"97 601 OFFCURVE",
"105 606 OFFCURVE",
"115 611 CURVE SMOOTH",
"125 616 OFFCURVE",
"136 621 OFFCURVE",
"150 625 CURVE SMOOTH",
"164 629 OFFCURVE",
"180 631 OFFCURVE",
"199 631 CURVE SMOOTH",
"212 631 OFFCURVE",
"224 630 OFFCURVE",
"235 626 CURVE SMOOTH",
"246 622 OFFCURVE",
"255 617 OFFCURVE",
"262 610 CURVE SMOOTH",
"269 603 OFFCURVE",
"274 596 OFFCURVE",
"277 586 CURVE SMOOTH",
"280 576 OFFCURVE",
"281 565 OFFCURVE",
"280 553 CURVE SMOOTH",
"278 535 OFFCURVE",
"272 519 OFFCURVE",
"263 506 CURVE SMOOTH",
"254 493 OFFCURVE",
"244 482 OFFCURVE",
"232 471 CURVE",
"220 461 OFFCURVE",
"206 450 OFFCURVE",
"192 441 CURVE SMOOTH",
"178 432 OFFCURVE",
"166 424 OFFCURVE",
"154 414 CURVE",
"142 405 OFFCURVE",
"131 394 OFFCURVE",
"122 383 CURVE SMOOTH",
"113 372 OFFCURVE",
"109 360 OFFCURVE",
"107 345 CURVE",
"106 341 LINE",
"106 336 LINE",
"105 255 LINE",
"189 255 LINE",
"210 328 LINE SMOOTH",
"213 339 OFFCURVE",
"218 348 OFFCURVE",
"228 357 CURVE",
"238 365 OFFCURVE",
"249 374 OFFCURVE",
"262 383 CURVE SMOOTH",
"275 392 OFFCURVE",
"288 401 OFFCURVE",
"302 411 CURVE SMOOTH",
"316 421 OFFCURVE",
"330 432 OFFCURVE",
"343 446 CURVE SMOOTH",
"356 460 OFFCURVE",
"367 476 OFFCURVE",
"377 495 CURVE SMOOTH",
"387 513 OFFCURVE",
"393 535 OFFCURVE",
"396 560 CURVE SMOOTH",
"399 586 OFFCURVE",
"397 610 OFFCURVE",
"390 631 CURVE SMOOTH",
"383 652 OFFCURVE",
"372 670 OFFCURVE",
"357 685 CURVE SMOOTH",
"342 700 OFFCURVE",
"323 711 OFFCURVE",
"300 719 CURVE SMOOTH",
"277 727 OFFCURVE",
"252 731 OFFCURVE",
"223 731 CURVE SMOOTH",
"202 731 OFFCURVE",
"181 729 OFFCURVE",
"162 725 CURVE SMOOTH",
"143 721 OFFCURVE",
"125 716 OFFCURVE",
"109 709 CURVE SMOOTH",
"93 702 OFFCURVE",
"78 695 OFFCURVE",
"63 686 CURVE SMOOTH",
"48 677 OFFCURVE",
"35 668 OFFCURVE",
"22 658 CURVE"
);
},
{
closed = 1;
nodes = (
"43 57 OFFCURVE",
"43 47 OFFCURVE",
"46 38 CURVE SMOOTH",
"49 29 OFFCURVE",
"53 21 OFFCURVE",
"59 14 CURVE SMOOTH",
"65 7 OFFCURVE",
"73 3 OFFCURVE",
"82 -1 CURVE SMOOTH",
"91 -5 OFFCURVE",
"100 -7 OFFCURVE",
"111 -7 CURVE SMOOTH",
"121 -7 OFFCURVE",
"131 -5 OFFCURVE",
"141 -1 CURVE SMOOTH",
"151 3 OFFCURVE",
"160 7 OFFCURVE",
"167 14 CURVE SMOOTH",
"174 21 OFFCURVE",
"181 29 OFFCURVE",
"186 38 CURVE SMOOTH",
"191 47 OFFCURVE",
"195 57 OFFCURVE",
"196 68 CURVE SMOOTH",
"197 78 OFFCURVE",
"196 89 OFFCURVE",
"193 98 CURVE SMOOTH",
"190 107 OFFCURVE",
"186 115 OFFCURVE",
"180 122 CURVE SMOOTH",
"174 129 OFFCURVE",
"167 134 OFFCURVE",
"158 138 CURVE SMOOTH",
"149 142 OFFCURVE",
"139 144 OFFCURVE",
"129 144 CURVE SMOOTH",
"118 144 OFFCURVE",
"109 142 OFFCURVE",
"99 138 CURVE SMOOTH",
"89 134 OFFCURVE",
"80 128 OFFCURVE",
"72 121 CURVE SMOOTH",
"64 114 OFFCURVE",
"58 106 OFFCURVE",
"53 97 CURVE SMOOTH",
"48 88 OFFCURVE",
"45 78 OFFCURVE",
"44 68 CURVE SMOOTH"
);
}
);
width = 440;
}
);
note = question;
unicode = 003F;
},
{
glyphname = at;
layers = (
{
layerId = "C87851D2-2817-4F36-A784-A5AE84D7BDA8";
paths = (
{
closed = 1;
nodes = (
"592 93 OFFCURVE",
"619 99 OFFCURVE",
"645 112 CURVE SMOOTH",
"671 125 OFFCURVE",
"693 142 OFFCURVE",
"714 164 CURVE SMOOTH",
"735 186 OFFCURVE",
"752 214 OFFCURVE",
"766 244 CURVE SMOOTH",
"780 274 OFFCURVE",
"789 308 OFFCURVE",
"793 344 CURVE SMOOTH",
"797 380 OFFCURVE",
"797 413 OFFCURVE",
"792 443 CURVE SMOOTH",
"787 473 OFFCURVE",
"778 501 OFFCURVE",
"765 526 CURVE SMOOTH",
"752 551 OFFCURVE",
"737 573 OFFCURVE",
"717 592 CURVE SMOOTH",
"697 611 OFFCURVE",
"675 627 OFFCURVE",
"650 640 CURVE SMOOTH",
"625 653 OFFCURVE",
"600 663 OFFCURVE",
"571 670 CURVE SMOOTH",
"542 677 OFFCURVE",
"513 680 OFFCURVE",
"482 680 CURVE SMOOTH",
"446 680 OFFCURVE",
"411 675 OFFCURVE",
"377 665 CURVE SMOOTH",
"343 656 OFFCURVE",
"310 642 OFFCURVE",
"279 625 CURVE SMOOTH",
"248 608 OFFCURVE",
"220 587 OFFCURVE",
"194 563 CURVE SMOOTH",
"168 539 OFFCURVE",
"144 512 OFFCURVE",
"124 483 CURVE SMOOTH",
"104 454 OFFCURVE",
"87 423 OFFCURVE",
"74 389 CURVE SMOOTH",
"61 355 OFFCURVE",
"51 320 OFFCURVE",
"47 284 CURVE SMOOTH",
"39 221 OFFCURVE",
"42 164 OFFCURVE",
"57 114 CURVE SMOOTH",
"72 64 OFFCURVE",
"96 21 OFFCURVE",
"128 -13 CURVE SMOOTH",
"160 -47 OFFCURVE",
"200 -74 OFFCURVE",
"247 -92 CURVE SMOOTH",
"294 -110 OFFCURVE",
"347 -119 OFFCURVE",
"405 -119 CURVE SMOOTH",
"463 -119 OFFCURVE",
"515 -113 OFFCURVE",
"562 -99 CURVE SMOOTH",
"609 -85 OFFCURVE",
"652 -66 OFFCURVE",
"691 -42 CURVE",
"682 -9 LINE SMOOTH",
"680 -1 OFFCURVE",
"675 3 OFFCURVE",
"668 3 CURVE SMOOTH",
"664 3 OFFCURVE",
"659 1 OFFCURVE",
"654 -2 CURVE SMOOTH",
"624 -19 OFFCURVE",
"589 -33 OFFCURVE",
"549 -44 CURVE SMOOTH",
"509 -55 OFFCURVE",
"463 -60 OFFCURVE",
"412 -60 CURVE SMOOTH",
"364 -60 OFFCURVE",
"321 -53 OFFCURVE",
"281 -38 CURVE SMOOTH",
"241 -23 OFFCURVE",
"208 -2 OFFCURVE",
"181 27 CURVE SMOOTH",
"154 56 OFFCURVE",
"134 92 OFFCURVE",
"121 135 CURVE SMOOTH",
"108 178 OFFCURVE",
"106 227 OFFCURVE",
"113 284 CURVE SMOOTH",
"119 332 OFFCURVE",
"132 377 OFFCURVE",
"154 418 CURVE SMOOTH",
"176 459 OFFCURVE",
"203 495 OFFCURVE",
"236 525 CURVE SMOOTH",
"269 555 OFFCURVE",
"305 578 OFFCURVE",
"346 595 CURVE SMOOTH",
"387 612 OFFCURVE",
"430 621 OFFCURVE",
"475 621 CURVE SMOOTH",
"516 621 OFFCURVE",
"552 615 OFFCURVE",
"586 603 CURVE SMOOTH",
"620 592 OFFCURVE",
"649 574 OFFCURVE",
"672 551 CURVE SMOOTH",
"695 528 OFFCURVE",
"711 500 OFFCURVE",
"722 465 CURVE SMOOTH",
"733 430 OFFCURVE",
"735 390 OFFCURVE",
"729 344 CURVE SMOOTH",
"725 315 OFFCURVE",
"719 288 OFFCURVE",
"710 264 CURVE SMOOTH",
"701 240 OFFCURVE",
"689 220 OFFCURVE",
"676 203 CURVE SMOOTH",
"663 186 OFFCURVE",
"648 173 OFFCURVE",
"632 164 CURVE SMOOTH",
"616 155 OFFCURVE",
"600 150 OFFCURVE",
"584 150 CURVE SMOOTH",
"576 150 OFFCURVE",
"570 150 OFFCURVE",
"563 152 CURVE SMOOTH",
"556 154 OFFCURVE",
"551 157 OFFCURVE",
"546 161 CURVE SMOOTH",
"541 165 OFFCURVE",
"538 172 OFFCURVE",
"536 180 CURVE SMOOTH",
"534 188 OFFCURVE",
"534 198 OFFCURVE",
"535 210 CURVE",
"537 226 OFFCURVE",
"543 247 OFFCURVE",
"552 272 CURVE SMOOTH",
"621 452 LINE",
"607 459 OFFCURVE",
"591 463 OFFCURVE",
"575 467 CURVE SMOOTH",
"559 471 OFFCURVE",
"539 473 OFFCURVE",
"517 473 CURVE SMOOTH",
"475 473 OFFCURVE",
"438 466 OFFCURVE",
"404 451 CURVE SMOOTH",
"370 436 OFFCURVE",
"341 417 OFFCURVE",
"317 394 CURVE SMOOTH",
"293 371 OFFCURVE",
"273 345 OFFCURVE",
"259 316 CURVE SMOOTH",
"245 287 OFFCURVE",
"235 258 OFFCURVE",
"232 230 CURVE SMOOTH",
"230 211 OFFCURVE",
"230 193 OFFCURVE",
"233 176 CURVE SMOOTH",
"236 159 OFFCURVE",
"242 145 OFFCURVE",
"250 133 CURVE SMOOTH",
"258 121 OFFCURVE",
"269 111 OFFCURVE",
"283 104 CURVE SMOOTH",
"297 97 OFFCURVE",
"314 94 OFFCURVE",
"334 94 CURVE SMOOTH",
"360 94 OFFCURVE",
"385 100 OFFCURVE",
"409 112 CURVE SMOOTH",
"433 124 OFFCURVE",
"456 143 OFFCURVE",
"479 170 CURVE",
"480 144 OFFCURVE",
"488 124 OFFCURVE",
"503 112 CURVE SMOOTH",
"518 100 OFFCURVE",
"538 93 OFFCURVE",
"564 93 CURVE SMOOTH"
);
},
{
closed = 1;
nodes = (
"336 153 OFFCURVE",
"321 161 OFFCURVE",
"312 175 CURVE SMOOTH",
"303 189 OFFCURVE",
"300 209 OFFCURVE",
"303 233 CURVE SMOOTH",
"306 256 OFFCURVE",
"313 278 OFFCURVE",
"324 300 CURVE SMOOTH",
"335 322 OFFCURVE",
"349 342 OFFCURVE",
"366 359 CURVE SMOOTH",
"383 376 OFFCURVE",
"403 390 OFFCURVE",
"425 400 CURVE SMOOTH",
"447 410 OFFCURVE",
"471 416 OFFCURVE",
"496 416 CURVE SMOOTH",
"511 416 OFFCURVE",
"525 414 OFFCURVE",
"538 411 CURVE",
"482 264 LINE SMOOTH",
"474 242 OFFCURVE",
"464 224 OFFCURVE",
"454 210 CURVE SMOOTH",
"444 196 OFFCURVE",
"434 184 OFFCURVE",
"423 176 CURVE SMOOTH",
"412 168 OFFCURVE",
"401 161 OFFCURVE",
"390 158 CURVE SMOOTH",
"379 155 OFFCURVE",
"368 153 OFFCURVE",
"358 153 CURVE SMOOTH"
);
}
);
width = 839;
},
{
layerId = "18B4A443-2C69-4DCB-9619-77A7DD6AC8EC";
paths = (
{
closed = 1;
nodes = (
"675 94 OFFCURVE",
"761 215 OFFCURVE",
"775 339 CURVE SMOOTH",
"800 535 OFFCURVE",
"671 666 OFFCURVE",
"474 666 CURVE SMOOTH",
"263 666 OFFCURVE",
"80 495 OFFCURVE",
"52 274 CURVE SMOOTH",
"22 40 OFFCURVE",
"160 -119 OFFCURVE",
"396 -119 CURVE SMOOTH",
"492 -119 OFFCURVE",
"594 -95 OFFCURVE",
"678 -42 CURVE",
"672 -24 LINE",
"670 -18 OFFCURVE",
"662 -15 OFFCURVE",
"654 -19 CURVE",
"585 -61 OFFCURVE",
"491 -86 OFFCURVE",
"400 -86 CURVE SMOOTH",
"189 -86 OFFCURVE",
"61 55 OFFCURVE",
"88 274 CURVE SMOOTH",
"111 471 OFFCURVE",
"275 632 OFFCURVE",
"470 632 CURVE SMOOTH",
"651 632 OFFCURVE",
"762 525 OFFCURVE",
"739 339 CURVE SMOOTH",
"725 234 OFFCURVE",
"666 126 OFFCURVE",
"569 126 CURVE SMOOTH",
"500 126 OFFCURVE",
"496 181 OFFCURVE",
"532 270 CURVE SMOOTH",
"599 444 LINE",
"576 455 OFFCURVE",
"538 462 OFFCURVE",
"509 462 CURVE SMOOTH",
"374 462 OFFCURVE",
"250 351 OFFCURVE",
"236 222 CURVE SMOOTH",
"228 147 OFFCURVE",
"259 96 OFFCURVE",
"330 96 CURVE SMOOTH",
"392 96 OFFCURVE",
"442 130 OFFCURVE",
"480 184 CURVE",
"474 125 OFFCURVE",
"500 94 OFFCURVE",
"559 94 CURVE SMOOTH"
);
},
{
closed = 1;
nodes = (
"290 129 OFFCURVE",
"267 173 OFFCURVE",
"275 223 CURVE SMOOTH",
"288 328 OFFCURVE",
"387 430 OFFCURVE",
"499 430 CURVE SMOOTH",
"523 430 OFFCURVE",
"528 428 OFFCURVE",
"553 422 CURVE",
"494 268 LINE SMOOTH",
"467 193 OFFCURVE",
"416 129 OFFCURVE",
"343 129 CURVE SMOOTH"
);
}
);
width = 826;
},
{
layerId = "A0CD44AA-8F44-4864-B482-F84B7650FD25";
paths = (
{
closed = 1;
nodes = (
"594 92 OFFCURVE",
"623 99 OFFCURVE",
"650 112 CURVE SMOOTH",
"677 125 OFFCURVE",
"701 143 OFFCURVE",
"723 166 CURVE SMOOTH",
"745 189 OFFCURVE",
"763 216 OFFCURVE",
"777 247 CURVE SMOOTH",
"791 278 OFFCURVE",
"801 312 OFFCURVE",
"805 348 CURVE SMOOTH",
"812 401 OFFCURVE",
"808 449 OFFCURVE",
"793 491 CURVE SMOOTH",
"778 533 OFFCURVE",
"756 569 OFFCURVE",
"726 599 CURVE SMOOTH",
"696 629 OFFCURVE",
"660 651 OFFCURVE",
"618 667 CURVE SMOOTH",
"576 683 OFFCURVE",
"532 691 OFFCURVE",
"485 691 CURVE SMOOTH",
"448 691 OFFCURVE",
"411 686 OFFCURVE",
"376 676 CURVE SMOOTH",
"341 666 OFFCURVE",
"308 653 OFFCURVE",
"276 635 CURVE SMOOTH",
"244 617 OFFCURVE",
"215 597 OFFCURVE",
"188 572 CURVE SMOOTH",
"161 547 OFFCURVE",
"137 520 OFFCURVE",
"116 490 CURVE SMOOTH",
"95 460 OFFCURVE",
"79 430 OFFCURVE",
"66 396 CURVE SMOOTH",
"53 362 OFFCURVE",
"43 328 OFFCURVE",
"39 292 CURVE SMOOTH",
"31 228 OFFCURVE",
"35 171 OFFCURVE",
"50 120 CURVE SMOOTH",
"65 69 OFFCURVE",
"89 26 OFFCURVE",
"122 -10 CURVE SMOOTH",
"155 -46 OFFCURVE",
"196 -73 OFFCURVE",
"245 -92 CURVE SMOOTH",
"294 -111 OFFCURVE",
"349 -120 OFFCURVE",
"409 -120 CURVE SMOOTH",
"468 -120 OFFCURVE",
"522 -113 OFFCURVE",
"570 -99 CURVE SMOOTH",
"618 -85 OFFCURVE",
"661 -67 OFFCURVE",
"698 -44 CURVE",
"687 1 LINE SMOOTH",
"684 12 OFFCURVE",
"678 17 OFFCURVE",
"668 17 CURVE SMOOTH",
"663 17 OFFCURVE",
"658 16 OFFCURVE",
"651 12 CURVE SMOOTH",
"638 5 OFFCURVE",
"623 -2 OFFCURVE",
"607 -8 CURVE SMOOTH",
"591 -14 OFFCURVE",
"573 -20 OFFCURVE",
"554 -25 CURVE SMOOTH",
"535 -30 OFFCURVE",
"514 -33 OFFCURVE",
"491 -36 CURVE SMOOTH",
"468 -39 OFFCURVE",
"445 -40 OFFCURVE",
"419 -40 CURVE SMOOTH",
"372 -40 OFFCURVE",
"329 -34 OFFCURVE",
"291 -20 CURVE SMOOTH",
"253 -6 OFFCURVE",
"220 15 OFFCURVE",
"194 43 CURVE SMOOTH",
"168 71 OFFCURVE",
"149 105 OFFCURVE",
"137 147 CURVE SMOOTH",
"125 189 OFFCURVE",
"122 237 OFFCURVE",
"129 292 CURVE SMOOTH",
"135 337 OFFCURVE",
"148 379 OFFCURVE",
"168 418 CURVE SMOOTH",
"188 457 OFFCURVE",
"214 490 OFFCURVE",
"245 519 CURVE SMOOTH",
"276 548 OFFCURVE",
"311 571 OFFCURVE",
"351 587 CURVE SMOOTH",
"391 603 OFFCURVE",
"431 612 OFFCURVE",
"475 612 CURVE SMOOTH",
"515 612 OFFCURVE",
"552 606 OFFCURVE",
"584 595 CURVE SMOOTH",
"616 584 OFFCURVE",
"643 567 OFFCURVE",
"664 545 CURVE SMOOTH",
"685 523 OFFCURVE",
"702 495 OFFCURVE",
"711 462 CURVE SMOOTH",
"720 429 OFFCURVE",
"722 391 OFFCURVE",
"717 348 CURVE SMOOTH",
"714 322 OFFCURVE",
"708 298 OFFCURVE",
"700 276 CURVE SMOOTH",
"692 254 OFFCURVE",
"682 234 OFFCURVE",
"671 218 CURVE SMOOTH",
"660 202 OFFCURVE",
"647 190 OFFCURVE",
"633 181 CURVE SMOOTH",
"619 172 OFFCURVE",
"606 168 OFFCURVE",
"592 168 CURVE SMOOTH",
"585 168 OFFCURVE",
"579 168 OFFCURVE",
"573 170 CURVE SMOOTH",
"567 172 OFFCURVE",
"562 174 OFFCURVE",
"558 178 CURVE SMOOTH",
"554 182 OFFCURVE",
"552 187 OFFCURVE",
"550 194 CURVE SMOOTH",
"548 201 OFFCURVE",
"549 210 OFFCURVE",
"550 220 CURVE",
"552 234 OFFCURVE",
"556 252 OFFCURVE",
"564 273 CURVE SMOOTH",
"635 458 LINE",
"619 465 OFFCURVE",
"602 472 OFFCURVE",
"584 476 CURVE SMOOTH",
"566 480 OFFCURVE",
"545 482 OFFCURVE",
"519 482 CURVE SMOOTH",
"489 482 OFFCURVE",
"462 478 OFFCURVE",
"437 471 CURVE SMOOTH",
"412 464 OFFCURVE",
"388 455 OFFCURVE",
"367 443 CURVE SMOOTH",
"346 431 OFFCURVE",
"327 418 OFFCURVE",
"311 402 CURVE SMOOTH",
"295 386 OFFCURVE",
"280 369 OFFCURVE",
"268 351 CURVE SMOOTH",
"256 333 OFFCURVE",
"247 314 OFFCURVE",
"240 294 CURVE SMOOTH",
"233 274 OFFCURVE",
"227 256 OFFCURVE",
"225 237 CURVE",
"222 216 OFFCURVE",
"223 197 OFFCURVE",
"226 179 CURVE SMOOTH",
"229 161 OFFCURVE",
"235 147 OFFCURVE",
"244 134 CURVE SMOOTH",
"253 121 OFFCURVE",
"264 111 OFFCURVE",
"279 104 CURVE SMOOTH",
"294 97 OFFCURVE",
"312 93 OFFCURVE",
"333 93 CURVE SMOOTH",
"358 93 OFFCURVE",
"383 98 OFFCURVE",
"406 108 CURVE SMOOTH",
"429 118 OFFCURVE",
"451 136 OFFCURVE",
"474 160 CURVE",
"478 136 OFFCURVE",
"488 119 OFFCURVE",
"505 108 CURVE SMOOTH",
"522 97 OFFCURVE",
"541 92 OFFCURVE",
"564 92 CURVE SMOOTH"
);
},
{
closed = 1;
nodes = (
"349 172 OFFCURVE",
"337 178 OFFCURVE",
"329 190 CURVE SMOOTH",
"321 202 OFFCURVE",
"318 219 OFFCURVE",
"321 240 CURVE SMOOTH",
"324 261 OFFCURVE",
"330 281 OFFCURVE",
"340 301 CURVE SMOOTH",
"350 321 OFFCURVE",
"363 339 OFFCURVE",
"378 354 CURVE SMOOTH",
"393 369 OFFCURVE",
"410 382 OFFCURVE",
"429 391 CURVE SMOOTH",
"448 400 OFFCURVE",
"468 404 OFFCURVE",
"489 404 CURVE SMOOTH",
"500 404 OFFCURVE",
"511 403 OFFCURVE",
"521 401 CURVE",
"468 260 LINE SMOOTH",
"462 243 OFFCURVE",
"454 229 OFFCURVE",
"446 218 CURVE SMOOTH",
"438 207 OFFCURVE",
"430 197 OFFCURVE",
"421 190 CURVE SMOOTH",
"412 183 OFFCURVE",
"403 179 OFFCURVE",
"394 176 CURVE SMOOTH",
"385 173 OFFCURVE",
"376 172 OFFCURVE",
"367 172 CURVE SMOOTH"
);
}
);
width = 843;
}
);
leftKerningGroup = O;
note = at;
rightKerningGroup = O;
unicode = 0040;
},
{
glyphname = A;
layers = (
{
anchors = (
{
name = bottom;
position = "{368, 0}";
},
{
name = ogonek;
position = "{673, 10}";
},
{
name = top;
position = "{454, 716}";
}
);
layerId = "C87851D2-2817-4F36-A784-A5AE84D7BDA8";
paths = (
{
closed = 1;
nodes = (
"680 68 LINE",
"500 716 LINE",
"402 716 LINE",
"63 68 LINE",
"21 56 LINE",
"12 54 OFFCURVE",
"7 49 OFFCURVE",
"6 40 CURVE SMOOTH",
"1 0 LINE",
"207 0 LINE",
"212 40 LINE SMOOTH",
"213 49 OFFCURVE",
"209 54 OFFCURVE",
"200 56 CURVE",
"161 68 LINE",
"235 212 LINE",
"544 212 LINE",
"582 68 LINE",
"539 56 LINE",
"530 54 OFFCURVE",
"525 49 OFFCURVE",
"524 40 CURVE SMOOTH",
"519 0 LINE",
"725 0 LINE",
"729 40 LINE SMOOTH",
"730 49 OFFCURVE",
"726 54 OFFCURVE",
"718 56 CURVE"
);
},
{
closed = 1;
nodes = (
"270 282 LINE",
"410 557 LINE SMOOTH",
"418 573 OFFCURVE",
"428 596 OFFCURVE",
"440 625 CURVE",
"444 598 OFFCURVE",
"448 576 OFFCURVE",
"453 558 CURVE SMOOTH",
"525 282 LINE"
);
}
);
width = 730;
},
{
anchors = (
{
name = bottom;
position = "{397, 0}";
},
{
name = ogonek;
position = "{735, 10}";
},
{
name = top;
position = "{466, 708}";
}
);
components = (
{
name = serifBottom;
transform = "{1, 0, 0, 1, -38, 0}";
},
{
name = serifBottom;
transform = "{1, 0, 0, 1, 514, 0}";
}
);
layerId = "18B4A443-2C69-4DCB-9619-77A7DD6AC8EC";
paths = (
{
closed = 1;
nodes = (
"124 0 LINE",
"148 46 LINE",
"245 232 LINE",
"583 232 LINE",
"635 46 LINE",
"648 0 LINE",
"701 0 LINE",
"687 46 LINE",
"498 708 LINE",
"447 708 LINE",
"95 46 LINE",
"69 0 LINE"
);
},
{
closed = 1;
nodes = (
"447 614 LINE SMOOTH",
"452 624 OFFCURVE",
"462 644 OFFCURVE",
"466 656 CURVE",
"468 644 OFFCURVE",
"473 625 OFFCURVE",
"475 615 CURVE",
"572 270 LINE",
"266 270 LINE"
);
}
);
width = 777;
},
{
anchors = (
{
name = bottom;
position = "{394, 0}";
},
{
name = ogonek;
position = "{723, 10}";
},
{
name = top;
position = "{394, 723}";
}
);
layerId = "A0CD44AA-8F44-4864-B482-F84B7650FD25";
paths = (
{
closed = 1;
nodes = (
"762 79 OFFCURVE",
"745 87 OFFCURVE",
"715 100 CURVE",
"547 723 LINE",
"409 723 LINE",
"88 100 LINE",
"55 87 OFFCURVE",
"36 79 OFFCURVE",
"30 77 CURVE",
"16 71 OFFCURVE",
"8 63 OFFCURVE",
"7 51 CURVE SMOOTH",
"1 0 LINE",
"36 0 LINE",
"115 0 LINE",
"131 0 LINE",
"141 0 LINE",
"245 0 LINE",
"252 51 LINE",
"253 63 OFFCURVE",
"248 71 OFFCURVE",
"235 77 CURVE SMOOTH",
"233 78 OFFCURVE",
"226 80 OFFCURVE",
"216 85 CURVE",
"219 91 LINE",
"269 194 LINE",
"557 194 LINE",
"581 96 LINE",
"583 85 LINE",
"572 80 OFFCURVE",
"565 78 OFFCURVE",
"562 77 CURVE",
"548 71 OFFCURVE",
"540 63 OFFCURVE",
"539 51 CURVE SMOOTH",
"533 0 LINE",
"638 0 LINE",
"647 0 LINE",
"664 0 LINE",
"742 0 LINE",
"777 0 LINE",
"784 51 LINE",
"785 63 OFFCURVE",
"780 72 OFFCURVE",
"767 77 CURVE SMOOTH"
);
},
{
closed = 1;
nodes = (
"425 513 LINE",
"431 524 OFFCURVE",
"437 536 OFFCURVE",
"443 551 CURVE SMOOTH",
"449 566 OFFCURVE",
"455 581 OFFCURVE",
"462 598 CURVE",
"465 581 OFFCURVE",
"468 565 OFFCURVE",
"471 551 CURVE SMOOTH",
"474 537 OFFCURVE",
"477 524 OFFCURVE",
"480 513 CURVE SMOOTH",
"534 289 LINE",
"315 289 LINE"
);
}
);
width = 785;
}
);
leftKerningGroup = A;
note = A;
rightKerningGroup = A;
unicode = 0041;
},
{
glyphname = B;
layers = (
{
anchors = (
{
name = bottom;
position = "{348, 0}";
},
{
name = top;
position = "{434, 716}";
}
);
layerId = "C87851D2-2817-4F36-A784-A5AE84D7BDA8";
paths = (
{
closed = 1;
nodes = (
"566 382 OFFCURVE",
"602 404 OFFCURVE",
"629 433 CURVE SMOOTH",
"642 447 OFFCURVE",
"652 462 OFFCURVE",
"660 478 CURVE SMOOTH",
"668 494 OFFCURVE",
"672 515 OFFCURVE",
"675 538 CURVE SMOOTH",
"678 561 OFFCURVE",
"676 585 OFFCURVE",
"669 608 CURVE SMOOTH",
"647 680 OFFCURVE",
"572 716 OFFCURVE",
"444 716 CURVE SMOOTH",
"144 716 LINE",
"139 674 LINE SMOOTH",
"138 664 OFFCURVE",
"141 657 OFFCURVE",
"151 655 CURVE SMOOTH",
"157 654 OFFCURVE",
"176 650 OFFCURVE",
"207 644 CURVE",
"137 73 LINE",
"79 62 LINE SMOOTH",
"69 60 OFFCURVE",
"62 53 OFFCURVE",
"61 43 CURVE SMOOTH",
"56 0 LINE",
"381 0 LINE SMOOTH",
"460 0 OFFCURVE",
"524 18 OFFCURVE",
"574 56 CURVE SMOOTH",
"622 93 OFFCURVE",
"650 142 OFFCURVE",
"658 204 CURVE SMOOTH",
"669 293 OFFCURVE",
"623 347 OFFCURVE",
"520 368 CURVE"
);
},
{
closed = 1;
nodes = (
"304 640 LINE",
"435 640 LINE SMOOTH",
"488 640 OFFCURVE",
"526 630 OFFCURVE",
"549 610 CURVE SMOOTH",
"572 590 OFFCURVE",
"581 560 OFFCURVE",
"576 518 CURVE SMOOTH",
"574 500 OFFCURVE",
"568 483 OFFCURVE",
"560 468 CURVE SMOOTH",
"534 420 OFFCURVE",
"482 396 OFFCURVE",
"402 396 CURVE SMOOTH",
"274 396 LINE"
);
},
{
closed = 1;
nodes = (
"234 77 LINE",
"265 326 LINE",
"420 326 LINE SMOOTH",
"473 326 OFFCURVE",
"510 316 OFFCURVE",
"534 294 CURVE SMOOTH",
"558 272 OFFCURVE",
"568 243 OFFCURVE",
"563 206 CURVE SMOOTH",
"561 187 OFFCURVE",
"555 170 OFFCURVE",
"547 154 CURVE SMOOTH",
"521 102 OFFCURVE",
"469 77 OFFCURVE",
"389 77 CURVE SMOOTH"
);
}
);
width = 719;
},
{
anchors = (
{
name = bottom;
position = "{361, 0}";
},
{
name = top;
position = "{361, 708}";
}
);
layerId = "18B4A443-2C69-4DCB-9619-77A7DD6AC8EC";
paths = (
{
closed = 1;
nodes = (
"589 346 OFFCURVE",
"481 362 CURVE",
"565 383 OFFCURVE",
"637 445 OFFCURVE",
"646 527 CURVE SMOOTH",
"659 657 OFFCURVE",
"574 708 OFFCURVE",
"433 708 CURVE SMOOTH",
"145 708 LINE",
"142 689 LINE",
"141 678 OFFCURVE",
"147 672 OFFCURVE",
"160 671 CURVE",
"224 669 LINE",
"147 40 LINE",
"82 38 LINE",
"69 37 OFFCURVE",
"61 31 OFFCURVE",
"60 20 CURVE SMOOTH",
"58 0 LINE",
"372 0 LINE SMOOTH",
"511 0 OFFCURVE",
"616 60 OFFCURVE",
"634 193 CURVE SMOOTH",
"646 289 OFFCURVE"
);
},
{
closed = 1;
nodes = (
"275 668 LINE",
"428 668 LINE SMOOTH",
"537 668 OFFCURVE",
"608 629 OFFCURVE",
"595 522 CURVE SMOOTH",
"585 430 OFFCURVE",
"496 376 OFFCURVE",
"393 376 CURVE SMOOTH",
"239 376 LINE"
);
},
{
closed = 1;
nodes = (
"494 41 OFFCURVE",
"376 41 CURVE SMOOTH",
"198 41 LINE",
"235 339 LINE",
"413 339 LINE SMOOTH",
"517 339 OFFCURVE",
"597 293 OFFCURVE",
"583 194 CURVE SMOOTH",
"570 90 OFFCURVE"
);
}
);
width = 691;
},
{
anchors = (
{
name = bottom;
position = "{382, 0}";
},
{
name = top;
position = "{382, 723}";
}
);
layerId = "A0CD44AA-8F44-4864-B482-F84B7650FD25";
paths = (
{
closed = 1;
nodes = (
"585 382 OFFCURVE",
"605 391 OFFCURVE",
"623 402 CURVE SMOOTH",
"641 413 OFFCURVE",
"655 424 OFFCURVE",
"667 438 CURVE",
"679 451 OFFCURVE",
"689 466 OFFCURVE",
"696 482 CURVE SMOOTH",
"703 498 OFFCURVE",
"707 514 OFFCURVE",
"709 531 CURVE SMOOTH",
"713 561 OFFCURVE",
"711 586 OFFCURVE",
"704 610 CURVE SMOOTH",
"697 634 OFFCURVE",
"683 654 OFFCURVE",
"664 671 CURVE SMOOTH",
"645 688 OFFCURVE",
"619 700 OFFCURVE",
"587 709 CURVE SMOOTH",
"555 718 OFFCURVE",
"514 723 OFFCURVE",
"467 723 CURVE SMOOTH",
"218 723 LINE",
"142 723 LINE",
"135 664 LINE SMOOTH",
"133 647 OFFCURVE",
"140 637 OFFCURVE",
"156 633 CURVE",
"157 633 OFFCURVE",
"159 633 OFFCURVE",
"162 632 CURVE",
"165 632 OFFCURVE",
"169 630 OFFCURVE",
"176 629 CURVE SMOOTH",
"183 628 OFFCURVE",
"193 626 OFFCURVE",
"205 624 CURVE",
"141 99 LINE",
"128 97 OFFCURVE",
"118 95 OFFCURVE",
"111 94 CURVE SMOOTH",
"104 93 OFFCURVE",
"98 91 OFFCURVE",
"95 91 CURVE SMOOTH",
"92 91 OFFCURVE",
"91 90 OFFCURVE",
"89 90 CURVE",
"72 86 OFFCURVE",
"62 76 OFFCURVE",
"60 59 CURVE SMOOTH",
"53 0 LINE",
"129 0 LINE",
"402 0 LINE SMOOTH",
"444 0 OFFCURVE",
"482 5 OFFCURVE",
"516 16 CURVE SMOOTH",
"550 27 OFFCURVE",
"579 41 OFFCURVE",
"604 60 CURVE SMOOTH",
"629 79 OFFCURVE",
"648 102 OFFCURVE",
"663 128 CURVE SMOOTH",
"678 154 OFFCURVE",
"687 182 OFFCURVE",
"691 213 CURVE SMOOTH",
"701 298 OFFCURVE",
"659 352 OFFCURVE",
"562 374 CURVE"
);
},
{
closed = 1;
nodes = (
"339 619 LINE",
"454 619 LINE SMOOTH",
"499 619 OFFCURVE",
"532 611 OFFCURVE",
"551 595 CURVE SMOOTH",
"570 579 OFFCURVE",
"578 552 OFFCURVE",
"573 514 CURVE SMOOTH",
"569 478 OFFCURVE",
"554 452 OFFCURVE",
"528 435 CURVE SMOOTH",
"502 418 OFFCURVE",
"467 410 OFFCURVE",
"421 410 CURVE SMOOTH",
"314 410 LINE"
);
},
{
closed = 1;
nodes = (
"540 160 OFFCURVE",
"531 148 OFFCURVE",
"520 138 CURVE SMOOTH",
"509 128 OFFCURVE",
"494 120 OFFCURVE",
"476 114 CURVE SMOOTH",
"458 108 OFFCURVE",
"438 105 OFFCURVE",
"413 105 CURVE SMOOTH",
"276 105 LINE",
"302 317 LINE",
"438 317 LINE SMOOTH",
"462 317 OFFCURVE",
"482 315 OFFCURVE",
"498 310 CURVE SMOOTH",
"514 305 OFFCURVE",
"526 299 OFFCURVE",
"536 290 CURVE SMOOTH",
"546 281 OFFCURVE",
"553 270 OFFCURVE",
"556 258 CURVE SMOOTH",
"559 245 OFFCURVE",
"560 232 OFFCURVE",
"558 216 CURVE SMOOTH",
"556 201 OFFCURVE",
"552 186 OFFCURVE",
"546 173 CURVE SMOOTH"
);
}
);
width = 751;
}
);
note = B;
rightKerningGroup = B;
unicode = 0042;
},
{
glyphname = C;
layers = (
{
anchors = (
{
name = bottom;
position = "{310, 0}";
},
{
name = top;
position = "{446, 716}";
}
);
layerId = "C87851D2-2817-4F36-A784-A5AE84D7BDA8";
paths = (
{
closed = 1;
nodes = (
"347 724 OFFCURVE",
"255 690 OFFCURVE",
"180 622 CURVE SMOOTH",
"105 554 OFFCURVE",
"60 466 OFFCURVE",
"47 358 CURVE SMOOTH",
"34 249 OFFCURVE",
"55 161 OFFCURVE",
"109 94 CURVE SMOOTH",
"163 26 OFFCURVE",
"241 -8 OFFCURVE",
"344 -8 CURVE SMOOTH",
"454 -8 OFFCURVE",
"544 28 OFFCURVE",
"615 100 CURVE",
"582 142 LINE",
"578 146 OFFCURVE",
"574 148 OFFCURVE",
"569 148 CURVE SMOOTH",
"564 148 OFFCURVE",
"557 145 OFFCURVE",
"551 140 CURVE SMOOTH",
"522 117 OFFCURVE",
"490 100 OFFCURVE",
"456 88 CURVE SMOOTH",
"434 80 OFFCURVE",
"402 76 OFFCURVE",
"360 76 CURVE SMOOTH",
"288 76 OFFCURVE",
"232 100 OFFCURVE",
"193 150 CURVE SMOOTH",
"151 202 OFFCURVE",
"135 271 OFFCURVE",
"146 358 CURVE SMOOTH",
"157 444 OFFCURVE",
"190 513 OFFCURVE",
"245 564 CURVE SMOOTH",
"330 644 OFFCURVE",
"444 661 OFFCURVE",
"588 614 CURVE",
"588 610 OFFCURVE",
"587 594 OFFCURVE",
"586 568 CURVE SMOOTH",
"585 542 OFFCURVE",
"584 527 OFFCURVE",
"585 523 CURVE",
"586 512 OFFCURVE",
"593 506 OFFCURVE",
"604 506 CURVE SMOOTH",
"652 506 LINE",
"666 617 LINE",
"673 673 LINE",
"586 707 OFFCURVE",
"514 724 OFFCURVE",
"457 724 CURVE SMOOTH"
);
}
);
width = 712;
},
{
anchors = (
{
name = bottom;
position = "{343, 0}";
},
{
name = top;
position = "{442, 708}";
}
);
layerId = "18B4A443-2C69-4DCB-9619-77A7DD6AC8EC";
paths = (
{
closed = 1;
nodes = (
"589 115 LINE",
"584 121 OFFCURVE",
"575 118 OFFCURVE",
"570 114 CURVE",
"504 60 OFFCURVE",
"442 36 OFFCURVE",
"349 36 CURVE SMOOTH",
"175 36 OFFCURVE",
"83 167 OFFCURVE",
"105 354 CURVE SMOOTH",
"127 538 OFFCURVE",
"256 671 OFFCURVE",
"438 671 CURVE SMOOTH",
"502 671 OFFCURVE",
"559 661 OFFCURVE",
"608 638 CURVE",
"600 529 LINE",
"599 513 OFFCURVE",
"605 505 OFFCURVE",
"619 505 CURVE SMOOTH",
"643 505 LINE",
"663 665 LINE",
"583 699 OFFCURVE",
"509 715 OFFCURVE",
"443 715 CURVE SMOOTH",
"233 715 OFFCURVE",
"80 566 OFFCURVE",
"52 354 CURVE SMOOTH",
"26 152 OFFCURVE",
"133 -8 OFFCURVE",
"340 -8 CURVE SMOOTH",
"442 -8 OFFCURVE",
"533 25 OFFCURVE",
"606 94 CURVE"
);
}
);
width = 705;
},
{
anchors = (
{
name = bottom;
position = "{355, 0}";
},
{
name = top;
position = "{355, 723}";
}
);
layerId = "A0CD44AA-8F44-4864-B482-F84B7650FD25";
paths = (
{
closed = 1;
nodes = (
"653 495 LINE",
"675 679 LINE",
"588 714 OFFCURVE",
"515 731 OFFCURVE",
"455 731 CURVE SMOOTH",
"400 731 OFFCURVE",
"349 722 OFFCURVE",
"301 704 CURVE SMOOTH",
"253 686 OFFCURVE",
"211 660 OFFCURVE",
"174 627 CURVE SMOOTH",
"137 594 OFFCURVE",
"108 556 OFFCURVE",
"84 511 CURVE SMOOTH",
"60 466 OFFCURVE",
"46 415 OFFCURVE",
"39 361 CURVE SMOOTH",
"32 307 OFFCURVE",
"34 258 OFFCURVE",
"45 213 CURVE SMOOTH",
"56 168 OFFCURVE",
"74 129 OFFCURVE",
"100 96 CURVE SMOOTH",
"126 63 OFFCURVE",
"160 38 OFFCURVE",
"201 20 CURVE SMOOTH",
"242 2 OFFCURVE",
"288 -8 OFFCURVE",
"342 -8 CURVE SMOOTH",
"402 -8 OFFCURVE",
"455 2 OFFCURVE",
"500 21 CURVE SMOOTH",
"545 40 OFFCURVE",
"584 68 OFFCURVE",
"618 104 CURVE",
"572 162 LINE SMOOTH",
"567 168 OFFCURVE",
"561 170 OFFCURVE",
"554 170 CURVE SMOOTH",
"550 170 OFFCURVE",
"546 170 OFFCURVE",
"542 168 CURVE SMOOTH",
"538 166 OFFCURVE",
"535 164 OFFCURVE",
"531 161 CURVE",
"519 151 OFFCURVE",
"506 142 OFFCURVE",
"494 135 CURVE SMOOTH",
"482 128 OFFCURVE",
"470 122 OFFCURVE",
"457 118 CURVE SMOOTH",
"444 114 OFFCURVE",
"430 111 OFFCURVE",
"415 109 CURVE SMOOTH",
"400 107 OFFCURVE",
"382 106 OFFCURVE",
"364 106 CURVE SMOOTH",
"333 106 OFFCURVE",
"306 111 OFFCURVE",
"281 123 CURVE SMOOTH",
"256 135 OFFCURVE",
"234 151 OFFCURVE",
"217 173 CURVE SMOOTH",
"200 195 OFFCURVE",
"188 221 OFFCURVE",
"180 253 CURVE SMOOTH",
"172 285 OFFCURVE",
"171 320 OFFCURVE",
"176 361 CURVE SMOOTH",
"181 400 OFFCURVE",
"192 436 OFFCURVE",
"207 468 CURVE SMOOTH",
"222 500 OFFCURVE",
"241 526 OFFCURVE",
"264 548 CURVE SMOOTH",
"287 570 OFFCURVE",
"314 587 OFFCURVE",
"344 599 CURVE SMOOTH",
"374 611 OFFCURVE",
"406 616 OFFCURVE",
"440 616 CURVE SMOOTH",
"478 616 OFFCURVE",
"522 609 OFFCURVE",
"575 593 CURVE",
"574 549 OFFCURVE",
"574 522 OFFCURVE",
"574 513 CURVE",
"575 501 OFFCURVE",
"582 495 OFFCURVE",
"595 495 CURVE SMOOTH"
);
}
);
width = 706;
}
);
leftKerningGroup = C;
note = C;
unicode = 0043;
},
{
glyphname = D;
layers = (
{
anchors = (
{
name = bottom;
position = "{403, 0}";
},
{
name = center;
position = "{446, 358}";
},
{
name = top;
position = "{489, 716}";
}
);
layerId = "C87851D2-2817-4F36-A784-A5AE84D7BDA8";
paths = (
{
closed = 1;
nodes = (
"796 465 OFFCURVE",
"774 552 OFFCURVE",
"717 618 CURVE SMOOTH",
"660 684 OFFCURVE",
"580 716 OFFCURVE",
"474 716 CURVE SMOOTH",
"143 716 LINE",
"138 674 LINE SMOOTH",
"137 664 OFFCURVE",
"141 657 OFFCURVE",
"151 655 CURVE SMOOTH",
"157 654 OFFCURVE",
"176 650 OFFCURVE",
"207 644 CURVE",
"136 73 LINE",
"78 62 LINE SMOOTH",
"68 60 OFFCURVE",
"62 53 OFFCURVE",
"61 43 CURVE SMOOTH",
"56 0 LINE",
"386 0 LINE SMOOTH",
"491 0 OFFCURVE",
"581 32 OFFCURVE",
"654 98 CURVE SMOOTH",
"689 129 OFFCURVE",
"717 168 OFFCURVE",
"739 212 CURVE SMOOTH",
"761 256 OFFCURVE",
"776 304 OFFCURVE",
"783 358 CURVE SMOOTH"
);
},
{
closed = 1;
nodes = (
"672 271 OFFCURVE",
"641 202 OFFCURVE",
"589 152 CURVE SMOOTH",
"538 103 OFFCURVE",
"474 78 OFFCURVE",
"396 78 CURVE SMOOTH",
"235 78 LINE",
"303 638 LINE",
"464 638 LINE SMOOTH",
"542 638 OFFCURVE",
"601 613 OFFCURVE",
"640 564 CURVE SMOOTH",
"659 540 OFFCURVE",
"672 511 OFFCURVE",
"680 476 CURVE SMOOTH",
"688 441 OFFCURVE",
"688 402 OFFCURVE",
"683 358 CURVE SMOOTH"
);
}
);
width = 830;
},
{
anchors = (
{
name = bottom;
position = "{424, 0}";
},
{
name = center;
position = "{424, 354}";
},
{
name = top;
position = "{448, 708}";
}
);
layerId = "18B4A443-2C69-4DCB-9619-77A7DD6AC8EC";
paths = (
{
closed = 1;
nodes = (
"688 707 OFFCURVE",
"475 707 CURVE SMOOTH",
"145 707 LINE",
"143 688 LINE SMOOTH",
"142 677 OFFCURVE",
"148 671 OFFCURVE",
"161 670 CURVE",
"225 668 LINE",
"148 40 LINE",
"83 38 LINE",
"70 37 OFFCURVE",
"62 31 OFFCURVE",
"61 20 CURVE",
"58 0 LINE",
"388 0 LINE SMOOTH",
"594 0 OFFCURVE",
"741 137 OFFCURVE",
"769 354 CURVE SMOOTH",
"796 560 OFFCURVE"
);
},
{
closed = 1;
nodes = (
"574 41 OFFCURVE",
"393 41 CURVE SMOOTH",
"199 41 LINE",
"276 666 LINE",
"470 666 LINE SMOOTH",
"649 666 OFFCURVE",
"739 542 OFFCURVE",
"716 354 CURVE SMOOTH",
"693 165 OFFCURVE"
);
}
);
width = 821;
},
{
anchors = (
{
name = bottom;
position = "{431, 0}";
},
{
name = center;
position = "{431, 362}";
},
{
name = top;
position = "{431, 723}";
}
);
layerId = "A0CD44AA-8F44-4864-B482-F84B7650FD25";
paths = (
{
closed = 1;
nodes = (
"784 552 OFFCURVE",
"763 590 OFFCURVE",
"735 622 CURVE SMOOTH",
"707 654 OFFCURVE",
"672 678 OFFCURVE",
"629 696 CURVE SMOOTH",
"586 714 OFFCURVE",
"538 723 OFFCURVE",
"483 723 CURVE SMOOTH",
"218 723 LINE",
"142 723 LINE",
"135 664 LINE SMOOTH",
"133 647 OFFCURVE",
"140 637 OFFCURVE",
"156 633 CURVE",
"157 633 OFFCURVE",
"159 632 OFFCURVE",
"162 632 CURVE SMOOTH",
"165 632 OFFCURVE",
"169 630 OFFCURVE",
"176 629 CURVE SMOOTH",
"183 628 OFFCURVE",
"193 626 OFFCURVE",
"205 624 CURVE",
"141 99 LINE",
"128 97 OFFCURVE",
"118 95 OFFCURVE",
"111 94 CURVE SMOOTH",
"104 93 OFFCURVE",
"98 91 OFFCURVE",
"95 91 CURVE SMOOTH",
"92 91 OFFCURVE",
"91 90 OFFCURVE",
"89 90 CURVE",
"72 86 OFFCURVE",
"62 76 OFFCURVE",
"60 59 CURVE SMOOTH",
"53 0 LINE",
"129 0 LINE",
"394 0 LINE SMOOTH",
"449 0 OFFCURVE",
"500 9 OFFCURVE",
"547 27 CURVE SMOOTH",
"594 45 OFFCURVE",
"635 69 OFFCURVE",
"671 101 CURVE SMOOTH",
"707 133 OFFCURVE",
"737 172 OFFCURVE",
"760 216 CURVE SMOOTH",
"783 260 OFFCURVE",
"797 309 OFFCURVE",
"804 362 CURVE SMOOTH",
"811 415 OFFCURVE",
"808 464 OFFCURVE",
"796 508 CURVE SMOOTH"
);
},
{
closed = 1;
nodes = (
"623 223 OFFCURVE",
"604 197 OFFCURVE",
"582 175 CURVE SMOOTH",
"560 153 OFFCURVE",
"534 137 OFFCURVE",
"504 125 CURVE SMOOTH",
"474 113 OFFCURVE",
"442 107 OFFCURVE",
"407 107 CURVE SMOOTH",
"277 107 LINE",
"340 616 LINE",
"470 616 LINE SMOOTH",
"505 616 OFFCURVE",
"536 610 OFFCURVE",
"563 598 CURVE SMOOTH",
"590 586 OFFCURVE",
"611 570 OFFCURVE",
"628 548 CURVE SMOOTH",
"645 526 OFFCURVE",
"657 499 OFFCURVE",
"664 468 CURVE SMOOTH",
"671 436 OFFCURVE",
"672 402 OFFCURVE",
"667 362 CURVE SMOOTH",
"662 322 OFFCURVE",
"653 287 OFFCURVE",
"638 255 CURVE SMOOTH"
);
}
);
width = 843;
}
);
note = D;
rightKerningGroup = D;
unicode = 0044;
},
{
glyphname = E;
layers = (
{
anchors = (
{
name = bottom;
position = "{321, 0}";
},
{
name = ogonek;
position = "{551, 10}";
},
{
name = top;
position = "{407, 716}";
},
{
name = topleft;
position = "{140, 716}";
}
);
layerId = "C87851D2-2817-4F36-A784-A5AE84D7BDA8";
paths = (
{
closed = 1;
nodes = (
"143 716 LINE",
"138 674 LINE SMOOTH",
"137 664 OFFCURVE",
"141 657 OFFCURVE",
"151 655 CURVE SMOOTH",
"157 654 OFFCURVE",
"176 650 OFFCURVE",
"207 644 CURVE",
"136 73 LINE",
"78 62 LINE SMOOTH",
"68 60 OFFCURVE",
"62 53 OFFCURVE",
"61 43 CURVE SMOOTH",
"56 0 LINE",
"569 0 LINE",
"590 167 LINE",
"542 167 LINE SMOOTH",
"530 167 OFFCURVE",
"522 161 OFFCURVE",
"518 150 CURVE SMOOTH",
"517 147 OFFCURVE",
"512 123 OFFCURVE",
"503 79 CURVE",
"235 79 LINE",
"265 324 LINE",
"529 324 LINE",
"538 400 LINE",
"274 400 LINE",
"303 638 LINE",
"571 638 LINE",
"569 590 OFFCURVE",
"569 564 OFFCURVE",
"569 561 CURVE",
"570 549 OFFCURVE",
"576 544 OFFCURVE",
"588 544 CURVE SMOOTH",
"636 544 LINE",
"657 716 LINE"
);
}
);
width = 702;
},
{
anchors = (
{
name = bottom;
position = "{353, 0}";
},
{
name = ogonek;
position = "{536, 10}";
},
{
name = top;
position = "{424, 708}";
},
{
name = topleft;
position = "{62, 708}";
}
);
layerId = "18B4A443-2C69-4DCB-9619-77A7DD6AC8EC";
paths = (
{
closed = 1;
nodes = (
"145 707 LINE",
"143 688 LINE SMOOTH",
"142 677 OFFCURVE",
"148 671 OFFCURVE",
"161 670 CURVE",
"225 668 LINE",
"148 40 LINE",
"83 38 LINE",
"70 37 OFFCURVE",
"62 31 OFFCURVE",
"61 20 CURVE",
"58 0 LINE",
"143 0 LINE",
"567 0 LINE",
"585 147 LINE",
"560 147 LINE SMOOTH",
"546 147 OFFCURVE",
"539 138 OFFCURVE",
"536 122 CURVE",
"522 43 LINE",
"199 43 LINE",
"236 338 LINE",
"517 338 LINE",
"522 379 LINE",
"241 379 LINE",
"276 665 LINE",
"599 665 LINE",
"593 585 LINE",
"592 569 OFFCURVE",
"597 561 OFFCURVE",
"611 561 CURVE SMOOTH",
"636 561 LINE",
"648 665 LINE",
"654 707 LINE"
);
}
);
width = 702;
},
{
anchors = (
{
name = bottom;
position = "{363, 0}";
},
{
name = ogonek;
position = "{626, 10}";
},
{
name = top;
position = "{363, 723}";
},
{
name = topleft;
position = "{54, 723}";
}
);
layerId = "A0CD44AA-8F44-4864-B482-F84B7650FD25";
paths = (
{
closed = 1;
nodes = (
"218 723 LINE",
"142 723 LINE",
"135 664 LINE SMOOTH",
"133 647 OFFCURVE",
"140 637 OFFCURVE",
"156 633 CURVE",
"157 633 OFFCURVE",
"159 632 OFFCURVE",
"162 632 CURVE SMOOTH",
"165 632 OFFCURVE",
"169 630 OFFCURVE",
"176 629 CURVE SMOOTH",
"183 628 OFFCURVE",
"193 626 OFFCURVE",
"205 624 CURVE",
"141 99 LINE",
"128 97 OFFCURVE",
"118 95 OFFCURVE",
"111 94 CURVE SMOOTH",
"104 93 OFFCURVE",
"98 91 OFFCURVE",
"95 91 CURVE SMOOTH",
"92 91 OFFCURVE",
"91 90 OFFCURVE",
"89 90 CURVE",
"72 86 OFFCURVE",
"62 76 OFFCURVE",
"60 59 CURVE SMOOTH",
"53 0 LINE",
"129 0 LINE",
"585 0 LINE",
"593 70 LINE",
"598 108 LINE",
"608 191 LINE",
"604 191 LINE",
"592 191 LINE",
"551 191 LINE SMOOTH",
"538 191 OFFCURVE",
"529 184 OFFCURVE",
"525 172 CURVE",
"523 164 OFFCURVE",
"518 143 OFFCURVE",
"510 108 CURVE",
"277 108 LINE",
"303 312 LINE",
"547 312 LINE",
"560 416 LINE",
"315 416 LINE",
"340 616 LINE",
"572 616 LINE",
"571 581 OFFCURVE",
"572 560 OFFCURVE",
"572 552 CURVE",
"573 540 OFFCURVE",
"580 533 OFFCURVE",
"593 533 CURVE SMOOTH",
"634 533 LINE",
"646 533 LINE",
"650 533 LINE",
"660 616 LINE",
"665 653 LINE",
"674 723 LINE"
);
}
);
width = 707;
}
);
note = E;
rightKerningGroup = E;
unicode = 0045;
},
{
glyphname = F;
layers = (
{
anchors = (
{
name = bottom;
position = "{326, 0}";
},
{
name = top;
position = "{412, 716}";
}
);
layerId = "C87851D2-2817-4F36-A784-A5AE84D7BDA8";
paths = (
{
closed = 1;
nodes = (
"215 716 LINE",
"143 716 LINE",
"138 674 LINE SMOOTH",
"137 664 OFFCURVE",
"141 657 OFFCURVE",
"151 655 CURVE SMOOTH",
"157 654 OFFCURVE",
"176 650 OFFCURVE",
"207 644 CURVE",
"136 73 LINE",
"78 62 LINE SMOOTH",
"68 60 OFFCURVE",
"62 53 OFFCURVE",
"61 43 CURVE SMOOTH",
"56 0 LINE",
"297 0 LINE",
"302 43 LINE SMOOTH",
"303 53 OFFCURVE",
"300 60 OFFCURVE",
"290 62 CURVE SMOOTH",
"261 68 OFFCURVE",
"242 71 OFFCURVE",
"234 73 CURVE",
"263 308 LINE",
"535 308 LINE",
"545 387 LINE",
"273 387 LINE",
"303 638 LINE",
"588 638 LINE",
"586 590 OFFCURVE",
"586 564 OFFCURVE",
"586 561 CURVE",
"587 549 OFFCURVE",
"593 544 OFFCURVE",
"604 544 CURVE SMOOTH",
"653 544 LINE",
"674 716 LINE"
);
}
);
width = 724;
},
{
anchors = (
{
name = bottom;
position = "{357, 0}";
},
{
name = top;
position = "{357, 708}";
}
);
layerId = "18B4A443-2C69-4DCB-9619-77A7DD6AC8EC";
paths = (
{
closed = 1;
nodes = (
"145 707 LINE",
"143 688 LINE SMOOTH",
"142 677 OFFCURVE",
"148 671 OFFCURVE",
"161 670 CURVE",
"225 668 LINE",
"148 40 LINE",
"83 38 LINE",
"70 37 OFFCURVE",
"62 31 OFFCURVE",
"61 20 CURVE",
"58 0 LINE",
"278 0 LINE",
"281 20 LINE",
"282 31 OFFCURVE",
"276 37 OFFCURVE",
"263 38 CURVE",
"199 40 LINE",
"234 325 LINE",
"498 325 LINE",
"504 368 LINE",
"239 368 LINE",
"276 665 LINE",
"605 665 LINE",
"599 585 LINE",
"598 569 OFFCURVE",
"604 561 OFFCURVE",
"618 561 CURVE SMOOTH",
"642 561 LINE",
"660 707 LINE"
);
}
);
width = 693;
},
{
anchors = (
{
name = bottom;
position = "{376, 0}";
},
{
name = top;
position = "{376, 723}";
}
);
layerId = "A0CD44AA-8F44-4864-B482-F84B7650FD25";
paths = (
{
closed = 1;
nodes = (
"674 723 LINE",
"651 723 LINE",
"218 723 LINE",
"142 723 LINE",
"135 664 LINE SMOOTH",
"133 647 OFFCURVE",
"140 637 OFFCURVE",
"156 633 CURVE",
"157 633 OFFCURVE",
"159 633 OFFCURVE",
"162 632 CURVE",
"165 632 OFFCURVE",
"169 630 OFFCURVE",
"176 629 CURVE SMOOTH",
"183 628 OFFCURVE",
"193 626 OFFCURVE",
"205 624 CURVE",
"141 99 LINE",
"128 97 OFFCURVE",
"118 95 OFFCURVE",
"111 94 CURVE SMOOTH",
"104 93 OFFCURVE",
"98 91 OFFCURVE",
"95 91 CURVE SMOOTH",
"92 91 OFFCURVE",
"91 90 OFFCURVE",
"89 90 CURVE",
"72 86 OFFCURVE",
"62 76 OFFCURVE",
"60 59 CURVE SMOOTH",
"53 0 LINE",
"129 0 LINE",
"264 0 LINE",
"340 0 LINE",
"347 59 LINE SMOOTH",
"349 76 OFFCURVE",
"342 86 OFFCURVE",
"326 90 CURVE",
"325 90 OFFCURVE",
"323 91 OFFCURVE",
"320 91 CURVE SMOOTH",
"317 91 OFFCURVE",
"312 93 OFFCURVE",
"305 94 CURVE SMOOTH",
"298 95 OFFCURVE",
"288 97 OFFCURVE",
"276 99 CURVE",
"300 295 LINE",
"553 295 LINE",
"566 402 LINE",
"314 402 LINE",
"340 616 LINE",
"597 616 LINE",
"596 581 OFFCURVE",
"597 560 OFFCURVE",
"597 552 CURVE",
"598 540 OFFCURVE",
"605 533 OFFCURVE",
"618 533 CURVE SMOOTH",
"659 533 LINE",
"671 533 LINE",
"675 533 LINE",
"687 630 LINE",
"690 653 LINE",
"699 723 LINE"
);
}
);
width = 730;
}
);
note = F;
rightKerningGroup = F;
unicode = 0046;
},
{
glyphname = G;
layers = (
{
anchors = (
{
name = bottom;
position = "{338, 0}";
},
{
name = top;
position = "{424, 716}";
}
);
layerId = "C87851D2-2817-4F36-A784-A5AE84D7BDA8";
paths = (
{
closed = 1;
nodes = (
"295 70 OFFCURVE",
"236 95 OFFCURVE",
"194 146 CURVE SMOOTH",
"151 198 OFFCURVE",
"135 269 OFFCURVE",
"146 358 CURVE SMOOTH",
"157 445 OFFCURVE",
"189 513 OFFCURVE",
"243 564 CURVE SMOOTH",
"269 588 OFFCURVE",
"299 608 OFFCURVE",
"333 621 CURVE SMOOTH",
"367 634 OFFCURVE",
"410 640 OFFCURVE",
"458 640 CURVE SMOOTH",
"506 640 OFFCURVE",
"549 635 OFFCURVE",
"585 625 CURVE",
"594 622 OFFCURVE",
"607 619 OFFCURVE",
"622 614 CURVE",
"620 559 OFFCURVE",
"618 528 OFFCURVE",
"618 523 CURVE",
"619 512 OFFCURVE",
"625 506 OFFCURVE",
"637 506 CURVE SMOOTH",
"685 506 LINE",
"705 673 LINE",
"618 707 OFFCURVE",
"537 724 OFFCURVE",
"459 724 CURVE SMOOTH",
"348 724 OFFCURVE",
"254 691 OFFCURVE",
"179 623 CURVE SMOOTH",
"105 556 OFFCURVE",
"61 468 OFFCURVE",
"47 358 CURVE SMOOTH",
"34 250 OFFCURVE",
"56 161 OFFCURVE",
"114 93 CURVE SMOOTH",
"172 25 OFFCURVE",
"253 -8 OFFCURVE",
"357 -8 CURVE SMOOTH",
"467 -8 OFFCURVE",
"561 17 OFFCURVE",
"639 69 CURVE",
"673 344 LINE",
"453 344 LINE",
"446 289 LINE",
"445 284 OFFCURVE",
"447 280 OFFCURVE",
"450 276 CURVE SMOOTH",
"453 272 OFFCURVE",
"458 270 OFFCURVE",
"464 270 CURVE SMOOTH",
"575 270 LINE",
"556 112 LINE",
"500 84 OFFCURVE",
"438 70 OFFCURVE",
"373 70 CURVE SMOOTH"
);
}
);
width = 780;
},
{
anchors = (
{
name = bottom;
position = "{363, 0}";
},
{
name = top;
position = "{363, 708}";
}
);
layerId = "18B4A443-2C69-4DCB-9619-77A7DD6AC8EC";
paths = (
{
closed = 1;
nodes = (
"464 321 LINE",
"461 294 LINE",
"460 286 OFFCURVE",
"463 282 OFFCURVE",
"472 282 CURVE SMOOTH",
"608 282 LINE",
"585 91 LINE",
"505 49 OFFCURVE",
"449 34 OFFCURVE",
"360 34 CURVE SMOOTH",
"178 34 OFFCURVE",
"82 162 OFFCURVE",
"105 354 CURVE SMOOTH",
"128 545 OFFCURVE",
"257 671 OFFCURVE",
"445 671 CURVE SMOOTH",
"529 671 OFFCURVE",
"594 660 OFFCURVE",
"640 637 CURVE",
"632 529 LINE",
"631 513 OFFCURVE",
"637 505 OFFCURVE",
"651 505 CURVE SMOOTH",
"675 505 LINE",
"694 665 LINE",
"631 695 OFFCURVE",
"525 715 OFFCURVE",
"452 715 CURVE SMOOTH",
"230 715 OFFCURVE",
"80 571 OFFCURVE",
"52 354 CURVE SMOOTH",
"25 144 OFFCURVE",
"142 -8 OFFCURVE",
"351 -8 CURVE SMOOTH",
"457 -8 OFFCURVE",
"540 14 OFFCURVE",
"629 70 CURVE",
"660 321 LINE"
);
}
);
width = 771;
},
{
anchors = (
{
name = bottom;
position = "{373, 0}";
},
{
name = top;
position = "{373, 723}";
}
);
layerId = "A0CD44AA-8F44-4864-B482-F84B7650FD25";
paths = (
{
closed = 1;
nodes = (
"439 362 LINE",
"429 286 LINE SMOOTH",
"428 279 OFFCURVE",
"430 274 OFFCURVE",
"434 269 CURVE SMOOTH",
"438 264 OFFCURVE",
"445 261 OFFCURVE",
"454 261 CURVE SMOOTH",
"545 261 LINE",
"528 130 LINE",
"506 120 OFFCURVE",
"484 112 OFFCURVE",
"461 107 CURVE SMOOTH",
"438 102 OFFCURVE",
"411 99 OFFCURVE",
"381 99 CURVE SMOOTH",
"347 99 OFFCURVE",
"316 105 OFFCURVE",
"288 117 CURVE SMOOTH",
"260 129 OFFCURVE",
"238 146 OFFCURVE",
"220 168 CURVE SMOOTH",
"202 190 OFFCURVE",
"189 217 OFFCURVE",
"181 250 CURVE SMOOTH",
"173 282 OFFCURVE",
"172 320 OFFCURVE",
"177 362 CURVE SMOOTH",
"182 401 OFFCURVE",
"191 436 OFFCURVE",
"206 467 CURVE SMOOTH",
"221 498 OFFCURVE",
"240 525 OFFCURVE",
"263 547 CURVE SMOOTH",
"286 569 OFFCURVE",
"313 587 OFFCURVE",
"343 599 CURVE SMOOTH",
"373 611 OFFCURVE",
"406 616 OFFCURVE",
"442 616 CURVE SMOOTH",
"506 616 OFFCURVE",
"562 608 OFFCURVE",
"610 591 CURVE",
"609 548 OFFCURVE",
"609 522 OFFCURVE",
"609 513 CURVE",
"610 501 OFFCURVE",
"617 495 OFFCURVE",
"630 495 CURVE SMOOTH",
"671 495 LINE",
"683 495 LINE",
"688 495 LINE",
"710 679 LINE",
"621 713 OFFCURVE",
"539 731 OFFCURVE",
"461 731 CURVE SMOOTH",
"460 731 LINE",
"454 731 LINE SMOOTH",
"399 730 OFFCURVE",
"347 721 OFFCURVE",
"301 704 CURVE SMOOTH",
"252 686 OFFCURVE",
"211 661 OFFCURVE",
"174 628 CURVE SMOOTH",
"137 595 OFFCURVE",
"107 556 OFFCURVE",
"84 511 CURVE SMOOTH",
"61 466 OFFCURVE",
"46 416 OFFCURVE",
"39 362 CURVE SMOOTH",
"32 308 OFFCURVE",
"35 258 OFFCURVE",
"48 213 CURVE SMOOTH",
"61 168 OFFCURVE",
"82 129 OFFCURVE",
"110 96 CURVE SMOOTH",
"138 63 OFFCURVE",
"173 38 OFFCURVE",
"215 20 CURVE SMOOTH",
"257 2 OFFCURVE",
"305 -8 OFFCURVE",
"358 -8 CURVE SMOOTH",
"388 -8 OFFCURVE",
"415 -6 OFFCURVE",
"441 -3 CURVE SMOOTH",
"467 0 OFFCURVE",
"492 5 OFFCURVE",
"515 11 CURVE SMOOTH",
"538 17 OFFCURVE",
"561 25 OFFCURVE",
"582 35 CURVE SMOOTH",
"603 45 OFFCURVE",
"623 57 OFFCURVE",
"643 70 CURVE",
"679 362 LINE"
);
}
);
width = 776;
}
);
leftKerningGroup = C;
note = G;
unicode = 0047;
},
{
glyphname = H;
layers = (
{
anchors = (
{
name = bottom;
position = "{424, 0}";
},
{
name = center;
position = "{467, 358}";
},
{
name = top;
position = "{510, 716}";
},
{
name = topleft;
position = "{141, 716}";
}
);
layerId = "C87851D2-2817-4F36-A784-A5AE84D7BDA8";
paths = (
{
closed = 1;
nodes = (
"846 655 LINE SMOOTH",
"857 657 OFFCURVE",
"863 664 OFFCURVE",
"864 674 CURVE SMOOTH",
"869 716 LINE",
"627 716 LINE",
"622 674 LINE SMOOTH",
"621 664 OFFCURVE",
"624 658 OFFCURVE",
"632 656 CURVE SMOOTH",
"640 654 OFFCURVE",
"660 650 OFFCURVE",
"691 644 CURVE",
"660 397 LINE",
"274 397 LINE",
"305 644 LINE",
"339 651 OFFCURVE",
"360 654 OFFCURVE",
"367 656 CURVE",
"374 657 OFFCURVE",
"379 664 OFFCURVE",
"380 674 CURVE SMOOTH",
"385 716 LINE",
"144 716 LINE",
"139 674 LINE SMOOTH",
"138 664 OFFCURVE",
"140 658 OFFCURVE",
"148 656 CURVE SMOOTH",
"156 654 OFFCURVE",
"176 650 OFFCURVE",
"207 644 CURVE",
"137 73 LINE",
"79 62 LINE SMOOTH",
"69 60 OFFCURVE",
"62 53 OFFCURVE",
"61 43 CURVE SMOOTH",
"56 0 LINE",
"297 0 LINE",
"303 43 LINE",
"304 53 OFFCURVE",
"281 63 OFFCURVE",
"234 73 CURVE",
"266 326 LINE",
"652 326 LINE",
"620 73 LINE",
"562 62 LINE SMOOTH",
"552 60 OFFCURVE",
"546 53 OFFCURVE",
"545 43 CURVE",
"539 0 LINE",
"781 0 LINE",
"787 43 LINE",
"788 53 OFFCURVE",
"785 59 OFFCURVE",
"777 61 CURVE SMOOTH",
"769 63 OFFCURVE",
"750 67 OFFCURVE",
"718 73 CURVE",
"788 644 LINE"
);
}
);
width = 925;
},
{
anchors = (
{
name = bottom;
position = "{456, 0}";
},
{
name = center;
position = "{456, 354}";
},
{
name = top;
position = "{456, 708}";
},
{
name = topleft;
position = "{62, 708}";
}
);
layerId = "18B4A443-2C69-4DCB-9619-77A7DD6AC8EC";
paths = (
{
closed = 1;
nodes = (
"835 671 LINE",
"848 672 OFFCURVE",
"856 678 OFFCURVE",
"857 689 CURVE",
"860 708 LINE",
"640 708 LINE",
"637 689 LINE",
"636 678 OFFCURVE",
"642 672 OFFCURVE",
"655 671 CURVE",
"719 669 LINE",
"684 378 LINE",
"241 378 LINE",
"276 669 LINE",
"341 671 LINE",
"354 672 OFFCURVE",
"362 678 OFFCURVE",
"363 689 CURVE SMOOTH",
"365 708 LINE",
"145 708 LINE",
"143 689 LINE SMOOTH",
"142 678 OFFCURVE",
"148 672 OFFCURVE",
"161 671 CURVE",
"225 669 LINE",
"148 40 LINE",
"83 38 LINE",
"70 37 OFFCURVE",
"62 31 OFFCURVE",
"61 20 CURVE",
"58 0 LINE",
"278 0 LINE",
"281 20 LINE",
"282 31 OFFCURVE",
"276 37 OFFCURVE",
"263 38 CURVE",
"199 40 LINE",
"236 339 LINE",
"679 339 LINE",
"642 40 LINE",
"577 38 LINE",
"564 37 OFFCURVE",
"556 31 OFFCURVE",
"555 20 CURVE SMOOTH",
"553 0 LINE",
"773 0 LINE",
"775 20 LINE SMOOTH",
"776 31 OFFCURVE",
"771 37 OFFCURVE",
"758 38 CURVE",
"694 40 LINE",
"771 669 LINE"
);
}
);
width = 918;
},
{
anchors = (
{
name = bottom;
position = "{478, 0}";
},
{
name = center;
position = "{478, 362}";
},
{
name = top;
position = "{478, 723}";
},
{
name = topleft;
position = "{54, 723}";
}
);
layerId = "A0CD44AA-8F44-4864-B482-F84B7650FD25";
paths = (
{
closed = 1;
nodes = (
"884 637 OFFCURVE",
"894 647 OFFCURVE",
"896 664 CURVE SMOOTH",
"903 723 LINE",
"828 723 LINE",
"692 723 LINE",
"616 723 LINE",
"609 664 LINE SMOOTH",
"607 647 OFFCURVE",
"614 637 OFFCURVE",
"630 633 CURVE",
"631 633 OFFCURVE",
"633 633 OFFCURVE",
"636 632 CURVE SMOOTH",
"639 631 OFFCURVE",
"644 630 OFFCURVE",
"651 629 CURVE SMOOTH",
"658 628 OFFCURVE",
"668 626 OFFCURVE",
"680 624 CURVE",
"654 412 LINE",
"315 412 LINE",
"341 624 LINE",
"354 626 OFFCURVE",
"364 628 OFFCURVE",
"371 629 CURVE SMOOTH",
"378 630 OFFCURVE",
"383 631 OFFCURVE",
"386 632 CURVE SMOOTH",
"389 633 OFFCURVE",
"392 633 OFFCURVE",
"393 633 CURVE",
"410 637 OFFCURVE",
"419 647 OFFCURVE",
"421 664 CURVE SMOOTH",
"429 723 LINE",
"353 723 LINE",
"218 723 LINE",
"142 723 LINE",
"135 664 LINE SMOOTH",
"133 647 OFFCURVE",
"140 637 OFFCURVE",
"156 633 CURVE",
"157 633 OFFCURVE",
"159 633 OFFCURVE",
"162 632 CURVE",
"165 632 OFFCURVE",
"169 630 OFFCURVE",
"176 629 CURVE SMOOTH",
"183 628 OFFCURVE",
"193 626 OFFCURVE",
"205 624 CURVE",
"141 99 LINE",
"128 97 OFFCURVE",
"118 95 OFFCURVE",
"111 94 CURVE SMOOTH",
"104 93 OFFCURVE",
"98 91 OFFCURVE",
"95 91 CURVE SMOOTH",
"92 91 OFFCURVE",
"90 90 OFFCURVE",
"89 90 CURVE",
"72 86 OFFCURVE",
"62 76 OFFCURVE",
"60 59 CURVE SMOOTH",
"53 0 LINE",
"129 0 LINE",
"264 0 LINE",
"340 0 LINE",
"347 59 LINE SMOOTH",
"349 76 OFFCURVE",
"342 86 OFFCURVE",
"326 90 CURVE",
"325 90 OFFCURVE",
"323 90 OFFCURVE",
"320 91 CURVE",
"317 91 OFFCURVE",
"312 93 OFFCURVE",
"305 94 CURVE SMOOTH",
"298 95 OFFCURVE",
"288 97 OFFCURVE",
"276 99 CURVE",
"303 316 LINE",
"642 316 LINE",
"615 99 LINE",
"602 97 OFFCURVE",
"592 95 OFFCURVE",
"585 94 CURVE SMOOTH",
"578 93 OFFCURVE",
"573 92 OFFCURVE",
"570 91 CURVE SMOOTH",
"567 90 OFFCURVE",
"565 90 OFFCURVE",
"564 90 CURVE",
"547 86 OFFCURVE",
"537 76 OFFCURVE",
"535 59 CURVE SMOOTH",
"528 0 LINE",
"603 0 LINE",
"739 0 LINE",
"814 0 LINE",
"822 59 LINE SMOOTH",
"824 76 OFFCURVE",
"817 86 OFFCURVE",
"801 90 CURVE",
"800 90 OFFCURVE",
"797 91 OFFCURVE",
"794 91 CURVE SMOOTH",
"791 91 OFFCURVE",
"787 93 OFFCURVE",
"780 94 CURVE SMOOTH",
"773 95 OFFCURVE",
"763 97 OFFCURVE",
"751 99 CURVE",
"815 624 LINE",
"828 626 OFFCURVE",
"839 628 OFFCURVE",
"846 629 CURVE SMOOTH",
"853 630 OFFCURVE",
"858 632 OFFCURVE",
"861 632 CURVE SMOOTH",
"864 632 OFFCURVE",
"865 633 OFFCURVE",
"867 633 CURVE"
);
}
);
width = 956;
}
);
note = H;
unicode = 0048;
},
{
glyphname = I;
layers = (
{
anchors = (
{
name = bottom;
position = "{182, 0}";
},
{
name = ogonek;
position = "{300, 10}";
},
{
name = top;
position = "{268, 716}";
},
{
name = topleft;
position = "{141, 716}";
}
);
layerId = "C87851D2-2817-4F36-A784-A5AE84D7BDA8";
paths = (
{
closed = 1;
nodes = (
"362 655 LINE SMOOTH",
"373 657 OFFCURVE",
"379 664 OFFCURVE",
"380 674 CURVE SMOOTH",
"385 716 LINE",
"144 716 LINE",
"139 674 LINE SMOOTH",
"138 664 OFFCURVE",
"140 658 OFFCURVE",
"148 656 CURVE SMOOTH",
"156 654 OFFCURVE",
"176 650 OFFCURVE",
"207 644 CURVE",
"137 73 LINE",
"79 62 LINE SMOOTH",
"69 60 OFFCURVE",
"62 53 OFFCURVE",
"61 43 CURVE SMOOTH",
"56 0 LINE",
"297 0 LINE",
"303 43 LINE",
"304 53 OFFCURVE",
"301 59 OFFCURVE",
"293 61 CURVE SMOOTH",
"285 63 OFFCURVE",
"266 67 OFFCURVE",
"234 73 CURVE",
"304 644 LINE"
);
}
);
width = 441;
},
{
anchors = (
{
name = bottom;
position = "{171, 0}";
},
{
name = ogonek;
position = "{218, 10}";
},
{
name = top;
position = "{256, 708}";
},
{
name = topleft;
position = "{62, 708}";
}
);
layerId = "18B4A443-2C69-4DCB-9619-77A7DD6AC8EC";
paths = (
{
closed = 1;
nodes = (
"341 670 LINE",
"354 671 OFFCURVE",
"362 677 OFFCURVE",
"363 688 CURVE SMOOTH",
"365 708 LINE",
"145 708 LINE",
"143 688 LINE SMOOTH",
"142 677 OFFCURVE",
"148 671 OFFCURVE",
"161 670 CURVE",
"225 668 LINE",
"148 40 LINE",
"83 38 LINE",
"70 37 OFFCURVE",
"62 31 OFFCURVE",
"61 20 CURVE",
"58 0 LINE",
"278 0 LINE",
"281 20 LINE",
"282 31 OFFCURVE",
"276 37 OFFCURVE",
"263 38 CURVE",
"199 40 LINE",
"276 668 LINE"
);
}
);
width = 423;
},
{
anchors = (
{
name = bottom;
position = "{241, 0}";
},
{
name = ogonek;
position = "{406, 10}";
},
{
name = top;
position = "{241, 723}";
},
{
name = topleft;
position = "{54, 723}";
}
);
layerId = "A0CD44AA-8F44-4864-B482-F84B7650FD25";
paths = (
{
closed = 1;
nodes = (
"409 637 OFFCURVE",
"419 647 OFFCURVE",
"421 664 CURVE SMOOTH",
"428 723 LINE",
"353 723 LINE",
"218 723 LINE",
"142 723 LINE",
"135 664 LINE SMOOTH",
"133 647 OFFCURVE",
"140 637 OFFCURVE",
"156 633 CURVE",
"157 633 OFFCURVE",
"159 633 OFFCURVE",
"162 632 CURVE",
"165 632 OFFCURVE",
"169 630 OFFCURVE",
"176 629 CURVE SMOOTH",
"183 628 OFFCURVE",
"193 626 OFFCURVE",
"205 624 CURVE",
"141 99 LINE",
"128 97 OFFCURVE",
"118 95 OFFCURVE",
"111 94 CURVE SMOOTH",
"104 93 OFFCURVE",
"98 91 OFFCURVE",
"95 91 CURVE SMOOTH",
"92 91 OFFCURVE",
"90 90 OFFCURVE",
"89 90 CURVE",
"72 86 OFFCURVE",
"62 76 OFFCURVE",
"60 59 CURVE SMOOTH",
"53 0 LINE",
"129 0 LINE",
"264 0 LINE",
"339 0 LINE",
"347 59 LINE SMOOTH",
"349 76 OFFCURVE",
"342 86 OFFCURVE",
"326 90 CURVE",
"325 90 OFFCURVE",
"322 91 OFFCURVE",
"319 91 CURVE SMOOTH",
"316 91 OFFCURVE",
"312 93 OFFCURVE",
"305 94 CURVE SMOOTH",
"298 95 OFFCURVE",
"288 97 OFFCURVE",
"276 99 CURVE",
"340 624 LINE",
"353 626 OFFCURVE",
"364 628 OFFCURVE",
"371 629 CURVE SMOOTH",
"378 630 OFFCURVE",
"383 632 OFFCURVE",
"386 632 CURVE SMOOTH",
"389 632 OFFCURVE",
"390 633 OFFCURVE",
"392 633 CURVE"
);
}
);
width = 481;
}
);
note = I;
unicode = 0049;
},
{
glyphname = J;
layers = (
{
anchors = (
{
name = bottom;
position = "{206, 0}";
},
{
name = top;
position = "{292, 716}";
}
);
layerId = "C87851D2-2817-4F36-A784-A5AE84D7BDA8";
paths = (
{
closed = 1;
nodes = (
"84 73 OFFCURVE",
"71 75 OFFCURVE",
"61 78 CURVE SMOOTH",
"51 81 OFFCURVE",
"43 82 OFFCURVE",
"37 82 CURVE SMOOTH",
"31 82 OFFCURVE",
"25 80 OFFCURVE",
"20 76 CURVE SMOOTH",
"15 72 OFFCURVE",
"9 48 OFFCURVE",
"1 6 CURVE",
"35 -3 OFFCURVE",
"69 -8 OFFCURVE",
"103 -8 CURVE SMOOTH",
"137 -8 OFFCURVE",
"170 -2 OFFCURVE",
"199 10 CURVE SMOOTH",
"289 46 OFFCURVE",
"342 125 OFFCURVE",
"357 248 CURVE SMOOTH",
"406 644 LINE",
"464 655 LINE SMOOTH",
"474 657 OFFCURVE",
"480 664 OFFCURVE",
"481 674 CURVE",
"487 716 LINE",
"237 716 LINE",
"231 674 LINE",
"230 664 OFFCURVE",
"234 657 OFFCURVE",
"244 655 CURVE SMOOTH",
"250 654 OFFCURVE",
"271 650 OFFCURVE",
"309 644 CURVE",
"260 246 LINE SMOOTH",
"246 131 OFFCURVE",
"193 73 OFFCURVE",
"101 73 CURVE SMOOTH"
);
}
);
width = 510;
},
{
anchors = (
{
name = bottom;
position = "{234, 0}";
},
{
name = top;
position = "{234, 708}";
}
);
layerId = "18B4A443-2C69-4DCB-9619-77A7DD6AC8EC";
paths = (
{
closed = 1;
nodes = (
"249 708 LINE",
"246 688 LINE",
"245 677 OFFCURVE",
"251 671 OFFCURVE",
"264 670 CURVE",
"335 668 LINE",
"282 235 LINE SMOOTH",
"267 119 OFFCURVE",
"211 35 OFFCURVE",
"93 35 CURVE SMOOTH",
"77 35 OFFCURVE",
"40 42 OFFCURVE",
"30 44 CURVE SMOOTH",
"18 47 OFFCURVE",
"10 45 OFFCURVE",
"7 35 CURVE",
"1 7 LINE",
"28 -2 OFFCURVE",
"66 -8 OFFCURVE",
"92 -8 CURVE SMOOTH",
"230 -8 OFFCURVE",
"315 87 OFFCURVE",
"334 236 CURVE SMOOTH",
"387 668 LINE",
"451 670 LINE",
"464 671 OFFCURVE",
"472 677 OFFCURVE",
"473 688 CURVE",
"476 708 LINE"
);
}
);
width = 502;
},
{
anchors = (
{
name = bottom;
position = "{255, 0}";
},
{
name = top;
position = "{255, 723}";
}
);
layerId = "A0CD44AA-8F44-4864-B482-F84B7650FD25";
paths = (
{
closed = 1;
nodes = (
"434 723 LINE",
"300 723 LINE",
"214 723 LINE",
"207 664 LINE SMOOTH",
"205 647 OFFCURVE",
"212 637 OFFCURVE",
"228 633 CURVE",
"229 633 OFFCURVE",
"233 632 OFFCURVE",
"237 632 CURVE SMOOTH",
"241 632 OFFCURVE",
"247 630 OFFCURVE",
"256 629 CURVE SMOOTH",
"265 628 OFFCURVE",
"275 626 OFFCURVE",
"287 624 CURVE",
"242 254 LINE SMOOTH",
"239 227 OFFCURVE",
"233 203 OFFCURVE",
"226 184 CURVE SMOOTH",
"219 165 OFFCURVE",
"209 150 OFFCURVE",
"198 138 CURVE SMOOTH",
"187 126 OFFCURVE",
"173 116 OFFCURVE",
"158 111 CURVE",
"143 105 OFFCURVE",
"125 103 OFFCURVE",
"106 103 CURVE SMOOTH",
"92 103 OFFCURVE",
"81 105 OFFCURVE",
"72 107 CURVE SMOOTH",
"63 109 OFFCURVE",
"56 110 OFFCURVE",
"50 110 CURVE SMOOTH",
"41 110 OFFCURVE",
"33 107 OFFCURVE",
"28 103 CURVE",
"23 98 OFFCURVE",
"20 93 OFFCURVE",
"18 86 CURVE",
"1 6 LINE",
"19 1 OFFCURVE",
"37 -3 OFFCURVE",
"54 -5 CURVE SMOOTH",
"71 -7 OFFCURVE",
"89 -8 OFFCURVE",
"107 -8 CURVE SMOOTH",
"146 -8 OFFCURVE",
"182 -1 OFFCURVE",
"213 11 CURVE SMOOTH",
"244 23 OFFCURVE",
"270 41 OFFCURVE",
"293 64 CURVE SMOOTH",
"316 87 OFFCURVE",
"334 114 OFFCURVE",
"348 147 CURVE SMOOTH",
"362 180 OFFCURVE",
"372 216 OFFCURVE",
"377 257 CURVE SMOOTH",
"422 624 LINE",
"435 626 OFFCURVE",
"445 628 OFFCURVE",
"452 629 CURVE SMOOTH",
"459 630 OFFCURVE",
"464 632 OFFCURVE",
"467 632 CURVE SMOOTH",
"470 632 OFFCURVE",
"473 633 OFFCURVE",
"474 633 CURVE",
"491 637 OFFCURVE",
"501 647 OFFCURVE",
"503 664 CURVE SMOOTH",
"510 723 LINE"
);
}
);
width = 529;
}
);
leftKerningGroup = J;
note = J;
rightKerningGroup = J;
unicode = 004A;
},
{
glyphname = K;
layers = (
{
anchors = (
{
name = bottom;
position = "{376, 0}";
},
{
name = top;
position = "{462, 716}";
}
);
layerId = "C87851D2-2817-4F36-A784-A5AE84D7BDA8";
paths = (
{
closed = 1;
nodes = (
"693 60 OFFCURVE",
"677 64 OFFCURVE",
"650 70 CURVE",
"457 340 LINE SMOOTH",
"443 359 OFFCURVE",
"429 371 OFFCURVE",
"415 376 CURVE",
"427 381 OFFCURVE",
"441 392 OFFCURVE",
"458 408 CURVE SMOOTH",
"701 648 LINE",
"727 654 OFFCURVE",
"743 659 OFFCURVE",
"749 660 CURVE SMOOTH",
"759 662 OFFCURVE",
"765 668 OFFCURVE",
"766 678 CURVE SMOOTH",
"769 716 LINE",
"543 716 LINE",
"539 676 LINE SMOOTH",
"538 666 OFFCURVE",
"541 661 OFFCURVE",
"550 659 CURVE SMOOTH",
"555 658 OFFCURVE",
"570 655 OFFCURVE",
"593 650 CURVE",
"364 424 LINE SMOOTH",
"350 410 OFFCURVE",
"332 402 OFFCURVE",
"310 402 CURVE SMOOTH",
"274 402 LINE",
"304 644 LINE",
"312 645 OFFCURVE",
"331 649 OFFCURVE",
"362 655 CURVE SMOOTH",
"373 657 OFFCURVE",
"379 664 OFFCURVE",
"380 674 CURVE SMOOTH",
"385 716 LINE",
"144 716 LINE",
"139 674 LINE SMOOTH",
"138 664 OFFCURVE",
"141 657 OFFCURVE",
"151 655 CURVE SMOOTH",
"157 654 OFFCURVE",
"176 650 OFFCURVE",
"207 644 CURVE",
"137 73 LINE",
"79 62 LINE SMOOTH",
"69 60 OFFCURVE",
"62 53 OFFCURVE",
"61 43 CURVE SMOOTH",
"56 0 LINE",
"297 0 LINE",
"302 43 LINE SMOOTH",
"303 53 OFFCURVE",
"299 60 OFFCURVE",
"289 62 CURVE SMOOTH",
"263 67 OFFCURVE",
"244 71 OFFCURVE",
"233 73 CURVE",
"265 328 LINE",
"309 328 LINE SMOOTH",
"317 328 OFFCURVE",
"325 327 OFFCURVE",
"334 326 CURVE SMOOTH",
"343 325 OFFCURVE",
"352 318 OFFCURVE",
"362 305 CURVE SMOOTH",
"540 66 LINE",
"512 61 OFFCURVE",
"497 59 OFFCURVE",
"493 58 CURVE",
"483 56 OFFCURVE",
"478 50 OFFCURVE",
"477 40 CURVE SMOOTH",
"472 0 LINE",
"707 0 LINE",
"712 40 LINE SMOOTH",
"713 50 OFFCURVE",
"709 57 OFFCURVE",
"699 59 CURVE SMOOTH"
);
}
);
width = 770;
},
{
anchors = (
{
name = bottom;
position = "{401, 0}";
},
{
name = top;
position = "{401, 708}";
}
);
components = (
{
name = serifBottom;
transform = "{1, 0, 0, 1, 19, 0}";
},
{
name = serifBottom;
transform = "{-1, 0, 0, -1, 404, 708}";
},
{
name = serifBottom;
transform = "{-1, 0, 0, -1, 805, 708}";
},
{
name = serifBottom;
transform = "{1, 0, 0, 1, 451, 0}";
}
);
layerId = "18B4A443-2C69-4DCB-9619-77A7DD6AC8EC";
paths = (
{
closed = 1;
nodes = (
"335 400 LINE",
"319 384 OFFCURVE",
"307 381 OFFCURVE",
"283 381 CURVE SMOOTH",
"241 381 LINE",
"276 669 LINE",
"281 708 LINE",
"230 708 LINE",
"225 669 LINE",
"148 40 LINE",
"143 0 LINE",
"194 0 LINE",
"199 40 LINE",
"236 341 LINE",
"281 341 LINE SMOOTH",
"300 341 OFFCURVE",
"316 340 OFFCURVE",
"332 320 CURVE",
"573 39 LINE",
"606 0 LINE",
"665 0 LINE",
"632 39 LINE",
"380 340 LINE",
"373 349 OFFCURVE",
"362 361 OFFCURVE",
"348 365 CURVE",
"356 368 OFFCURVE",
"370 377 OFFCURVE",
"384 390 CURVE",
"689 669 LINE",
"734 708 LINE",
"676 708 LINE",
"631 669 LINE"
);
}
);
width = 767;
},
{
anchors = (
{
name = bottom;
position = "{433, 0}";
},
{
name = top;
position = "{433, 723}";
}
);
layerId = "A0CD44AA-8F44-4864-B482-F84B7650FD25";
paths = (
{
closed = 1;
nodes = (
"736 90 OFFCURVE",
"733 91 OFFCURVE",
"729 91 CURVE SMOOTH",
"725 91 OFFCURVE",
"719 93 OFFCURVE",
"711 94 CURVE SMOOTH",
"703 95 OFFCURVE",
"693 97 OFFCURVE",
"682 99 CURVE",
"533 338 LINE SMOOTH",
"526 349 OFFCURVE",
"519 359 OFFCURVE",
"511 366 CURVE SMOOTH",
"503 373 OFFCURVE",
"493 379 OFFCURVE",
"483 383 CURVE",
"491 387 OFFCURVE",
"500 393 OFFCURVE",
"508 399 CURVE SMOOTH",
"516 405 OFFCURVE",
"524 413 OFFCURVE",
"533 422 CURVE",
"721 624 LINE",
"733 626 OFFCURVE",
"743 628 OFFCURVE",
"751 629 CURVE SMOOTH",
"759 630 OFFCURVE",
"766 632 OFFCURVE",
"770 632 CURVE SMOOTH",
"774 632 OFFCURVE",
"776 633 OFFCURVE",
"778 633 CURVE",
"795 637 OFFCURVE",
"805 647 OFFCURVE",
"807 664 CURVE SMOOTH",
"814 723 LINE",
"738 723 LINE",
"713 723 LINE",
"547 723 LINE",
"540 664 LINE SMOOTH",
"538 647 OFFCURVE",
"545 637 OFFCURVE",
"561 633 CURVE",
"562 633 OFFCURVE",
"564 632 OFFCURVE",
"567 632 CURVE SMOOTH",
"570 632 OFFCURVE",
"572 631 OFFCURVE",
"574 631 CURVE",
"402 442 LINE SMOOTH",
"395 434 OFFCURVE",
"387 429 OFFCURVE",
"378 425 CURVE SMOOTH",
"369 421 OFFCURVE",
"359 420 OFFCURVE",
"346 420 CURVE SMOOTH",
"315 420 LINE",
"340 624 LINE",
"353 626 OFFCURVE",
"363 629 OFFCURVE",
"370 630 CURVE SMOOTH",
"377 631 OFFCURVE",
"382 631 OFFCURVE",
"385 632 CURVE",
"388 632 OFFCURVE",
"391 633 OFFCURVE",
"392 633 CURVE",
"409 637 OFFCURVE",
"418 648 OFFCURVE",
"420 665 CURVE SMOOTH",
"428 723 LINE",
"352 723 LINE",
"218 723 LINE",
"142 723 LINE",
"135 665 LINE SMOOTH",
"133 648 OFFCURVE",
"140 637 OFFCURVE",
"156 633 CURVE",
"157 633 OFFCURVE",
"159 632 OFFCURVE",
"162 632 CURVE SMOOTH",
"165 632 OFFCURVE",
"170 631 OFFCURVE",
"177 630 CURVE SMOOTH",
"184 629 OFFCURVE",
"193 626 OFFCURVE",
"205 624 CURVE",
"141 99 LINE",
"128 97 OFFCURVE",
"118 95 OFFCURVE",
"111 94 CURVE SMOOTH",
"104 93 OFFCURVE",
"98 92 OFFCURVE",
"95 91 CURVE",
"92 91 OFFCURVE",
"90 90 OFFCURVE",
"89 90 CURVE",
"72 86 OFFCURVE",
"62 76 OFFCURVE",
"60 59 CURVE SMOOTH",
"53 0 LINE",
"129 0 LINE",
"263 0 LINE",
"339 0 LINE",
"346 59 LINE SMOOTH",
"348 76 OFFCURVE",
"341 86 OFFCURVE",
"325 90 CURVE",
"324 90 OFFCURVE",
"322 91 OFFCURVE",
"319 91 CURVE SMOOTH",
"316 91 OFFCURVE",
"311 93 OFFCURVE",
"304 94 CURVE SMOOTH",
"297 95 OFFCURVE",
"287 97 OFFCURVE",
"275 99 CURVE",
"302 318 LINE",
"345 318 LINE SMOOTH",
"360 318 OFFCURVE",
"372 316 OFFCURVE",
"380 312 CURVE SMOOTH",
"388 308 OFFCURVE",
"394 302 OFFCURVE",
"400 293 CURVE SMOOTH",
"528 94 LINE",
"523 93 OFFCURVE",
"518 92 OFFCURVE",
"514 91 CURVE SMOOTH",
"510 90 OFFCURVE",
"507 90 OFFCURVE",
"506 90 CURVE",
"489 86 OFFCURVE",
"479 76 OFFCURVE",
"477 59 CURVE SMOOTH",
"470 0 LINE",
"624 0 LINE",
"636 0 LINE",
"675 0 LINE",
"743 0 LINE",
"750 0 LINE",
"758 59 LINE SMOOTH",
"760 76 OFFCURVE",
"753 86 OFFCURVE",
"737 90 CURVE"
);
}
);
width = 815;
}
);
note = K;
rightKerningGroup = K;
unicode = 004B;
},
